<?xml version="1.0" encoding="utf-8"?>
<!-- Generator: Adobe Illustrator 20.0.0, SVG Export Plug-In . SVG Version: 6.00 Build 0)  -->
<svg version="1.1" id="Layer_1" xmlns="http://www.w3.org/2000/svg" xmlns:xlink="http://www.w3.org/1999/xlink" x="0px" y="0px"
	 viewBox="0 0 288 32" style="enable-background:new 0 0 288 32;" xml:space="preserve">
<style type="text/css">
	.st0{fill:#5D5D5D;}
</style>
<circle class="st0" cx="16" cy="27.6" r="0.5"/>
<path class="st0" d="M77.7,27.6c0,0.3,0.1,0.5,0.1,0.8H82c0.1-0.2,0.1-0.5,0.1-0.8c0-0.3-0.1-0.6-0.2-0.8v0.1h-4v-0.3
	C77.8,26.8,77.7,27.2,77.7,27.6z"/>
<path class="st0" d="M114.7,27.6c0-0.7-0.3-1.4-0.7-1.9v1.1h-4v-1.2c-0.5,0.5-0.9,1.2-0.9,2c0,0.3,0.1,0.5,0.1,0.8h5.4
	C114.7,28.1,114.7,27.9,114.7,27.6z"/>
<path class="st0" d="M147.6,28.4v-1.6l1.2-0.2c-0.1-0.5-0.3-1-0.6-1.5l-2.1,0.4v1.4h-4v-1.4l-2.1-0.4c-0.3,0.4-0.5,0.9-0.6,1.5
	l1.2,0.2v1.6H147.6z"/>
<path class="st0" d="M46.8,28.4h2.2c0.2-0.2,0.2-0.5,0.2-0.8c0-0.3-0.1-0.6-0.3-0.8h-2.2c-0.2,0.2-0.3,0.5-0.3,0.8
	C46.6,27.9,46.7,28.2,46.8,28.4z"/>
<path class="st0" d="M179.6,28.4v-1.6l3.8-0.8c-0.1-0.5-0.3-1-0.5-1.5l-4.9,1v1.4h-4v-1.4l-4.9-1c-0.2,0.5-0.4,1-0.5,1.5l3.8,0.8
	v1.6H179.6z"/>
<path class="st0" d="M211.6,28.4v-1.6l5.9-1.3c-0.1-0.5-0.3-1-0.5-1.5l-7,1.5v1.4h-4v-1.4l-7-1.5c-0.2,0.5-0.3,1-0.5,1.5l5.9,1.3
	v1.6H211.6z"/>
<path class="st0" d="M243.6,28.4v-1.6l7.7-1.6c-0.1-0.5-0.3-1-0.4-1.5l-8.8,1.9v1.4h-4v-1.4l-8.8-1.9c-0.2,0.5-0.3,1-0.4,1.5
	l7.7,1.6v1.6H243.6z"/>
<polygon class="st0" points="274,25.5 274,26.8 270,26.8 270,25.5 259.3,23.2 259.3,24.8 268.4,26.7 268.4,28.4 275.6,28.4 
	275.6,26.7 284.7,24.8 284.7,23.2 "/>
</svg>
