<?xml version="1.0" encoding="utf-8"?>
<!-- Generator: Adobe Illustrator 20.0.0, SVG Export Plug-In . SVG Version: 6.00 Build 0)  -->
<svg version="1.1" id="Layer_1" xmlns="http://www.w3.org/2000/svg" xmlns:xlink="http://www.w3.org/1999/xlink" x="0px" y="0px"
	 viewBox="0 0 352 32" style="enable-background:new 0 0 352 32;" xml:space="preserve">
<style type="text/css">
	.st0{fill:#1E1E1E;}
</style>
<path class="st0" d="M16,8.3c-1.1-1.1-4.6-3.4-13.5-3.4H2v15h0.5c10.6-0.1,13,3.4,13.1,3.5L16,24l0.5-0.7c0,0,2.5-3.6,13.1-3.6H30
	V4.9h-0.5C20.6,4.9,17.1,7.2,16,8.3z M15.5,21.7c-1.5-1.2-5-3-12.4-3V5.9C12.2,6,15,8.7,15.5,9.3V21.7z M29,18.7
	c-7.4,0.1-10.9,1.9-12.4,3.1V9.3C17,8.7,19.8,6,29,5.9V18.7z"/>
<path class="st0" d="M47.6,23.3l0.4,0.6l0.5-0.5c0,0,4.4-5,11.3-6.1l0.4-0.1V2.3l-0.6,0.1C52.4,3.7,49.1,7,48,8.3
	c-1.1-1.1-4.6-3.4-13.5-3.4H34v15h0.5C45.1,19.7,47.5,23.3,47.6,23.3z M48.5,9.3C49.1,8.6,52,5,59.1,3.5v12.7
	c-5.2,1-8.9,3.9-10.5,5.5L48.5,9.3L48.5,9.3z M48.1,22.1L48,22.2l-0.1-0.1H48.1z M35,5.9C44.1,6,47,8.7,47.5,9.3v12.5
	c-1.5-1.2-5-3-12.4-3L35,5.9L35,5.9z"/>
<path class="st0" d="M79.6,23.3l0.5,0.9l0.4-0.9c0,0,2.1-4.9,9-6.7l0.4-0.1v-15l-0.7,0.2c-5.8,1.6-8.5,5.1-9.4,6.6
	C78.7,7.2,75.1,5,66.5,5H66v15h0.5C77,19.7,79.5,23.2,79.6,23.3z M80.5,9.3c0.3-0.6,2.5-4.6,8.3-6.4v12.7c-4.6,1.3-7.1,3.8-8.3,5.5
	V9.3z M67,18.9V6c9.1,0.1,12,2.8,12.4,3.4v12.4c-1.5-1.1-4.9-2.9-12.1-2.9C67.2,18.9,67.1,18.9,67,18.9z"/>
<path class="st0" d="M61,18.7c-0.4,0-3.6,0.4-6.7,1.7c2.1-0.5,4.5-0.7,7.2-0.7H62V4.9h-1V18.7z"/>
<path class="st0" d="M336,8.3c-1.1-1.3-4.5-4.6-11.5-5.9l-0.6-0.1v14.9l0.4,0.1c6.9,1.2,11.2,6.1,11.3,6.1l0.5,0.5l0.4-0.6
	c0,0,2.5-3.5,13.1-3.5h0.5v-15h-0.5C340.7,4.9,337.2,7.2,336,8.3z M335.5,21.7c-1.6-1.5-5.3-4.5-10.5-5.5V3.5c7,1.5,10,5,10.5,5.7
	V21.7z M336,22.2l-0.1-0.1h0.2L336,22.2z M349,18.8c-7.4,0-10.9,1.8-12.4,3V9.3C337.1,8.7,340,6,349,5.9V18.8z"/>
<path class="st0" d="M323,18.7V4.9h-1v14.8h0.5c2.7,0,5.1,0.2,7.2,0.7C326.6,19.1,323.4,18.7,323,18.7z"/>
<path class="st0" d="M91.5,5v1c0.1,0,0.8-0.1,1.5-0.1v12.7c-7.4,0.4-9.7,2.7-9.7,2.7c2-0.9,5.2-1.7,10.3-1.7H94V4.9h-0.5
	C92.6,4.9,91.8,4.9,91.5,5z"/>
<path class="st0" d="M304.1,8.3c-0.9-1.5-3.5-5-9.4-6.6L294,1.5v14.9l0.4,0.1c6.9,1.8,9,6.6,9,6.7l0.4,0.9l0.5-0.8
	c0,0,2.5-3.5,13-3.4h0.5V5h-0.5C308.9,5,305.3,7.2,304.1,8.3z M303.5,21.1c-1.2-1.7-3.8-4.2-8.3-5.5V2.9c5.8,1.9,8,5.8,8.3,6.4V21.1
	z M317,18.9c-0.1,0-0.2,0-0.3,0c-7.2,0-10.7,1.7-12.1,2.9V9.4c0.5-0.6,3.3-3.3,12.4-3.4V18.9z"/>
<path class="st0" d="M291,18.6V5.9c0.7,0,1.4,0.1,1.5,0.1V5c-0.3-0.1-1.1-0.1-2-0.1H290v14.7h0.4c5.1,0,8.3,0.8,10.3,1.7
	C300.7,21.3,298.4,19,291,18.6z"/>
<path class="st0" d="M111.6,23.3l0.6,1l0.3-1.1c0-0.1,1.7-5.2,6.5-7.1l0.3-0.1V1l-0.7,0.3c-4.1,1.8-6,5.3-6.8,6.8
	C110.5,7,107,4.9,98.5,4.9H98v15h0.5C109,19.7,111.5,23.2,111.6,23.3z M112.5,9.2c0.2-0.6,1.8-4.4,5.7-6.5v12.6
	c-3,1.3-4.7,3.6-5.7,5.3V9.2z M99,5.9c9.2,0.1,12,2.8,12.4,3.4v12.5c-1.5-1.2-5-3-12.4-3V5.9z"/>
<path class="st0" d="M143.6,23.3l0.6,1l0.3-1.2c0,0,1.3-4.7,4.1-6.9l0.2-0.2V0.9L148,1.6c-2.4,2-3.7,5-4.2,6.5
	c-1.3-1.1-4.9-3.2-13.3-3.2H130v15h0.5C141,19.7,143.5,23.2,143.6,23.3z M144.5,9.2c0.1-0.5,1.1-3.6,3.2-5.9v12.3
	c-1.5,1.3-2.5,3.1-3.2,4.6V9.2z M131,5.9c9.2,0.1,12,2.8,12.4,3.4v12.5c-1.5-1.2-5-3-12.4-3V5.9z"/>
<path class="st0" d="M150.2,5.6v1.1c1.7-0.4,3.9-0.7,6.7-0.7v12.7c-4.6,0.1-7.7,0.8-9.7,1.6c-0.3,0.4-0.6,0.9-0.8,1.5
	c1.8-1,5.2-2,11.1-2h0.5V4.9h-0.5C154.5,4.9,152.1,5.2,150.2,5.6z"/>
<path class="st0" d="M240.2,8.1c-0.5-1.5-1.8-4.5-4.2-6.5l-0.9-0.7v15.2l0.2,0.2c2.8,2.3,4.1,6.9,4.1,6.9l0.3,1.1l0.6-1
	c0,0,2.5-3.5,13.1-3.5h0.5v-15h-0.5C245.1,4.9,241.6,7,240.2,8.1z M239.5,20.1c-0.7-1.5-1.7-3.3-3.2-4.6V3.2
	c2.1,2.3,3.1,5.5,3.2,5.9V20.1z M253,18.8c-7.4,0-10.9,1.8-12.4,3V9.3c0.5-0.6,3.3-3.3,12.4-3.4V18.8z"/>
<path class="st0" d="M236.8,20.3c-2-0.8-5.1-1.5-9.7-1.6V6c2.8,0,5,0.3,6.7,0.7V5.6c-1.9-0.4-4.3-0.7-7.3-0.7H226v14.9h0.5
	c5.9,0,9.3,1,11.1,2C237.4,21.2,237.1,20.7,236.8,20.3z"/>
<path class="st0" d="M175.6,23.3l0.6,0.9l2.8-7.8v-17l-3.1,8.7c-1.3-1.1-4.9-3.2-13.3-3.2h-0.5v15h0.5
	C173,19.7,175.5,23.2,175.6,23.3z M176.5,9.2l1.3-3.7v10.7l-1.3,3.8V9.2z M163,5.9c9.2,0.1,12,2.8,12.4,3.4v12.5
	c-1.5-1.2-5-3-12.4-3V5.9z"/>
<path class="st0" d="M124.7,4.9c-1.3,0-2.5,0.1-3.6,0.2v1.1c0.8-0.1,1.6-0.2,2.5-0.2c0.1,0,0.4,0,0.7-0.1c0.2,0,0.5,0,0.7,0v10.9
	v1.9c-7.4,0.4-9.7,2.7-9.7,2.7c2-0.9,5.2-1.7,10.3-1.7h0.5v-2.9V4.9h-0.5C125.3,4.9,125,4.9,124.7,4.9z"/>
<path class="st0" d="M272.2,8.1c-0.7-1.5-2.7-5-6.8-6.8L264.7,1v15l0.3,0.1c4.8,1.9,6.5,7,6.5,7.1l0.3,1l0.6-0.9
	c0,0,2.5-3.5,13.1-3.5h0.5v-15h-0.5C277,4.9,273.5,7,272.2,8.1z M271.5,20.6c-1-1.7-2.8-4.1-5.7-5.3V2.7c3.9,2.1,5.5,6,5.7,6.5V20.6
	z M285,18.8c-7.5,0-11,1.8-12.4,3V9.3c0.5-0.6,3.3-3.3,12.4-3.4V18.8z"/>
<path class="st0" d="M259,18.7v-1.9V5.9c0.2,0,0.5,0,0.7,0C260,6,260.3,6,260.4,6c0.9,0,1.7,0.1,2.5,0.2V5.1
	c-1.1-0.1-2.3-0.2-3.6-0.2c-0.3,0-0.6,0-0.9,0h-0.5v11.9v2.9h0.5c5.1,0,8.3,0.8,10.3,1.7C268.7,21.4,266.4,19.1,259,18.7z"/>
<path class="st0" d="M180.6,6v1.1c1.9-0.6,4.6-1.1,8.3-1.1v12.7c-4.6,0.1-7.7,0.8-9.7,1.6l-0.6,1.5c2-0.9,5.7-2,10.8-2h0.5V4.9h-0.5
	C185.6,4.9,182.7,5.4,180.6,6z"/>
<path class="st0" d="M208.2,8.1l-3.1-8.7v16.8l2.8,7.9l0.6-0.9c0,0,2.5-3.5,13.1-3.5h0.5v-15h-0.5C213.1,4.9,209.5,7,208.2,8.1z
	 M207.5,19.9l-1.3-3.8V5.5l1.3,3.7V19.9z M221,18.8c-7.4,0-11,1.8-12.4,3V9.3c0.5-0.6,3.3-3.3,12.4-3.4V18.8z"/>
<path class="st0" d="M204.8,20.3c-2-0.8-5.1-1.5-9.7-1.6V6c3.7,0,6.4,0.5,8.3,1.1V6c-2.1-0.6-4.9-1.1-8.8-1.1h-0.5v14.9h0.5
	c5.1,0,8.9,1.2,10.8,2L204.8,20.3z"/>
</svg>
