<?xml version="1.0" encoding="utf-8"?>
<!-- Generator: Adobe Illustrator 20.0.0, SVG Export Plug-In . SVG Version: 6.00 Build 0)  -->
<svg version="1.1" id="Layer_1" xmlns="http://www.w3.org/2000/svg" xmlns:xlink="http://www.w3.org/1999/xlink" x="0px" y="0px"
	 viewBox="0 0 160 32" style="enable-background:new 0 0 160 32;" xml:space="preserve">
<style type="text/css">
	.st0{fill:none;stroke:#1E1E1E;stroke-width:1.0563;stroke-miterlimit:10;}
	.st1{fill:none;}
	.st2{fill:#1E1E1E;}
</style>
<polyline class="st0" points="28.6,23 18.8,25.1 18.8,26.6 16,26.6 13.2,26.6 13.2,25.1 3.4,23 "/>
<path class="st0" d="M16,23c0,0,2.4-3.8,13.5-3.8V5.4C18.4,5.4,16,9.1,16,9.1S13.6,5.4,2.5,5.4v13.9C13.6,19.2,16,23,16,23z"/>
<line class="st0" x1="16" y1="23" x2="16" y2="9.1"/>
<rect x="0" class="st1" width="32" height="32"/>
<polyline class="st0" points="60.6,23 50.8,25.1 50.8,26.6 48,26.6 45.2,26.6 45.2,25.1 35.4,23 "/>
<path class="st0" d="M48,22.1v-13c0,0,3-4.6,11.6-6.2c0,0,0,13.8,0,13.8C52.4,17.9,48,23,48,23s-2.4-3.8-13.5-3.7V5.4
	C45.6,5.4,48,9.1,48,9.1"/>
<rect x="32" class="st1" width="32" height="32"/>
<polyline class="st0" points="92.6,23 82.8,25.1 82.8,26.6 80,26.6 77.2,26.6 77.2,25.1 67.4,23 "/>
<path class="st0" d="M80,23c0,0,2.1-5.1,9.4-7V2.2c-7.2,2-9.4,7-9.4,7s-2.4-3.7-13.5-3.7v13.9C77.6,19.2,80,23,80,23z"/>
<line class="st0" x1="80" y1="23" x2="80" y2="9.1"/>
<rect x="64" class="st1" width="32" height="32"/>
<path class="st0" d="M63.7,8.4"/>
<path class="st2" d="M61,4.9l0,13.8c-0.4,0-3.6,0.4-6.7,1.7c2.1-0.5,4.5-0.7,7.2-0.7H62V4.9H61z"/>
<path class="st0" d="M32,57.9V44.1c-11.1,0-13.5,3.7-13.5,3.7v13.9C18.5,61.7,20.9,57.9,32,57.9z"/>
<path class="st2" d="M93.5,4.9c-0.9,0-1.7,0-2,0.1V6c0.1,0,0.8-0.1,1.5-0.1v12.7c-7.4,0.4-9.7,2.7-9.7,2.7c2-0.9,5.2-1.7,10.3-1.7
	H94V4.9H93.5z"/>
<polyline class="st0" points="124.6,23 114.8,25.1 114.8,26.6 112,26.6 109.2,26.6 109.2,25.1 99.4,23 "/>
<line class="st0" x1="112" y1="23" x2="112" y2="9.1"/>
<rect x="96" class="st1" width="32" height="32"/>
<path class="st0" d="M112,23c0,0,1.7-5.4,6.8-7.4V1.8c-5.1,2.3-6.8,7.3-6.8,7.3s-2.4-3.7-13.5-3.7v13.9C109.6,19.2,112,23,112,23z"
	/>
<polyline class="st0" points="156.6,23 146.8,25.1 146.8,26.6 144,26.6 141.2,26.6 141.2,25.1 131.4,23 "/>
<line class="st0" x1="144" y1="23" x2="144" y2="9.1"/>
<rect x="128" class="st1" width="32" height="32"/>
<path class="st0" d="M144,23c0,0,1.3-4.8,4.3-7.2V2c-3.1,2.6-4.3,7.1-4.3,7.1s-2.4-3.7-13.5-3.7v13.9C141.6,19.2,144,23,144,23z"/>
<path class="st2" d="M157.5,4.9c-3,0-5.4,0.3-7.3,0.7v1.1c1.7-0.4,3.9-0.7,6.7-0.7v12.7c-4.6,0.1-7.7,0.8-9.7,1.6
	c-0.3,0.4-0.6,0.9-0.8,1.5c1.8-1,5.2-2,11.1-2h0.5V4.9H157.5z"/>
<path class="st2" d="M125.6,4.9c-0.3,0-0.6,0-0.9,0c-1.3,0-2.5,0.1-3.6,0.2v1.1c0.8-0.1,1.6-0.2,2.5-0.2v0c0.1,0,0.4,0,0.7-0.1
	c0.2,0,0.5,0,0.7,0v10.9v1.9c-7.4,0.4-9.7,2.7-9.7,2.7c2-0.9,5.2-1.7,10.3-1.7h0.5v-2.9V4.9H125.6z"/>
</svg>
