<?xml version="1.0" encoding="utf-8"?>
<!-- Generator: Adobe Illustrator 20.0.0, SVG Export Plug-In . SVG Version: 6.00 Build 0)  -->
<svg version="1.1" id="Layer_1" xmlns="http://www.w3.org/2000/svg" xmlns:xlink="http://www.w3.org/1999/xlink" x="0px" y="0px"
	 viewBox="0 0 320 32" style="enable-background:new 0 0 320 32;" xml:space="preserve">
<style type="text/css">
	.st0{fill:#1E1E1E;}
</style>
<path class="st0" d="M115.6,28.4h-7.2v-1.6l-9.2-2v-1.6l10.7,2.3v1.4h4v-1.4l10.7-2.3v1.6l-9.2,2V28.4z M108.9,27.9h6.2v-1.6l9.2-2
	v-0.6l-9.7,2.1v1.4h-5v-1.4l-9.7-2.1v0.6l9.2,2V27.9z"/>
<path class="st0" d="M147.6,28.4h-7.2v-1.6l-9.2-2v-1.6l10.7,2.3v1.4h4v-1.4l10.7-2.3v1.6l-9.2,2V28.4z M140.9,27.9h6.2v-1.6l9.2-2
	v-0.6l-9.7,2.1v1.4h-5v-1.4l-9.7-2.1v0.6l9.2,2V27.9z"/>
<path class="st0" d="M179.6,28.4h-7.2v-1.6l-9.2-2v-1.6l10.7,2.3v1.4h4v-1.4l10.7-2.3v1.6l-9.2,2V28.4z M172.9,27.9h6.2v-1.6l9.2-2
	v-0.6l-9.7,2.1v1.4h-5v-1.4l-9.7-2.1v0.6l9.2,2V27.9z"/>
<path class="st0" d="M211.6,28.4h-7.2v-1.6l-9.2-2v-1.6l10.7,2.3v1.4h4v-1.4l10.7-2.3v1.6l-9.2,2V28.4z M204.9,27.9h6.2v-1.6l9.2-2
	v-0.6l-9.7,2.1v1.4h-5v-1.4l-9.7-2.1v0.6l9.2,2V27.9z"/>
<path class="st0" d="M243.6,28.4h-7.2v-1.6l-9.2-2v-1.6l10.7,2.3v1.4h4v-1.4l10.7-2.3v1.6l-9.2,2V28.4z M236.9,27.9h6.2v-1.6l9.2-2
	v-0.6l-9.7,2.1v1.4h-5v-1.4l-9.7-2.1v0.6l9.2,2V27.9z"/>
<path class="st0" d="M275.6,28.4h-7.2v-1.6l-9.2-2v-1.6l10.7,2.3v1.4h4v-1.4l10.7-2.3v1.6l-9.2,2V28.4z M268.9,27.9h6.2v-1.6l9.2-2
	v-0.6l-9.7,2.1v1.4h-5v-1.4l-9.7-2.1v0.6l9.2,2V27.9z"/>
<path class="st0" d="M82,25.5v1.4h-0.6h-2.8H78v-1.4l-10.7-2.3v1.6l9.2,2v1.6h2.3h2.6h2.3v-1.6l9.2-2v-1.6L82,25.5z M76.9,27.9v-1.6
	l-9.2-2v-0.6l9.7,2.1v1.4h1c0,0.1,0,0.1,0,0.2c0,0.1,0,0.3,0.1,0.4H76.9z M92.2,24.4l-9.2,2v1.6h-1.6c0-0.1,0.1-0.2,0.1-0.4
	c0-0.1,0-0.1,0-0.2h1v-1.4l9.7-2.1V24.4z"/>
<path class="st0" d="M50,25.5v1.4h-1.5h-1.1H46v-1.4l-10.7-2.3v1.6l9.2,2v1.6h3h1.1h3.1v-1.6l9.2-2v-1.6L50,25.5z M35.8,24.4v-0.6
	l9.7,2.1v1.4H47c0,0.1,0,0.2,0,0.3s0,0.2,0,0.3h-2.1v-1.6L35.8,24.4z M60.2,24.4l-9.2,2v1.6h-2.2c0-0.1,0-0.2,0-0.3s0-0.2,0-0.3h1.7
	v-1.4l9.7-2.1V24.4z"/>
<path class="st0" d="M18,25.5v1.4h-4v-1.4L3.3,23.2v1.6l9.2,2v1.6h7.2v-1.6l9.2-2v-1.6L18,25.5z M3.8,24.4v-0.6l9.7,2.1v1.4h2.1
	c0,0.1-0.1,0.1-0.1,0.2c0,0.1,0.1,0.2,0.1,0.3h-2.7v-1.6L3.8,24.4z M28.2,24.4l-9.2,2v1.6h-2.7c0.1-0.1,0.1-0.2,0.1-0.3
	c0-0.1,0-0.2-0.1-0.2h2.1v-1.4l9.7-2.1V24.4z"/>
<path class="st0" d="M114.7,27.9c0-0.6-0.2-1.2-0.6-1.6v0.6h-4v-0.7c-0.4,0.5-0.7,1.1-0.7,1.8c0,0.2,0,0.3,0.1,0.5h5.2
	C114.6,28.2,114.7,28,114.7,27.9z"/>
<path class="st0" d="M147.6,28.4v-1.6l0.9-0.2c-0.1-0.5-0.3-1-0.5-1.5l-2,0.4v1.4h-4v-1.4L140,25c-0.3,0.5-0.4,0.9-0.5,1.5l1.1,0.2
	v1.6H147.6z"/>
<path class="st0" d="M179.6,28.4v-1.6L183,26c-0.1-0.5-0.2-1-0.4-1.5l-4.6,1v1.4h-4v-1.4l-4.7-1c-0.2,0.5-0.3,1-0.4,1.5l3.5,0.8v1.6
	H179.6z"/>
<path class="st0" d="M211.6,28.4v-1.6l5.3-1.1c-0.1-0.5-0.2-1-0.3-1.5l-6.5,1.4v1.4h-4v-1.4l-6.6-1.4c-0.2,0.5-0.3,1-0.3,1.5
	l5.4,1.2v1.6H211.6z"/>
<path class="st0" d="M243.6,28.4v-1.6l6.4-1.4c-0.1-0.5-0.2-1-0.3-1.5l-7.6,1.6v1.4h-4v-1.4l-7.7-1.7c-0.1,0.5-0.3,1-0.3,1.5
	l6.5,1.4v1.6H243.6z"/>
<path class="st0" d="M275.6,28.4v-1.6l7.2-1.5c-0.1-0.5-0.2-1-0.3-1.5l-8.4,1.8v1.4h-4v-1.4l-8.6-1.8c-0.1,0.5-0.3,1-0.3,1.5
	l7.3,1.6v1.6H275.6z"/>
<polygon class="st0" points="306.1,26.8 302,26.8 302,25.5 291.3,23.2 291.3,24.8 300.5,26.7 300.5,28.4 307.6,28.4 307.6,26.7 
	316.8,24.8 316.8,23.2 306.1,25.5 "/>
</svg>
