<?xml version="1.0" encoding="utf-8"?>
<!-- Generator: Adobe Illustrator 20.0.0, SVG Export Plug-In . SVG Version: 6.00 Build 0)  -->
<svg version="1.1" id="Layer_1" xmlns="http://www.w3.org/2000/svg" xmlns:xlink="http://www.w3.org/1999/xlink" x="0px" y="0px"
	 viewBox="0 0 160 32" style="enable-background:new 0 0 160 32;" xml:space="preserve">
<style type="text/css">
	.st0{fill:#1E1E1E;}
	.st1{fill:none;stroke:#1E1E1E;stroke-width:1.0563;stroke-miterlimit:10;}
</style>
<polygon class="st0" points="19.3,27.1 12.7,27.1 12.7,25.5 3.3,23.5 3.5,22.5 13.7,24.7 13.7,26.1 18.3,26.1 18.3,24.7 28.5,22.5 
	28.7,23.5 19.3,25.5 "/>
<path class="st0" d="M16,24l-0.4-0.7c0,0-2.5-3.5-13.1-3.5l-0.5,0v-15h0.5c8.9,0,12.4,2.4,13.5,3.4c1.1-1.1,4.6-3.4,13.5-3.4H30
	v14.9h-0.5c-10.6,0-13,3.5-13.1,3.6L16,24z M3,18.8c8.5,0,11.9,2.4,13,3.4c1.1-1.1,4.5-3.4,13-3.5V5.9C18.8,6,16.5,9.4,16.4,9.4
	L16,10l-0.4-0.7c0,0-2.4-3.3-12.5-3.5V18.8z"/>
<rect x="15.5" y="9.1" class="st0" width="1.1" height="13.9"/>
<polygon class="st0" points="51.3,27.1 44.7,27.1 44.7,25.5 35.3,23.5 35.5,22.5 45.7,24.7 45.7,26.1 50.3,26.1 50.3,24.7 
	60.5,22.5 60.7,23.5 51.3,25.5 "/>
<path class="st0" d="M47.9,23.9l-0.4-0.6c0,0-2.5-3.5-13-3.5l-0.5,0v-15h0.5c8.8,0,12.3,2.3,13.5,3.4c1.1-1.3,4.4-4.6,11.5-5.9
	l0.6-0.1v14.9l-0.4,0.1c-6.9,1.2-11.2,6.1-11.3,6.1L47.9,23.9z M47.9,22.1C48,22.2,48,22.2,47.9,22.1c0.1,0.1,0.1,0,0.2,0H47.9z
	 M35,18.8c7.4,0,10.9,1.8,12.4,3V9.3C47,8.7,44.1,6,35,5.9V18.8z M48.5,9.3v12.4c1.6-1.5,5.3-4.4,10.5-5.4V3.6C52,5,49,8.6,48.5,9.3
	z"/>
<polygon class="st0" points="83.3,27.1 76.7,27.1 76.7,25.5 67.3,23.5 67.5,22.5 77.7,24.7 77.7,26.1 82.3,26.1 82.3,24.7 
	92.5,22.5 92.7,23.5 83.3,25.5 "/>
<path class="st0" d="M80.1,24.1l-0.5-0.8c-0.1-0.1-2.5-3.5-13.1-3.5l-0.5,0v-15h0.5c8.6,0,12.2,2.2,13.4,3.3
	c0.9-1.5,3.5-4.9,9.3-6.6l0.7-0.2v14.9l-0.4,0.1c-6.9,1.9-9,6.7-9,6.7L80.1,24.1z M67,18.8c8.2,0,11.6,2.2,12.9,3.3
	c0.9-1.5,3.4-4.9,9-6.5V2.9c-6.3,2-8.3,6.4-8.4,6.5l-0.4,0.9l-0.5-0.8c0,0-2.4-3.3-12.5-3.5V18.8z"/>
<rect x="79.5" y="9.1" class="st0" width="1.1" height="13.9"/>
<path class="st1" d="M63.7,8.4"/>
<path class="st0" d="M61,4.9l0,13.8c-0.4,0-3.6,0.4-6.7,1.7c2.1-0.5,4.5-0.7,7.2-0.7H62V4.9H61z"/>
<path class="st0" d="M93.5,4.9c-0.9,0-1.7,0-2,0.1V6c0.1,0,0.8-0.1,1.5-0.1v12.7c-7.4,0.4-9.7,2.7-9.7,2.7c2-0.9,5.2-1.7,10.3-1.7
	H94V4.9H93.5z"/>
<polygon class="st0" points="115.3,27.1 108.7,27.1 108.7,25.5 99.3,23.5 99.5,22.5 109.7,24.7 109.7,26.1 114.3,26.1 114.3,24.7 
	124.5,22.5 124.7,23.5 115.3,25.5 "/>
<rect x="111.5" y="9.1" class="st0" width="1.1" height="13.9"/>
<path class="st0" d="M112.2,24.2l-0.6-1c-0.1-0.1-2.6-3.5-13.1-3.5l-0.5,0v-15h0.5c8.5,0,12,2.2,13.3,3.3c0.7-1.5,2.7-5,6.8-6.9
	l0.7-0.3v15l-0.3,0.1c-4.8,1.9-6.5,7-6.5,7.1L112.2,24.2z M99,18.8c8.1,0,11.5,2.1,12.8,3.3c0.7-1.6,2.6-5.1,6.5-6.8V2.6
	c-4.2,2.3-5.8,6.6-5.8,6.6l-0.4,1l-0.6-0.9c0,0-2.4-3.3-12.5-3.5V18.8z"/>
<polygon class="st0" points="147.3,27.1 140.7,27.1 140.7,25.5 131.3,23.5 131.5,22.5 141.7,24.7 141.7,26.1 146.3,26.1 146.3,24.7 
	156.5,22.5 156.7,23.5 147.3,25.5 "/>
<rect x="143.5" y="9.1" class="st0" width="1.1" height="13.9"/>
<path class="st0" d="M144.2,24.3l-0.6-1c-0.1-0.1-2.5-3.5-13.1-3.5l-0.5,0v-15h0.5c8.4,0,11.9,2.1,13.3,3.2c0.5-1.5,1.8-4.6,4.2-6.5
	l0.9-0.7V16l-0.2,0.2c-2.8,2.3-4.1,6.9-4.1,7L144.2,24.3z M131,18.8c8,0,11.4,2.1,12.7,3.2c0.5-1.5,1.8-4.6,4-6.5V3.2
	c-2.3,2.5-3.3,6-3.3,6l-0.3,1.2l-0.7-1c0,0-2.4-3.3-12.5-3.5V18.8z"/>
<path class="st0" d="M157.5,4.9c-3,0-5.4,0.3-7.3,0.7v1.1c1.7-0.4,3.9-0.7,6.7-0.7v12.7c-4.6,0.1-7.7,0.8-9.7,1.6
	c-0.3,0.4-0.6,0.9-0.8,1.5c1.8-1,5.2-2,11.1-2h0.5V4.9H157.5z"/>
<path class="st0" d="M125.6,4.9c-0.3,0-0.6,0-0.9,0c-1.3,0-2.5,0.1-3.6,0.2v1.1c0.8-0.1,1.6-0.2,2.5-0.2v0c0.1,0,0.4,0,0.7-0.1
	c0.2,0,0.5,0,0.7,0v10.9v1.9c-7.4,0.4-9.7,2.7-9.7,2.7c2-0.9,5.2-1.7,10.3-1.7h0.5v-2.9V4.9H125.6z"/>
</svg>
