<?xml version="1.0" encoding="utf-8"?>
<!-- Generator: Adobe Illustrator 20.0.0, SVG Export Plug-In . SVG Version: 6.00 Build 0)  -->
<svg version="1.1" id="Layer_1" xmlns="http://www.w3.org/2000/svg" xmlns:xlink="http://www.w3.org/1999/xlink" x="0px" y="0px"
	 viewBox="0 0 108 18" style="enable-background:new 0 0 108 18;" xml:space="preserve">
<path d="M13.9,6.4L9,11.3L4.1,6.4H13.9 M16,5.5H2l7,7L16,5.5L16,5.5z"/>
<polygon points="22.5,5.5 23.6,6.5 31.6,6.5 27,11.1 21.3,5.5 20,5.5 27,12.5 34,5.5 "/>
<polygon points="106.6,2.4 104.6,2.4 99,7.9 93.5,2.5 93.4,2.4 91.4,2.4 98,9 91.4,15.6 93.4,15.6 99,10.1 104.6,15.6 106.6,15.6 
	100,9 "/>
<polygon points="88.5,3.2 83.4,3.2 82.6,4.6 85.1,4.6 81,8.7 75.4,3.2 73.5,3.2 80,9.6 75.1,14.6 76.7,14.9 81,10.6 85.3,14.9 
	87,14.6 82,9.6 "/>
<polygon points="70.3,4 62.3,4 62.6,5.3 67.3,5.3 63,9.6 57.4,4.1 57.4,4 55.7,4 62.1,10.5 59,13.6 58.9,13.7 60,14.3 63,11.3 
	66,14.3 66.1,14.3 67.3,13.8 63.9,10.4 "/>
<polygon points="52.1,4.7 42.2,4.7 42.9,5.8 49.5,5.8 45,10.3 39.4,4.7 39.3,4.7 37.9,4.7 44.2,11.1 43,12.3 42.9,12.4 43.7,13.2 
	45,11.8 46.4,13.1 47.1,12.4 47.1,12.3 45.8,11 52,4.8 "/>
</svg>
