<svg width="31" height="30" viewBox="0 0 31 30" fill="none" xmlns="http://www.w3.org/2000/svg">
<rect width="31" height="30" fill="white"/>
<path d="M23.1244 18H7.66642L2 25H29L23.1244 18Z" fill="#D7D7D7"/>
<path d="M15.5 22L11 17H20L15.5 22Z" fill="white"/>
<path d="M10.0085 8.34049C9.98797 8.55241 10.0085 8.74314 10.0291 8.93386C10.0291 9.06101 10.0496 9.20936 10.0907 9.40009C10.4605 11.9431 10.6646 12.5506 12 14.7333L15.4529 19L19 14.7333C20.3354 12.5718 20.5275 12.0067 20.9178 9.46366C20.9384 9.27293 20.9589 9.1034 20.9795 8.99744C21 8.80671 21 8.59479 21 8.40407C20.8562 5.41601 18.4524 3.02133 15.5145 3.00014C12.5766 2.97895 10.1729 5.35244 10.0085 8.34049Z" fill="#D7D7D7"/>
<path d="M15.5 10C16.3284 10 17 9.32843 17 8.5C17 7.67157 16.3284 7 15.5 7C14.6716 7 14 7.67157 14 8.5C14 9.32843 14.6716 10 15.5 10Z" fill="white"/>
</svg>
