<?xml version="1.0" encoding="utf-8"?>
<!-- Generator: Adobe Illustrator 20.0.0, SVG Export Plug-In . SVG Version: 6.00 Build 0)  -->
<svg version="1.1" id="Layer_1" xmlns="http://www.w3.org/2000/svg" xmlns:xlink="http://www.w3.org/1999/xlink" x="0px" y="0px"
	 viewBox="0 0 256 32" style="enable-background:new 0 0 256 32;" xml:space="preserve">
<style type="text/css">
	.st0{fill:#DD0000;}
	.st1{display:none;}
	.st2{display:inline;fill:#DD0000;}
	.st3{opacity:0.38;}
	.st4{fill:#484848;}
	.st5{fill:#231F20;}
	.st6{enable-background:new    ;}
	.st7{clip-path:url(#SVGID_2_);}
	.st8{fill:#00B2DB;}
	.st9{clip-path:url(#SVGID_4_);}
	.st10{clip-path:url(#SVGID_6_);}
	.st11{clip-path:url(#SVGID_8_);}
</style>
<g>
	<path class="st0" d="M16,12.5c-1.1,0-2-0.9-2-2s0.9-2,2-2s2,0.9,2,2S17.1,12.5,16,12.5z M16,9.5c-0.5,0-1,0.5-1,1s0.5,1,1,1
		s1-0.5,1-1S16.5,9.5,16,9.5z"/>
</g>
<g>
	<path class="st0" d="M16,20.8l-0.4-0.5C15.4,20,10,13.6,10,10.5c0-3.3,2.7-6,6-6s6,2.7,6,6c0,3.1-5.4,9.6-5.6,9.8L16,20.8z M16,5.5
		c-2.8,0-5,2.2-5,5c0,2.1,3.3,6.6,5,8.7c1.7-2.1,5-6.6,5-8.7C21,7.7,18.8,5.5,16,5.5z"/>
</g>
<g>
	<polygon class="st0" points="23.6,19 19.8,19 19,20 23.2,20 27.4,25 4.6,25 8.6,20 13.2,20 12.4,19 8.2,19 2.5,26 29.5,26 	"/>
</g>
<g>
	<polygon class="st0" points="55.6,19 51.8,19 51,20 55.2,20 59.4,25 36.6,25 40.6,20 45.2,20 44.4,19 40.2,19 34.5,26 61.5,26 	"/>
</g>
<g>
	<polygon class="st0" points="87.6,19 83.8,19 83,20 87.2,20 91.4,25 68.6,25 72.6,20 77.2,20 76.4,19 72.2,19 66.5,26 93.5,26 	"/>
</g>
<g>
	<polygon class="st0" points="119.6,19 115.8,19 115,20 119.2,20 123.4,25 100.6,25 104.6,20 109.2,20 108.4,19 104.2,19 98.5,26 
		125.5,26 	"/>
</g>
<g>
	<polygon class="st0" points="151.6,19 147.8,19 147,20 151.2,20 155.4,25 132.6,25 136.6,20 141.2,20 140.4,19 136.2,19 130.5,26 
		157.5,26 	"/>
</g>
<g>
	<polygon class="st0" points="183.6,19 179.8,19 179,20 183.2,20 187.4,25 164.6,25 168.6,20 173.2,20 172.4,19 168.2,19 162.5,26 
		189.5,26 	"/>
</g>
<g class="st1">
	<polygon class="st2" points="215.6,19 211.8,19 211,20 215.2,20 219.4,25 196.6,25 200.6,20 205.2,20 204.4,19 200.2,19 194.5,26 
		221.5,26 	"/>
</g>
<g class="st3">
	<polygon class="st0" points="247.6,19 243.8,19 243,20 247.2,20 251.4,25 228.6,25 232.6,20 237.2,20 236.4,19 232.2,19 226.5,26 
		253.5,26 	"/>
</g>
<g>
	<path class="st4" d="M48,12.5c-1.1,0-2-0.9-2-2s0.9-2,2-2s2,0.9,2,2S49.1,12.5,48,12.5z M48,9.5c-0.5,0-1,0.5-1,1s0.5,1,1,1
		s1-0.5,1-1S48.5,9.5,48,9.5z"/>
</g>
<path class="st4" d="M48,4.5c-3.3,0-6,2.7-6,6c0,3.1,5.4,9.6,5.6,9.8l0.4,0.5l0.4-0.5c0.2-0.3,5.6-6.7,5.6-9.8
	C54,7.2,51.3,4.5,48,4.5z M48,5.5c2.8,0,5,2.2,5,5c0,1.6-2,4.7-3.6,7h-2.7c-1.7-2.3-3.7-5.4-3.7-7C43,7.7,45.2,5.5,48,5.5z"/>
<g>
	<path class="st4" d="M80,12.5c-1.1,0-2-0.9-2-2s0.9-2,2-2s2,0.9,2,2S81.1,12.5,80,12.5z M80,9.5c-0.5,0-1,0.5-1,1s0.5,1,1,1
		s1-0.5,1-1S80.5,9.5,80,9.5z"/>
</g>
<path class="st4" d="M80,4.5c-3.3,0-6,2.7-6,6c0,3.1,5.4,9.6,5.6,9.8l0.4,0.5l0.4-0.5c0.2-0.3,5.6-6.7,5.6-9.8
	C86,7.2,83.3,4.5,80,4.5z M80,5.5c2.8,0,5,2.2,5,5c0,1.1-0.9,2.9-2,4.6h-6c-1.1-1.7-2-3.5-2-4.6C75,7.7,77.2,5.5,80,5.5z"/>
<g>
	<path class="st4" d="M112,12.5c-1.1,0-2-0.9-2-2s0.9-2,2-2s2,0.9,2,2S113.1,12.5,112,12.5z M112,9.5c-0.5,0-1,0.5-1,1s0.5,1,1,1
		s1-0.5,1-1S112.5,9.5,112,9.5z"/>
</g>
<path class="st4" d="M112,4.5c-3.3,0-6,2.7-6,6c0,3.1,5.4,9.6,5.6,9.8l0.4,0.5l0.4-0.5c0.2-0.3,5.6-6.7,5.6-9.8
	C118,7.2,115.3,4.5,112,4.5z M112,5.5c2.8,0,5,2.2,5,5c0,0.7-0.3,1.5-0.8,2.5h-8.4c-0.5-1-0.8-1.8-0.8-2.5
	C107,7.7,109.2,5.5,112,5.5z"/>
<path class="st4" d="M176,5c-3.3,0-6,2.7-6,6c0,3.1,5.4,9.6,5.6,9.8l0.4,0.5l0.4-0.5c0.2-0.3,5.6-6.7,5.6-9.8C182,7.7,179.3,5,176,5
	z M176,6c1.9,0,3.5,1.1,4.4,2.7h-8.8C172.5,7.1,174.1,6,176,6z M176,12.1c-0.6,0-1.2-0.6-1.2-1.2s0.6-1.2,1.2-1.2s1.2,0.6,1.2,1.2
	S176.6,12.1,176,12.1z"/>
<path class="st4" d="M208,5c-3.3,0-6,2.7-6,6c0,3.1,5.4,9.6,5.6,9.8l0.4,0.5l0.4-0.5c0.2-0.3,5.6-6.7,5.6-9.8C214,7.7,211.3,5,208,5
	z M211.3,7.3h-6.7c0.9-0.8,2.1-1.3,3.3-1.3S210.5,6.5,211.3,7.3z M208,12.7c-0.9,0-1.7-0.8-1.7-1.7s0.8-1.7,1.7-1.7s1.7,0.8,1.7,1.7
	S208.9,12.7,208,12.7z"/>
<path class="st4" d="M240,5c-3.3,0-6,2.7-6,6c0,3.1,5.4,9.6,5.6,9.8l0.4,0.5l0.4-0.5c0.2-0.3,5.6-6.7,5.6-9.8C246,7.7,243.3,5,240,5
	z M240,13c-1,0-2-1-2-2s1-2,2-2s2,1,2,2S241,13,240,13z"/>
<path class="st5" d="M144,4.5c-3.3,0-6,2.7-6,6c0,3.1,5.4,9.6,5.6,9.8l0.4,0.5l0.4-0.5c0.2-0.3,5.6-6.7,5.6-9.8
	C150,7.2,147.3,4.5,144,4.5z M144,11.4c-0.5,0-1-0.5-1-1s0.5-1,1-1s1,0.5,1,1S144.5,11.4,144,11.4z M144,8.4c-1.1,0-2,0.9-2,2h-3
	c0.1-2.7,2.3-4.9,5-4.9s4.9,2.2,5,4.9h-3C146,9.3,145.1,8.4,144,8.4z"/>
<g>
	<g class="st6">
		<defs>
			<polygon id="SVGID_1_" class="st6" points="229.3,22.3 239.9,19 250.6,22.7 240,26 			"/>
		</defs>
		<clipPath id="SVGID_2_">
			<use xlink:href="#SVGID_1_"  style="overflow:visible;"/>
		</clipPath>
		<g class="st7">
			<path class="st8" d="M232.7,22.4l7.2-2.3l7.3,2.5l-7.2,2.3L232.7,22.4 M250.6,22.7L239.9,19l-10.5,3.3L240,26L250.6,22.7"/>
		</g>
	</g>
</g>
<g class="st6">
	<defs>
		<polygon id="SVGID_3_" class="st6" points="196.9,22.9 206,19 218.1,22.1 210.2,26 		"/>
	</defs>
	<clipPath id="SVGID_4_">
		<use xlink:href="#SVGID_3_"  style="overflow:visible;"/>
	</clipPath>
	<g class="st9">
		<path class="st8" d="M200.3,22.8l6.2-2.7l8.3,2.1l-5.1,2.7L200.3,22.8 M218.1,22.1L206,19l-9.1,3.9l13.2,3.1L218.1,22.1"/>
	</g>
</g>
<g>
	<g class="st6">
		<defs>
			<polygon id="SVGID_5_" class="st6" points="164.4,23.5 172.1,19 185.8,21.5 178,26 			"/>
		</defs>
		<clipPath id="SVGID_6_">
			<use xlink:href="#SVGID_5_"  style="overflow:visible;"/>
		</clipPath>
		<g class="st10">
			<path class="st8" d="M167,23.1l5.3-3.1l10.6,1.9l-5.3,3.1l-9.9-1.8 M185.8,21.5L172.1,19l-7.7,4.5L178,26L185.8,21.5"/>
		</g>
	</g>
</g>
<g>
	<g>
		<g class="st6">
			<defs>
				<polygon id="SVGID_7_" class="st6" points="103.6,45.6 115.1,41.5 130.4,44.7 118.9,48.8 				"/>
			</defs>
			<clipPath id="SVGID_8_">
				<use xlink:href="#SVGID_7_"  style="overflow:visible;"/>
			</clipPath>
			<g class="st11">
				<g>
					<g>
						<g>
							<path class="st8" d="M106.4,45.5l9.1-3.2l12.1,2.5l-9.1,3.2L106.4,45.5 M130.4,44.7l-15.3-3.2l-11.5,4.1l15.3,3.2L130.4,44.7
								"/>
						</g>
					</g>
				</g>
			</g>
		</g>
	</g>
</g>
<g>
	<path class="st8" d="M139,20l12,1.2l-2.5,3.7l-14.3-1.1L139,20 M138.7,19l-7,5.6L149,26l3.8-5.6L138.7,19L138.7,19z"/>
</g>
<g>
	<path class="st8" d="M105.8,20l13.4,0.4L120,25l-18.5-0.7L105.8,20 M105.4,19l-6.2,6.2l22,0.8l-1.2-6.5L105.4,19L105.4,19z"/>
</g>
</svg>
