<?xml version="1.0" encoding="utf-8"?>
<!-- Generator: Adobe Illustrator 22.0.1, SVG Export Plug-In . SVG Version: 6.00 Build 0)  -->
<svg version="1.1" id="Layer_1" xmlns="http://www.w3.org/2000/svg" xmlns:xlink="http://www.w3.org/1999/xlink" x="0px" y="0px"
	 viewBox="0 0 288 32" style="enable-background:new 0 0 288 32;" xml:space="preserve">
<style type="text/css">
	.st0{fill:#484848;}
	.st1{fill:#231F20;}
</style>
<g>
	<path class="st0" d="M16,12.5c-1.1,0-2-0.9-2-2s0.9-2,2-2s2,0.9,2,2S17.1,12.5,16,12.5z M16,9.5c-0.5,0-1,0.5-1,1s0.5,1,1,1
		s1-0.5,1-1S16.5,9.5,16,9.5z"/>
</g>
<g>
	<path class="st0" d="M16,20.8l-0.4-0.5c-0.2-0.3-5.6-6.7-5.6-9.8c0-3.3,2.7-6,6-6s6,2.7,6,6c0,3.1-5.4,9.6-5.6,9.8L16,20.8z
		 M16,5.5c-2.8,0-5,2.2-5,5c0,2.1,3.3,6.6,5,8.7c1.7-2.1,5-6.6,5-8.7C21,7.7,18.8,5.5,16,5.5z"/>
</g>
<g>
	<polygon class="st0" points="23.6,19 19.8,19 19,20 23.2,20 27.4,25 4.6,25 8.6,20 13.2,20 12.4,19 8.2,19 2.5,26 29.5,26 	"/>
</g>
<g>
	<path class="st0" d="M48,12.8c-1.1,0-2-0.9-2-2s0.9-2,2-2s2,0.9,2,2S49.1,12.8,48,12.8z M48,9.8c-0.5,0-1,0.5-1,1s0.5,1,1,1
		s1-0.5,1-1S48.5,9.8,48,9.8z"/>
</g>
<g>
	<path class="st0" d="M48,21l-0.4-0.5c-0.2-0.3-5.6-6.7-5.6-9.8c0-3.3,2.7-6,6-6s6,2.7,6,6c0,3.1-5.4,9.6-5.6,9.8L48,21z M48,5.8
		c-2.8,0-5,2.2-5,5c0,2.1,3.3,6.6,5,8.7c1.7-2.1,5-6.6,5-8.7C53,8,50.8,5.8,48,5.8z"/>
</g>
<g>
	<polygon class="st0" points="55.6,18.8 52,18.8 51.2,19.8 55.2,19.8 59.4,24.8 36.6,24.8 40.6,19.8 45,19.8 44.2,18.8 40.2,18.8 
		34.5,25.8 61.5,25.8 	"/>
</g>
<g>
	<path class="st0" d="M80,13c-1.1,0-2-0.9-2-2s0.9-2,2-2s2,0.9,2,2S81.1,13,80,13z M80,10c-0.5,0-1,0.5-1,1s0.5,1,1,1s1-0.5,1-1
		S80.5,10,80,10z"/>
</g>
<g>
	<polygon class="st0" points="87.6,18.2 84.8,18.2 84,19.2 87.2,19.2 91.4,24.2 68.6,24.2 72.6,19.2 76.2,19.2 75.4,18.2 72.2,18.2 
		66.5,25.2 93.5,25.2 	"/>
</g>
<path class="st0" d="M80,5c-3.3,0-6,2.7-6,6c0,3.1,5.4,9.6,5.6,9.8l0.4,0.5l0.4-0.5c0.2-0.3,5.6-6.7,5.6-9.8C86,7.7,83.3,5,80,5z
	 M80,6c2.8,0,5,2.2,5,5c0,1.6-2,4.7-3.6,7h-2.7C77,15.7,75,12.6,75,11C75,8.2,77.2,6,80,6z"/>
<g>
	<path class="st0" d="M112,13c-1.1,0-2-0.9-2-2s0.9-2,2-2s2,0.9,2,2S113.1,13,112,13z M112,10c-0.5,0-1,0.5-1,1s0.5,1,1,1s1-0.5,1-1
		S112.5,10,112,10z"/>
</g>
<g>
	<polygon class="st0" points="119.6,18.2 116.8,18.2 116,19.2 119.2,19.2 123.4,24.2 100.6,24.2 104.6,19.2 107.7,19.2 106.9,18.2 
		104.2,18.2 98.5,25.2 125.5,25.2 	"/>
</g>
<g>
	<polygon class="st0" points="151.6,18.2 148.8,18.2 148,19.2 151.2,19.2 155.4,24.2 132.6,24.2 136.6,19.2 139.7,19.2 138.9,18.2 
		136.2,18.2 130.5,25.2 157.5,25.2 	"/>
</g>
<g>
	<polygon class="st0" points="183.6,18.2 180.8,18.2 180,19.2 183.2,19.2 187.4,24.2 164.6,24.2 168.6,19.2 171.7,19.2 170.9,18.2 
		168.2,18.2 162.5,25.2 189.5,25.2 	"/>
</g>
<g>
	<polygon class="st0" points="215.6,18.2 212.8,18.2 212,19.2 215.2,19.2 219.4,24.2 196.6,24.2 200.6,19.2 203.7,19.2 202.9,18.2 
		200.2,18.2 194.5,25.2 221.5,25.2 	"/>
</g>
<g>
	<polygon class="st0" points="247.6,18.2 244.8,18.2 244,19.2 247.2,19.2 251.4,24.2 228.6,24.2 232.6,19.2 235.7,19.2 234.9,18.2 
		232.2,18.2 226.5,25.2 253.5,25.2 	"/>
</g>
<g>
	<polygon class="st0" points="279.6,18.2 276.8,18.2 276,19.2 279.2,19.2 283.4,24.2 260.6,24.2 264.6,19.2 267.7,19.2 266.9,18.2 
		264.2,18.2 258.5,25.2 285.5,25.2 	"/>
</g>
<path class="st0" d="M112,5c-3.3,0-6,2.7-6,6c0,3.1,5.4,9.6,5.6,9.8l0.4,0.5l0.4-0.5c0.2-0.3,5.6-6.7,5.6-9.8C118,7.7,115.3,5,112,5
	z M112,6c2.8,0,5,2.2,5,5c0,1.1-0.9,2.9-2,4.6H109c-1.1-1.7-2-3.5-2-4.6C107,8.2,109.2,6,112,6z"/>
<g>
	<path class="st0" d="M144,13c-1.1,0-2-0.9-2-2s0.9-2,2-2s2,0.9,2,2S145.1,13,144,13z M144,10c-0.5,0-1,0.5-1,1s0.5,1,1,1s1-0.5,1-1
		S144.5,10,144,10z"/>
</g>
<path class="st0" d="M144,5c-3.3,0-6,2.7-6,6c0,3.1,5.4,9.6,5.6,9.8l0.4,0.5l0.4-0.5c0.2-0.3,5.6-6.7,5.6-9.8C150,7.7,147.3,5,144,5
	z M144,6c2.8,0,5,2.2,5,5c0,0.7-0.3,1.5-0.8,2.5h-8.4c-0.5-1-0.8-1.8-0.8-2.5C139,8.2,141.2,6,144,6z"/>
<path class="st0" d="M208,5c-3.3,0-6,2.7-6,6c0,3.1,5.4,9.6,5.6,9.8l0.4,0.5l0.4-0.5c0.2-0.3,5.6-6.7,5.6-9.8C214,7.7,211.3,5,208,5
	z M208,6c1.9,0,3.5,1.1,4.4,2.7h-8.8C204.5,7.1,206.1,6,208,6z M208,12.1c-0.6,0-1.2-0.6-1.2-1.2s0.6-1.2,1.2-1.2s1.2,0.6,1.2,1.2
	S208.6,12.1,208,12.1z"/>
<path class="st0" d="M240,5c-3.3,0-6,2.7-6,6c0,3.1,5.4,9.6,5.6,9.8l0.4,0.5l0.4-0.5c0.2-0.3,5.6-6.7,5.6-9.8C246,7.7,243.3,5,240,5
	z M243.3,7.3h-6.7c0.9-0.8,2.1-1.3,3.3-1.3S242.5,6.5,243.3,7.3z M240,12.7c-0.9,0-1.7-0.8-1.7-1.7s0.8-1.7,1.7-1.7s1.7,0.8,1.7,1.7
	S240.9,12.7,240,12.7z"/>
<path class="st0" d="M272,5c-3.3,0-6,2.7-6,6c0,3.1,5.4,9.6,5.6,9.8l0.4,0.5l0.4-0.5c0.2-0.3,5.6-6.7,5.6-9.8C278,7.7,275.3,5,272,5
	z M272,13c-1,0-2-1-2-2s1-2,2-2s2,1,2,2S273,13,272,13z"/>
<path class="st1" d="M176,5c-3.3,0-6,2.7-6,6c0,3.1,5.4,9.6,5.6,9.8l0.4,0.5l0.4-0.5c0.2-0.3,5.6-6.7,5.6-9.8C182,7.7,179.3,5,176,5
	z M176,11.9c-0.5,0-1-0.5-1-1s0.5-1,1-1s1,0.5,1,1S176.5,11.9,176,11.9z M176,8.9c-1.1,0-2,0.9-2,2h-3c0.1-2.7,2.3-4.9,5-4.9
	s4.9,2.2,5,4.9h-3C178,9.8,177.1,8.9,176,8.9z"/>
</svg>
