<?xml version="1.0" encoding="utf-8"?>
<!-- Generator: Adobe Illustrator 20.0.0, SVG Export Plug-In . SVG Version: 6.00 Build 0)  -->
<svg version="1.1" id="Layer_1" xmlns="http://www.w3.org/2000/svg" xmlns:xlink="http://www.w3.org/1999/xlink" x="0px" y="0px"
	 viewBox="0 0 32 32" style="enable-background:new 0 0 32 32;" xml:space="preserve">
<style type="text/css">
	.st0{fill:#5D5D5D;}
	.st1{fill:none;stroke:#1E1E1E;stroke-width:1.0563;stroke-miterlimit:10;}
	.st2{fill:none;}
	.st3{fill:#1E1E1E;}
</style>
<g>
	<path class="st0" d="M16-25.3c-1.1,0-2-0.9-2-2s0.9-2,2-2s2,0.9,2,2S17.1-25.3,16-25.3z M16-28.3c-0.5,0-1,0.5-1,1s0.5,1,1,1
		s1-0.5,1-1S16.5-28.3,16-28.3z"/>
</g>
<g>
	<path class="st0" d="M16-17l-0.4-0.5c-0.2-0.3-5.6-6.7-5.6-9.8c0-3.3,2.7-6,6-6s6,2.7,6,6c0,3.1-5.4,9.6-5.6,9.8L16-17z M16-32.3
		c-2.8,0-5,2.2-5,5c0,2.1,3.3,6.6,5,8.7c1.7-2.1,5-6.6,5-8.7C21-30.1,18.8-32.3,16-32.3z"/>
</g>
<g>
	<polygon class="st0" points="23.6,-18.8 20.3,-18.8 19.5,-17.8 23.2,-17.8 27.4,-12.8 4.6,-12.8 8.6,-17.8 12.7,-17.8 11.9,-18.8 
		8.2,-18.8 2.5,-11.8 29.5,-11.8 	"/>
</g>
<g>
	<polygon class="st0" points="55.6,-18.8 52.3,-18.8 51.5,-17.8 55.2,-17.8 59.4,-12.8 36.6,-12.8 40.6,-17.8 44.7,-17.8 
		43.9,-18.8 40.2,-18.8 34.5,-11.8 61.5,-11.8 	"/>
</g>
<g>
	<polygon class="st0" points="87.6,-18.8 84.3,-18.8 83.5,-17.8 87.2,-17.8 91.4,-12.8 68.6,-12.8 72.6,-17.8 76.7,-17.8 
		75.9,-18.8 72.2,-18.8 66.5,-11.8 93.5,-11.8 	"/>
</g>
<g>
	<polygon class="st0" points="119.6,-18.8 116.3,-18.8 115.5,-17.8 119.2,-17.8 123.4,-12.8 100.6,-12.8 104.6,-17.8 108.7,-17.8 
		107.9,-18.8 104.2,-18.8 98.5,-11.8 125.5,-11.8 	"/>
</g>
<g>
	<polygon class="st0" points="151.6,-18.8 148.3,-18.8 147.5,-17.8 151.2,-17.8 155.4,-12.8 132.6,-12.8 136.6,-17.8 140.7,-17.8 
		139.9,-18.8 136.2,-18.8 130.5,-11.8 157.5,-11.8 	"/>
</g>
<g>
	<polygon class="st0" points="183.6,-18.8 180.3,-18.8 179.5,-17.8 183.2,-17.8 187.4,-12.8 164.6,-12.8 168.6,-17.8 172.7,-17.8 
		171.9,-18.8 168.2,-18.8 162.5,-11.8 189.5,-11.8 	"/>
</g>
<g>
	<polygon class="st0" points="215.6,-18.8 212.3,-18.8 211.5,-17.8 215.2,-17.8 219.4,-12.8 196.6,-12.8 200.6,-17.8 204.7,-17.8 
		203.9,-18.8 200.2,-18.8 194.5,-11.8 221.5,-11.8 	"/>
</g>
<g>
	<polygon class="st0" points="247.6,-18.8 244.3,-18.8 243.5,-17.8 247.2,-17.8 251.4,-12.8 228.6,-12.8 232.6,-17.8 236.7,-17.8 
		235.9,-18.8 232.2,-18.8 226.5,-11.8 253.5,-11.8 	"/>
</g>
<g>
	<path class="st0" d="M48-25.3c-1.1,0-2-0.9-2-2s0.9-2,2-2s2,0.9,2,2S49.1-25.3,48-25.3z M48-28.3c-0.5,0-1,0.5-1,1s0.5,1,1,1
		s1-0.5,1-1S48.5-28.3,48-28.3z"/>
</g>
<path class="st0" d="M48-33.3c-3.3,0-6,2.7-6,6c0,3.1,5.4,9.6,5.6,9.8L48-17l0.4-0.5c0.2-0.3,5.6-6.7,5.6-9.8
	C54-30.6,51.3-33.3,48-33.3z M48-32.3c2.8,0,5,2.2,5,5c0,1.6-2,4.7-3.6,7h-2.7c-1.7-2.3-3.7-5.4-3.7-7C43-30.1,45.2-32.3,48-32.3z"
	/>
<g>
	<path class="st0" d="M80-25.3c-1.1,0-2-0.9-2-2s0.9-2,2-2s2,0.9,2,2S81.1-25.3,80-25.3z M80-28.3c-0.5,0-1,0.5-1,1s0.5,1,1,1
		s1-0.5,1-1S80.5-28.3,80-28.3z"/>
</g>
<path class="st0" d="M80-33.3c-3.3,0-6,2.7-6,6c0,3.1,5.4,9.6,5.6,9.8L80-17l0.4-0.5c0.2-0.3,5.6-6.7,5.6-9.8
	C86-30.6,83.3-33.3,80-33.3z M80-32.3c2.8,0,5,2.2,5,5c0,1.1-0.9,2.9-2,4.6h-6c-1.1-1.7-2-3.5-2-4.6C75-30.1,77.2-32.3,80-32.3z"/>
<g>
	<path class="st0" d="M112-25.3c-1.1,0-2-0.9-2-2s0.9-2,2-2s2,0.9,2,2S113.1-25.3,112-25.3z M112-28.3c-0.5,0-1,0.5-1,1s0.5,1,1,1
		s1-0.5,1-1S112.5-28.3,112-28.3z"/>
</g>
<path class="st0" d="M112-33.3c-3.3,0-6,2.7-6,6c0,3.1,5.4,9.6,5.6,9.8L112-17l0.4-0.5c0.2-0.3,5.6-6.7,5.6-9.8
	C118-30.6,115.3-33.3,112-33.3z M112-32.3c2.8,0,5,2.2,5,5c0,0.7-0.3,1.5-0.8,2.5h-8.4c-0.5-1-0.8-1.8-0.8-2.5
	C107-30.1,109.2-32.3,112-32.3z"/>
<path class="st0" d="M176-33.3c-3.3,0-6,2.7-6,6c0,3.1,5.4,9.6,5.6,9.8L176-17l0.4-0.5c0.2-0.3,5.6-6.7,5.6-9.8
	C182-30.6,179.3-33.3,176-33.3z M176-32.3c1.9,0,3.5,1.1,4.4,2.7h-8.8C172.5-31.2,174.1-32.3,176-32.3z M176-26.2
	c-0.6,0-1.2-0.6-1.2-1.2c0-0.6,0.6-1.2,1.2-1.2s1.2,0.6,1.2,1.2C177.2-26.8,176.6-26.2,176-26.2z"/>
<path class="st0" d="M208-33.3c-3.3,0-6,2.7-6,6c0,3.1,5.4,9.6,5.6,9.8L208-17l0.4-0.5c0.2-0.3,5.6-6.7,5.6-9.8
	C214-30.6,211.3-33.3,208-33.3z M211.3-31h-6.7c0.9-0.8,2.1-1.3,3.3-1.3S210.5-31.8,211.3-31z M208-25.6c-0.9,0-1.7-0.8-1.7-1.7
	s0.8-1.7,1.7-1.7s1.7,0.8,1.7,1.7S208.9-25.6,208-25.6z"/>
<path class="st0" d="M240-33.3c-3.3,0-6,2.7-6,6c0,3.1,5.4,9.6,5.6,9.8L240-17l0.4-0.5c0.2-0.3,5.6-6.7,5.6-9.8
	C246-30.6,243.3-33.3,240-33.3z M240-25.3c-1,0-2-1-2-2s1-2,2-2s2,1,2,2S241-25.3,240-25.3z"/>
<path class="st0" d="M144-33.3c-3.3,0-6,2.7-6,6c0,3.1,5.4,9.6,5.6,9.8L144-17l0.4-0.5c0.2-0.3,5.6-6.7,5.6-9.8
	C150-30.6,147.3-33.3,144-33.3z M144-26.4c-0.5,0-1-0.5-1-1s0.5-1,1-1s1,0.5,1,1S144.5-26.4,144-26.4z M144-29.4c-1.1,0-2,0.9-2,2
	h-3c0.1-2.7,2.3-4.9,5-4.9s4.9,2.2,5,4.9h-3C146-28.5,145.1-29.4,144-29.4z"/>
<polyline class="st1" points="28.6,23 18.8,25.1 18.8,26.6 16,26.6 13.2,26.6 13.2,25.1 3.4,23 "/>
<path class="st1" d="M16,23c0,0,2.4-3.8,13.5-3.8V5.4C18.4,5.4,16,9.1,16,9.1S13.6,5.4,2.5,5.4v13.9C13.6,19.2,16,23,16,23z"/>
<line class="st1" x1="16" y1="23" x2="16" y2="9.1"/>
<rect x="0" class="st2" width="32" height="32"/>
<polyline class="st1" points="60.6,23 50.8,25.1 50.8,26.6 48,26.6 45.2,26.6 45.2,25.1 35.4,23 "/>
<path class="st1" d="M48,22.1v-13c0,0,3-4.6,11.6-6.2c0,0,0,13.8,0,13.8C52.4,17.9,48,23,48,23s-2.4-3.8-13.5-3.7V5.4
	C45.6,5.4,48,9.1,48,9.1"/>
<rect x="32" class="st2" width="32" height="32"/>
<polyline class="st1" points="92.6,23 82.8,25.1 82.8,26.6 80,26.6 77.2,26.6 77.2,25.1 67.4,23 "/>
<path class="st1" d="M80,23c0,0,2.1-5.1,9.4-7V2.2c-7.2,2-9.4,7-9.4,7s-2.4-3.7-13.5-3.7v13.9C77.6,19.2,80,23,80,23z"/>
<line class="st1" x1="80" y1="23" x2="80" y2="9.1"/>
<rect x="64" class="st2" width="32" height="32"/>
<path class="st1" d="M63.7,8.4"/>
<path class="st3" d="M61,4.9l0,13.8c-0.4,0-3.6,0.4-6.7,1.7c2.1-0.5,4.5-0.7,7.2-0.7H62V4.9H61z"/>
<path class="st1" d="M32,57.9V44.1c-11.1,0-13.5,3.7-13.5,3.7v13.9C18.5,61.7,20.9,57.9,32,57.9z"/>
<path class="st3" d="M93.5,4.9c-0.9,0-1.7,0-2,0.1V6c0.1,0,0.8-0.1,1.5-0.1v12.7c-7.4,0.4-9.7,2.7-9.7,2.7c2-0.9,5.2-1.7,10.3-1.7
	H94V4.9H93.5z"/>
<polyline class="st1" points="124.6,23 114.8,25.1 114.8,26.6 112,26.6 109.2,26.6 109.2,25.1 99.4,23 "/>
<line class="st1" x1="112" y1="23" x2="112" y2="9.1"/>
<rect x="96" class="st2" width="32" height="32"/>
<path class="st1" d="M112,23c0,0,1.7-5.4,6.8-7.4V1.8c-5.1,2.3-6.8,7.3-6.8,7.3s-2.4-3.7-13.5-3.7v13.9C109.6,19.2,112,23,112,23z"
	/>
<path class="st3" d="M125.6,4.9c-1.7,0-3.2,0.1-4.5,0.2v1.1c1.2-0.1,2.5-0.2,4-0.2v12.7c-2,0-3.7,0.2-5.2,0.4
	c-0.4,0.1-2.2,0.6-4.9,2.5c1.9-0.9,5.2-1.8,10.6-1.8h0.5V4.9H125.6z"/>
</svg>
