<svg width="31" height="30" viewBox="0 0 31 30" fill="none" xmlns="http://www.w3.org/2000/svg">
<rect width="31" height="30" fill="white"/>
<path d="M3.04803 24.5L7.90496 18.5H22.8913L27.9275 24.5H3.04803Z" stroke="#484848"/>
<path d="M10.0085 9.00671C9.98797 9.20538 10.0085 9.38419 10.0291 9.563C10.0291 9.6822 10.0496 9.82127 10.0907 10.0001C10.4605 12.3842 10.6646 12.9537 12 15L15.4529 19L19 15C20.3354 12.9735 20.5275 12.4438 20.9178 10.0597C20.9384 9.88088 20.9589 9.72194 20.9795 9.6226C21 9.44379 21 9.24512 21 9.06631C20.8562 6.26501 18.4524 4.02 15.5145 4.00013C12.5766 3.98026 10.1729 6.20541 10.0085 9.00671Z" stroke="#484848" stroke-miterlimit="10"/>
<path d="M15.5 11C16.3284 11 17 10.3284 17 9.5C17 8.67157 16.3284 8 15.5 8C14.6716 8 14 8.67157 14 9.5C14 10.3284 14.6716 11 15.5 11Z" fill="white" stroke="#484848" stroke-miterlimit="10"/>
</svg>
