<svg width="30" height="30" viewBox="0 0 30 30" fill="none" xmlns="http://www.w3.org/2000/svg">
<rect width="30" height="30" fill="white"/>
<path d="M21 6L10 23" stroke="#484848" stroke-width="2" stroke-miterlimit="10"/>
<path d="M9 14C10.6569 14 12 12.6569 12 11C12 9.34315 10.6569 8 9 8C7.34315 8 6 9.34315 6 11C6 12.6569 7.34315 14 9 14Z" stroke="#484848" stroke-miterlimit="10"/>
<path d="M22 21C23.6569 21 25 19.6569 25 18C25 16.3431 23.6569 15 22 15C20.3431 15 19 16.3431 19 18C19 19.6569 20.3431 21 22 21Z" stroke="#484848" stroke-miterlimit="10"/>
</svg>
