<?xml version="1.0" encoding="utf-8"?>
<!-- Generator: Adobe Illustrator 22.0.1, SVG Export Plug-In . SVG Version: 6.00 Build 0)  -->
<svg version="1.1" id="Layer_1" xmlns="http://www.w3.org/2000/svg" xmlns:xlink="http://www.w3.org/1999/xlink" x="0px" y="0px"
	 viewBox="0 0 324 36" style="enable-background:new 0 0 324 36;" xml:space="preserve">
<style type="text/css">
	.st0{fill:#030202;}
</style>
<rect x="6" y="7.3" width="2" height="21.7"/>
<path d="M11.5,8.8v3.5h14.4V8.8H11.5z M24.9,11.3H12.5V9.8h12.4V11.3z"/>
<path d="M20,25.1v1.5h-7.5v-1.5H20 M21,24.1h-9.5v3.5H21V24.1L21,24.1z"/>
<path d="M29.5,17.4v1.5h-17v-1.5H29.5 M30.5,16.4h-19v3.5h19V16.4L30.5,16.4z"/>
<rect x="42" y="7.3" width="2" height="21.7"/>
<path d="M47.5,8.8v3.5h14.4V8.8H47.5z M60.9,11.3h-8.2V9.8h8.2V11.3z"/>
<path d="M56,25.1v1.5h-7.5v-1.5H56 M57,24.1h-9.5v3.5H57V24.1L57,24.1z"/>
<path d="M65.5,17.4v1.5H50.9v-1.5H65.5 M66.5,16.4h-19v3.5h19V16.4L66.5,16.4z"/>
<rect x="78" y="7.3" width="2" height="21.7"/>
<path d="M83.5,8.8v3.5h14.4V8.8H83.5z M96.9,11.3h-4.7V9.8h4.7V11.3z"/>
<path d="M92,25.1v1.5h-6.7v-1.5H92 M93,24.1h-9.5v3.5H93V24.1L93,24.1z"/>
<path d="M101.5,17.4v1.5H90v-1.5H101.5 M102.5,16.4h-19v3.5h19V16.4L102.5,16.4z"/>
<rect x="114" y="7.3" width="2" height="21.7"/>
<path d="M119.5,8.8v3.5h14.4V8.8H119.5z M132.9,11.3h-2.1V9.8h2.1V11.3z"/>
<path d="M128,25.1v1.5h-5.5v-1.5H128 M129,24.1h-9.5v3.5h9.5V24.1L129,24.1z"/>
<path d="M137.5,17.4v1.5H128v-1.5H137.5 M138.5,16.4h-19v3.5h19V16.4L138.5,16.4z"/>
<rect x="150" y="7.3" width="2" height="21.7"/>
<path d="M155.5,8.8v3.5h14.4V8.8H155.5z"/>
<path d="M164,25.1v1.5h-4.7v-1.5H164 M165,24.1h-9.5v3.5h9.5V24.1L165,24.1z"/>
<path d="M173.5,17.4v1.5h-7.2v-1.5H173.5 M174.5,16.4h-19v3.5h19V16.4L174.5,16.4z"/>
<rect x="186" y="7.3" width="2" height="21.7"/>
<path d="M191.5,8.8v3.5h14.4V8.8H191.5z"/>
<path d="M200,25.1v1.5h-3.8v-1.5H200 M201,24.1h-9.5v3.5h9.5V24.1L201,24.1z"/>
<path d="M209.5,17.4v1.5h-2.9v-1.5H209.5 M210.5,16.4h-19v3.5h19V16.4L210.5,16.4z"/>
<rect x="222" y="7.3" width="2" height="21.7"/>
<path d="M227.5,8.8v3.5h14.4V8.8H227.5z"/>
<path d="M236,25.1v1.5h-2.3v-1.5H236 M237,24.1h-9.5v3.5h9.5V24.1L237,24.1z"/>
<path d="M245.5,17.4v1.5H244v-1.5H245.5 M246.5,16.4h-19v3.5h19V16.4L246.5,16.4z"/>
<rect x="258" y="7.3" width="2" height="21.7"/>
<path d="M263.5,8.8v3.5h14.4V8.8H263.5z"/>
<path d="M272,25.1v1.5h-0.9v-1.5H272 M273,24.1h-9.5v3.5h9.5V24.1L273,24.1z"/>
<path d="M282.5,16.4h-19v3.5h19V16.4L282.5,16.4z"/>
<rect x="294" y="7.3" width="2" height="21.7"/>
<path d="M299.5,8.8v3.5h14.4V8.8H299.5z"/>
<path d="M309,24.1h-9.5v3.5h9.5V24.1L309,24.1z"/>
<path d="M318.5,16.4h-19v3.5h19V16.4L318.5,16.4z"/>
</svg>
