<?xml version="1.0" encoding="utf-8"?>
<!-- Generator: Adobe Illustrator 22.0.1, SVG Export Plug-In . SVG Version: 6.00 Build 0)  -->
<svg version="1.1" id="Layer_1" xmlns="http://www.w3.org/2000/svg" xmlns:xlink="http://www.w3.org/1999/xlink" x="0px" y="0px"
	 viewBox="0 0 36 36" style="enable-background:new 0 0 36 36;" xml:space="preserve">
<style type="text/css">
	.st0{fill:#010101;}
</style>
<path class="st0" d="M24.1,3.6c0,0.7-0.2,1.4-0.4,2c4.7,2.2,8,6.9,8,12.4c0,7.5-6.1,13.6-13.6,13.6S4.4,25.5,4.4,18
	c0-5.6,3.4-10.4,8.3-12.5c-0.2-0.6-0.4-1.3-0.4-2c0,0,0,0,0,0C6.5,5.8,2.4,11.4,2.4,18c0,8.6,7,15.6,15.6,15.6s15.6-7,15.6-15.6
	C33.6,11.5,29.7,6,24.1,3.6z"/>
<g>
	<ellipse class="st0" cx="18.1" cy="3.6" rx="2.2" ry="2.1"/>
	<path class="st0" d="M19.6,23.8c0-1.7-0.1-3.8-0.1-5.3v-4.4l0.1-4.5l-0.5-0.3l-5.1,2v1.2l2.7,0.3c0.1,1.3,0.1,2.3,0.1,4.2v1.6
		c0,1.5,0,3.6-0.1,5.3l-2.5,0.5v1.2h2.5h2.9h2.3v-1.2L19.6,23.8z"/>
</g>
</svg>
