<?xml version="1.0" encoding="utf-8"?>
<!-- Generator: Adobe Illustrator 23.0.1, SVG Export Plug-In . SVG Version: 6.00 Build 0)  -->
<svg version="1.1" id="Layer_1" xmlns="http://www.w3.org/2000/svg" xmlns:xlink="http://www.w3.org/1999/xlink" x="0px" y="0px"
	 viewBox="0 0 36 36" style="enable-background:new 0 0 36 36;" xml:space="preserve">
<style type="text/css">
	.st0{fill:#1E1E1E;}
</style>
<polygon class="st0" points="25.7,29.8 8.3,29.8 8.3,8.2 16.6,8.2 16.6,8.9 9,8.9 9,29.1 25,29.1 25,17.2 25.7,17.2 "/>
<polygon class="st0" points="22.2,6.2 22.2,6.9 26.4,6.9 16.1,17.3 16.6,17.8 27,7.5 27,11.8 27.7,11.8 27.7,6.2 "/>
<polygon class="st0" points="25.8,29.8 8.4,29.9 8.2,8.2 16.6,8.2 16.6,8.9 9,9 9.1,29.1 25,29 25,17.2 25.7,17.2 "/>
</svg>
