<?xml version="1.0" encoding="utf-8"?>
<!-- Generator: Adobe Illustrator 22.0.1, SVG Export Plug-In . SVG Version: 6.00 Build 0)  -->
<svg version="1.1" id="Layer_1" xmlns="http://www.w3.org/2000/svg" xmlns:xlink="http://www.w3.org/1999/xlink" x="0px" y="0px"
	 viewBox="0 0 36 36" style="enable-background:new 0 0 36 36;" xml:space="preserve">
<style type="text/css">
	.st0{fill:#FFFFFF;}
</style>
<title>icon</title>
<path class="st0" d="M26.8,4.3h5.6V2.9h-8.3V11h1.4V5.2c4.4,2.6,7.1,7.3,7.1,12.6c-0.1,3.9-1.7,7.6-4.5,10.3
	c-2.8,2.8-6.5,4.3-10.4,4.2c-3.9-0.1-7.6-1.7-10.3-4.5C4.6,25,3.1,21.3,3.2,17.5C3.3,9.4,10,2.9,18,2.9V1.5
	C9.2,1.5,1.9,8.7,1.8,17.4c-0.1,4.2,1.6,8.3,4.6,11.4c3,3.1,7.1,4.8,11.3,4.9c0.1,0,0.2,0,0.3,0c4.1,0,8.1-1.6,11.1-4.6
	c3.1-3,4.8-7.1,4.9-11.3C34,12.2,31.2,7.2,26.8,4.3z"/>
</svg>
