<?xml version="1.0" encoding="utf-8"?>
<!-- Generator: Adobe Illustrator 20.0.0, SVG Export Plug-In . SVG Version: 6.00 Build 0)  -->
<svg version="1.1" id="Layer_1" xmlns="http://www.w3.org/2000/svg" xmlns:xlink="http://www.w3.org/1999/xlink" x="0px" y="0px"
	 viewBox="0 0 36 36" style="enable-background:new 0 0 36 36;" xml:space="preserve">
<style type="text/css">
	.st0{fill:#020000;}
</style>
<title>icon</title>
<path class="st0" d="M34.1,3H23.3v10.7h2.3V6.6c3.7,2.5,5.9,6.6,5.9,11.2c-0.1,3.7-1.6,7.1-4.2,9.6c-2.6,2.6-6,4-9.6,3.9
	c-3.7-0.1-7.1-1.6-9.6-4.2c-2.6-2.6-4-6-3.9-9.5c0.1-6.4,4.7-12,11-13.3l0.5-0.1l-0.4-2.3L14.7,2C7.4,3.5,2,10,1.9,17.4
	c-0.1,4.1,1.6,8.2,4.6,11.3c2.9,3,7,4.8,11.2,4.9h0.3c4.2,0,8.1-1.6,11-4.6c3-2.9,4.8-7,4.9-11.2c0-4.9-2.2-9.5-5.9-12.5h6.3V3z"/>
</svg>
