<?xml version="1.0" encoding="utf-8"?>
<!-- Generator: Adobe Illustrator 22.1.0, SVG Export Plug-In . SVG Version: 6.00 Build 0)  -->
<svg version="1.1" id="Layer_1" xmlns="http://www.w3.org/2000/svg" xmlns:xlink="http://www.w3.org/1999/xlink" x="0px" y="0px"
	 viewBox="0 0 72 72" style="enable-background:new 0 0 72 72;" xml:space="preserve">
<style type="text/css">
	.st0{fill:#FFFFFF;stroke:#808285;stroke-width:3;stroke-miterlimit:10;}
	.st1{fill:none;stroke:#808285;stroke-width:3;stroke-miterlimit:10;}
</style>
<g>
	<line class="st0" x1="-7.8" y1="0" x2="7.8" y2="0"/>
	<line class="st0" x1="0" y1="7.8" x2="0" y2="-7.8"/>
	<line class="st0" x1="-7.8" y1="36" x2="7.8" y2="36"/>
	<line class="st0" x1="0" y1="43.8" x2="0" y2="28.2"/>
	<line class="st0" x1="-7.8" y1="72" x2="7.8" y2="72"/>
	<line class="st0" x1="0" y1="79.8" x2="0" y2="64.2"/>
	<line class="st0" x1="28.2" y1="18" x2="43.8" y2="18"/>
	<line class="st0" x1="36" y1="25.8" x2="36" y2="10.2"/>
	<line class="st0" x1="28.2" y1="54" x2="43.8" y2="54"/>
	<line class="st0" x1="36" y1="61.8" x2="36" y2="46.2"/>
	<line class="st0" x1="64.2" y1="0" x2="79.8" y2="0"/>
	<line class="st0" x1="72" y1="7.8" x2="72" y2="-7.8"/>
	<line class="st0" x1="64.2" y1="36" x2="79.8" y2="36"/>
	<line class="st0" x1="72" y1="43.8" x2="72" y2="28.2"/>
	<line class="st0" x1="64.2" y1="72" x2="79.8" y2="72"/>
	<line class="st0" x1="72" y1="79.8" x2="72" y2="64.2"/>
</g>
</svg>
