<?xml version="1.0" encoding="utf-8"?>
<!-- Generator: Adobe Illustrator 22.1.0, SVG Export Plug-In . SVG Version: 6.00 Build 0)  -->
<svg version="1.1" id="Layer_1" xmlns="http://www.w3.org/2000/svg" xmlns:xlink="http://www.w3.org/1999/xlink" x="0px" y="0px"
	 viewBox="0 0 72 72" style="enable-background:new 0 0 72 72;" xml:space="preserve">
<style type="text/css">
	.st0{fill:#FFFFFF;stroke:#808285;stroke-width:3;stroke-miterlimit:10;}
	.st1{fill:none;stroke:#808285;stroke-width:3;stroke-miterlimit:10;}
</style>
<g>
	<line class="st0" x1="30.5" y1="12.5" x2="41.5" y2="23.5"/>
	<line class="st0" x1="30.5" y1="23.5" x2="41.5" y2="12.5"/>
	<line class="st0" x1="30.5" y1="48.5" x2="41.5" y2="59.5"/>
	<line class="st0" x1="30.5" y1="59.5" x2="41.5" y2="48.5"/>
	<line class="st0" x1="-5.5" y1="-5.5" x2="5.5" y2="5.5"/>
	<line class="st0" x1="-5.5" y1="5.5" x2="5.5" y2="-5.5"/>
	<line class="st0" x1="66.5" y1="-5.5" x2="77.5" y2="5.5"/>
	<line class="st0" x1="66.5" y1="5.5" x2="77.5" y2="-5.5"/>
	<line class="st0" x1="-5.5" y1="30.5" x2="5.5" y2="41.5"/>
	<line class="st0" x1="-5.5" y1="41.5" x2="5.5" y2="30.5"/>
	<line class="st0" x1="66.5" y1="30.5" x2="77.5" y2="41.5"/>
	<line class="st0" x1="66.5" y1="41.5" x2="77.5" y2="30.5"/>
	<line class="st0" x1="-5.5" y1="66.5" x2="5.5" y2="77.5"/>
	<line class="st0" x1="-5.5" y1="77.5" x2="5.5" y2="66.5"/>
	<line class="st0" x1="66.5" y1="66.5" x2="77.5" y2="77.5"/>
	<line class="st0" x1="66.5" y1="77.5" x2="77.5" y2="66.5"/>
</g>
</svg>
