<?xml version="1.0" encoding="utf-8"?>
<!-- Generator: Adobe Illustrator 22.1.0, SVG Export Plug-In . SVG Version: 6.00 Build 0)  -->
<svg version="1.1" id="Layer_1" xmlns="http://www.w3.org/2000/svg" xmlns:xlink="http://www.w3.org/1999/xlink" x="0px" y="0px"
	 viewBox="0 0 72 72" style="enable-background:new 0 0 72 72;" xml:space="preserve">
<style type="text/css">
	.st0{fill:#FFFFFF;stroke:#808285;stroke-width:3;stroke-miterlimit:10;}
	.st1{fill:none;stroke:#808285;stroke-width:3;stroke-miterlimit:10;}
</style>
<g>
	<line class="st0" x1="0" y1="58.5" x2="0" y2="49.1"/>
	<line class="st0" x1="72" y1="58.5" x2="72" y2="49.1"/>
	<line class="st0" x1="36" y1="58.5" x2="36" y2="49.1"/>
	<line class="st0" x1="18" y1="58.5" x2="18" y2="49.1"/>
	<line class="st0" x1="54" y1="58.5" x2="54" y2="49.1"/>
	<line class="st0" x1="9" y1="76.3" x2="9" y2="66.8"/>
	<line class="st0" x1="45" y1="76.3" x2="45" y2="66.8"/>
	<line class="st0" x1="27" y1="76.3" x2="27" y2="66.8"/>
	<line class="st0" x1="63" y1="76.3" x2="63" y2="66.8"/>
	<line class="st0" x1="0" y1="13.5" x2="0" y2="22.9"/>
	<line class="st0" x1="72" y1="13.5" x2="72" y2="22.9"/>
	<line class="st0" x1="36" y1="13.5" x2="36" y2="22.9"/>
	<line class="st0" x1="18" y1="13.5" x2="18" y2="22.9"/>
	<line class="st0" x1="54" y1="13.5" x2="54" y2="22.9"/>
	<line class="st0" x1="9" y1="-4.3" x2="9" y2="5.2"/>
	<line class="st0" x1="45" y1="-4.3" x2="45" y2="5.2"/>
	<line class="st0" x1="27" y1="-4.3" x2="27" y2="5.2"/>
	<line class="st0" x1="63" y1="-4.3" x2="63" y2="5.2"/>
	<line class="st0" x1="9" y1="40.7" x2="9" y2="31.3"/>
	<line class="st0" x1="45" y1="40.7" x2="45" y2="31.3"/>
	<line class="st0" x1="27" y1="40.7" x2="27" y2="31.3"/>
	<line class="st0" x1="63" y1="40.7" x2="63" y2="31.3"/>
</g>
</svg>
