<?xml version="1.0" encoding="utf-8"?>
<!-- Generator: Adobe Illustrator 22.1.0, SVG Export Plug-In . SVG Version: 6.00 Build 0)  -->
<svg version="1.1" id="Layer_1" xmlns="http://www.w3.org/2000/svg" xmlns:xlink="http://www.w3.org/1999/xlink" x="0px" y="0px"
	 viewBox="0 0 72 72" style="enable-background:new 0 0 72 72;" xml:space="preserve">
<style type="text/css">
	.st0{fill:#FFFFFF;stroke:#808285;stroke-width:3;stroke-miterlimit:10;}
	.st1{fill:none;stroke:#808285;stroke-width:3;stroke-miterlimit:10;}
</style>
<rect x="-5.5" y="-5.5" transform="matrix(0.7071 -0.7071 0.7071 0.7071 0 0)" class="st1" width="11.1" height="11.1"/>
<rect x="-5.5" y="30.5" transform="matrix(0.7071 -0.7071 0.7071 0.7071 -25.4558 10.5442)" class="st1" width="11.1" height="11.1"/>
<rect x="30.5" y="12.5" transform="matrix(0.7071 -0.7071 0.7071 0.7071 -2.1838 30.7279)" class="st1" width="11.1" height="11.1"/>
<rect x="-5.5" y="66.5" transform="matrix(0.7071 -0.7071 0.7071 0.7071 -50.9117 21.0883)" class="st1" width="11.1" height="11.1"/>
<rect x="30.5" y="48.5" transform="matrix(0.7071 -0.7071 0.7071 0.7071 -27.6396 41.2721)" class="st1" width="11.1" height="11.1"/>
<rect x="66.5" y="-5.5" transform="matrix(0.7071 -0.7071 0.7071 0.7071 21.0883 50.9117)" class="st1" width="11.1" height="11.1"/>
<rect x="66.5" y="30.5" transform="matrix(0.7071 -0.7071 0.7071 0.7071 -4.3675 61.4558)" class="st1" width="11.1" height="11.1"/>
<rect x="66.5" y="66.5" transform="matrix(0.7071 -0.7071 0.7071 0.7071 -29.8234 72)" class="st1" width="11.1" height="11.1"/>
</svg>
