<?xml version="1.0" encoding="utf-8"?>
<!-- Generator: Adobe Illustrator 20.0.0, SVG Export Plug-In . SVG Version: 6.00 Build 0)  -->
<svg version="1.1" id="Layer_1" xmlns="http://www.w3.org/2000/svg" xmlns:xlink="http://www.w3.org/1999/xlink" x="0px" y="0px"
	 viewBox="0 0 175 21" style="enable-background:new 0 0 175 21;" xml:space="preserve">
<style type="text/css">
	.st0{fill:#FFFFFF;}
</style>
<path class="st0" d="M62.6,4h-4.7v12.8h4.7c3.5,0,6.3-2.9,6.3-6.4C68.9,6.9,66.1,4,62.6,4z M62.6,14.1h-2V6.8c0,0,0.9,0,2,0
	c2,0,3.6,1.7,3.6,3.7C66.3,12.5,64.6,14.1,62.6,14.1z M82.9,8.5c0-2.5-2-4.5-4.4-4.5h-6.1v12.8H75V13h2.2l2.7,3.9h3.3l-2.9-4.3
	C81.8,11.8,82.9,10.3,82.9,8.5z M78.3,10.3H75V6.8h3.3c1,0,1.7,0.8,1.7,1.7C80.1,9.5,79.3,10.3,78.3,10.3z M166.1,4l-3.5,7.8
	L159.1,4h-2.9l1.7,3.7l-1.8,4L152.6,4h-2.9l6.1,13.1h0.6l3-6.3l3,6.3h0.5L169,4H166.1L166.1,4z M130.9,11.7L124.9,4h-2.2v12.8h2.7
	V9.2l5.9,7.7h2.2V4h-2.7V11.7z M86.6,16.9h9.1v-2.7h-6.4v-2.3h5.4V9.1h-5.4V6.8h6.4V4h-9.1V16.9z M142.8,3.8c-3.6,0-6.6,3-6.6,6.7
	c0,3.7,3,6.7,6.6,6.7c3.6,0,6.6-3,6.6-6.7C149.4,6.8,146.5,3.8,142.8,3.8z M142.8,14.4c-2.1,0-3.9-1.7-3.9-3.9
	c0-2.2,1.7-3.9,3.9-3.9c2.1,0,3.9,1.7,3.9,3.9C146.7,12.6,145,14.4,142.8,14.4z M107.6,11.7L101.7,4h-2.2v12.8h2.7V9.2l5.9,7.7h2.2
	V4h-2.7L107.6,11.7L107.6,11.7z M40.1,3.5H39c-1.2,1.8-4.3,2-4.3,2v1.7h2.7v7.1h-2.7v2.5h8.1v-2.5h-2.7V3.5z M49,4h-2.7v12.8h9.1
	v-2.7h-6.4L49,4L49,4z M28.5,9.1h-5.4V4h-2.7v12.8h2.7v-5.1h5.4v5.1h2.7V4h-2.7V9.1z M12.1,14.4c-2.1,0-3.9-1.7-3.9-3.9
	c0-2.2,1.7-3.9,3.9-3.9c1.4,0,2.6,0.8,3.3,1.9l2-2c-1.2-1.6-3.1-2.7-5.3-2.7c-3.6,0-6.6,3-6.6,6.7c0,3.7,3,6.7,6.6,6.7
	c2.2,0,4.1-1.1,5.3-2.7l-2-2C14.7,13.6,13.5,14.4,12.1,14.4z"/>
</svg>
