<?xml version="1.0" encoding="utf-8"?>
<!-- Generator: Adobe Illustrator 22.0.1, SVG Export Plug-In . SVG Version: 6.00 Build 0)  -->
<svg version="1.1" id="Layer_1" xmlns="http://www.w3.org/2000/svg" xmlns:xlink="http://www.w3.org/1999/xlink" x="0px" y="0px"
	 viewBox="0 0 32 32" style="enable-background:new 0 0 32 32;" xml:space="preserve">
<style type="text/css">
	.st0{fill:#484848;}
	.st1{fill:none;}
</style>
<g>
	<path class="st0" d="M16,12.5c-1.1,0-2-0.9-2-2s0.9-2,2-2s2,0.9,2,2S17.1,12.5,16,12.5z M16,9.5c-0.5,0-1,0.5-1,1s0.5,1,1,1
		s1-0.5,1-1S16.5,9.5,16,9.5z"/>
</g>
<g>
	<path class="st0" d="M16,20.8l-0.4-0.5c-0.2-0.3-5.6-6.7-5.6-9.8c0-3.3,2.7-6,6-6s6,2.7,6,6c0,3.1-5.4,9.6-5.6,9.8L16,20.8z
		 M16,5.5c-2.8,0-5,2.2-5,5c0,2.1,3.3,6.6,5,8.7c1.7-2.1,5-6.6,5-8.7C21,7.7,18.8,5.5,16,5.5z"/>
</g>
<g>
	<polygon class="st0" points="23.6,19 19.8,19 19,20 23.2,20 27.4,25 4.6,25 8.6,20 13.2,20 12.4,19 8.2,19 2.5,26 29.5,26 	"/>
</g>
<rect class="st1" width="32" height="32"/>
<g>
	<path class="st0" d="M48,12.8c-1.1,0-2-0.9-2-2s0.9-2,2-2s2,0.9,2,2S49.1,12.8,48,12.8z M48,9.8c-0.5,0-1,0.5-1,1s0.5,1,1,1
		s1-0.5,1-1S48.5,9.8,48,9.8z"/>
</g>
<g>
	<path class="st0" d="M48,21l-0.4-0.5c-0.2-0.3-5.6-6.7-5.6-9.8c0-3.3,2.7-6,6-6s6,2.7,6,6c0,3.1-5.4,9.6-5.6,9.8L48,21z M48,5.8
		c-2.8,0-5,2.2-5,5c0,2.1,3.3,6.6,5,8.7c1.7-2.1,5-6.6,5-8.7C53,8,50.8,5.8,48,5.8z"/>
</g>
<g>
	<polygon class="st0" points="55.6,18.8 52,18.8 51.2,19.8 55.2,19.8 59.4,24.8 36.6,24.8 40.6,19.8 45,19.8 44.2,18.8 40.2,18.8 
		34.5,25.8 61.5,25.8 	"/>
</g>
<rect x="32" class="st1" width="32" height="32"/>
<g>
	<path class="st0" d="M80,13c-1.1,0-2-0.9-2-2s0.9-2,2-2s2,0.9,2,2S81.1,13,80,13z M80,10c-0.5,0-1,0.5-1,1s0.5,1,1,1s1-0.5,1-1
		S80.5,10,80,10z"/>
</g>
<g>
	<path class="st0" d="M80,21.3l-0.4-0.5C79.4,20.6,74,14.1,74,11c0-3.3,2.7-6,6-6s6,2.7,6,6c0,3.1-5.4,9.6-5.6,9.8L80,21.3z M80,6
		c-2.8,0-5,2.2-5,5c0,2.1,3.3,6.6,5,8.7c1.7-2.1,5-6.6,5-8.7C85,8.2,82.8,6,80,6z"/>
</g>
<g>
	<polygon class="st0" points="87.6,18.5 84.2,18.5 83.4,19.5 87.2,19.5 91.4,24.5 68.6,24.5 72.6,19.5 76.8,19.5 76,18.5 72.2,18.5 
		66.5,25.5 93.5,25.5 	"/>
</g>
<rect x="64" class="st1" width="32" height="32"/>
</svg>
