<?xml version="1.0" encoding="utf-8"?>
<!-- Generator: Adobe Illustrator 20.0.0, SVG Export Plug-In . SVG Version: 6.00 Build 0)  -->
<svg version="1.1" id="Layer_1" xmlns="http://www.w3.org/2000/svg" xmlns:xlink="http://www.w3.org/1999/xlink" x="0px" y="0px"
	 viewBox="0 0 36 36" style="enable-background:new 0 0 36 36;" xml:space="preserve">
<style type="text/css">
	.st0{fill:#5D5D5D;}
</style>
<title>icon</title>
<g>
	<path class="st0" d="M18,21.1l-0.3-0.3c-2.5-2.3-6.3-7.7-6.3-13c0-3.7,2.9-6.6,6.6-6.6s6.6,2.9,6.6,6.6c0,4.7-3.2,10.2-6.3,13
		L18,21.1z M18,2.2c-3.1,0-5.6,2.5-5.6,5.6c0,4.2,2.8,9.2,5.6,11.9c2.4-2.4,5.6-7.5,5.6-11.9C23.6,4.7,21.1,2.2,18,2.2z"/>
</g>
<g>
	<path class="st0" d="M18,11.1c-1.5,0-2.7-1.2-2.7-2.7s1.2-2.7,2.7-2.7s2.7,1.2,2.7,2.7S19.5,11.1,18,11.1z M18,6.7
		c-0.9,0-1.7,0.8-1.7,1.7c0,0.9,0.8,1.7,1.7,1.7s1.7-0.8,1.7-1.7C19.7,7.5,18.9,6.7,18,6.7z"/>
</g>
<g>
	<g>
		<polygon class="st0" points="33.1,30.3 2.9,30.3 8.7,22 15.4,22 16.2,23 9.2,23 4.8,29.3 31.2,29.3 26.8,23 19.8,23 20.8,22 
			27.3,22 		"/>
	</g>
</g>
</svg>
