<?xml version="1.0" encoding="utf-8"?>
<!-- Generator: Adobe Illustrator 20.0.0, SVG Export Plug-In . SVG Version: 6.00 Build 0)  -->
<svg version="1.1" id="Layer_1" xmlns="http://www.w3.org/2000/svg" xmlns:xlink="http://www.w3.org/1999/xlink" x="0px" y="0px"
	 viewBox="0 0 31 30" style="enable-background:new 0 0 31 30;" xml:space="preserve">
<style type="text/css">
	.st0{fill:#FCBBA1;}
</style>
<polygon class="st0" points="23.1,18 19.3,18 15.5,22.3 11.9,18 7.7,18 2,25 29,25 "/>
<path class="st0" d="M15.5,3.5c-3.3,0-6,2.7-6,6c0,3.2,5.4,9.6,5.6,9.8l0.4,0.4l0.4-0.4c0.2-0.3,5.6-6.6,5.6-9.8
	C21.5,6.2,18.8,3.5,15.5,3.5z M15.5,11.6c-1.2,0-2.1-0.9-2.1-2.1c0-1.2,0.9-2.1,2.1-2.1s2.1,0.9,2.1,2.1
	C17.6,10.7,16.7,11.6,15.5,11.6z"/>
</svg>
