<?xml version="1.0" encoding="utf-8"?>
<!-- Generator: Adobe Illustrator 20.0.0, SVG Export Plug-In . SVG Version: 6.00 Build 0)  -->
<svg version="1.1" id="Layer_1" xmlns="http://www.w3.org/2000/svg" xmlns:xlink="http://www.w3.org/1999/xlink" x="0px" y="0px"
	 viewBox="0 0 36 36" style="enable-background:new 0 0 36 36;" xml:space="preserve">
<style type="text/css">
	.st0{fill:#5D5D5D;}
</style>
<title>icon</title>
<g>
	<path class="st0" d="M27.3,22h-4.6c-0.2,0.3-0.5,0.7-0.7,1h4.8l4.4,6.3H4.8L9.2,23H14c-0.3-0.3-0.5-0.7-0.7-1H8.7l-5.8,8.3h30.3
		L27.3,22z"/>
</g>
<g>
	<path class="st0" d="M18,23.9l-0.3-0.3c-2.5-2.4-6.3-7.9-6.3-13C11.4,6.9,14.3,4,18,4s6.6,2.9,6.6,6.6c0,5.1-3.8,10.6-6.3,13
		L18,23.9z M18,5c-3.1,0-5.6,2.5-5.6,5.6c0,4.6,3.2,9.4,5.6,11.9c2.3-2.4,5.6-7.4,5.6-11.9C23.6,7.5,21.1,5,18,5z M18,14.3
		c-1.8,0-3.2-1.4-3.2-3.2c0-1.8,1.4-3.2,3.2-3.2s3.2,1.4,3.2,3.2C21.2,12.9,19.8,14.3,18,14.3z M18,8.9c-1.2,0-2.2,1-2.2,2.2
		c0,1.2,1,2.2,2.2,2.2s2.2-1,2.2-2.2C20.2,9.9,19.2,8.9,18,8.9z"/>
</g>
</svg>
