<?xml version="1.0" encoding="utf-8"?>
<!-- Generator: Adobe Illustrator 20.0.0, SVG Export Plug-In . SVG Version: 6.00 Build 0)  -->
<svg version="1.1" id="Layer_1" xmlns="http://www.w3.org/2000/svg" xmlns:xlink="http://www.w3.org/1999/xlink" x="0px" y="0px"
	 viewBox="0 0 144 36" style="enable-background:new 0 0 144 36;" xml:space="preserve">
<style type="text/css">
	.st0{fill:#5D5D5D;}
</style>
<title>icon</title>
<g>
	<path class="st0" d="M54,21.1l-0.3-0.3c-2.5-2.3-6.3-7.7-6.3-13c0-3.7,2.9-6.6,6.6-6.6s6.6,2.9,6.6,6.6c0,4.7-3.2,10.2-6.3,13
		L54,21.1z M54,2.2c-3.1,0-5.6,2.5-5.6,5.6c0,4.2,2.8,9.2,5.6,11.9c2.4-2.4,5.6-7.5,5.6-11.9C59.6,4.7,57.1,2.2,54,2.2z"/>
</g>
<g>
	<path class="st0" d="M54,11.1c-1.5,0-2.7-1.2-2.7-2.7s1.2-2.7,2.7-2.7s2.7,1.2,2.7,2.7S55.5,11.1,54,11.1z M54,6.7
		c-0.9,0-1.7,0.8-1.7,1.7c0,0.9,0.8,1.7,1.7,1.7s1.7-0.8,1.7-1.7C55.7,7.5,54.9,6.7,54,6.7z"/>
</g>
<g>
	<g>
		<polygon class="st0" points="69.1,30.3 38.9,30.3 44.7,22 51.4,22 52.2,23 45.2,23 40.8,29.3 67.2,29.3 62.8,23 55.8,23 56.8,22 
			63.3,22 		"/>
	</g>
</g>
<g>
	<path class="st0" d="M99.1,22.5h-3.9c-1.5,1.9-3.2,3.7-5.2,5.1c-2-1.4-3.7-3.1-5.2-5.1h-3.9l-5.1,7.3h28.3L99.1,22.5z"/>
	<path class="st0" d="M105,30.3H74.8l5.8-8.3H85l0.2,0.2c1.4,1.9,3,3.5,4.8,4.8c1.6-1.2,3.2-2.8,4.8-4.8L95,22h4.4L105,30.3z
		 M76.8,29.3h26.4L98.8,23h-3.4c-1.7,2.1-3.4,3.8-5.2,5L90,28.2L89.7,28c-1.9-1.3-3.6-3-5.2-5h-3.4L76.8,29.3z"/>
</g>
<g>
	<path class="st0" d="M90,4.5c-3.4,0-6.1,2.7-6.1,6.1c0,4.7,3.4,10,6.1,12.6c2.7-2.5,6.1-7.9,6.1-12.6C96.1,7.2,93.4,4.5,90,4.5z
		 M90,13.8c-1.5,0-2.7-1.2-2.7-2.7s1.2-2.7,2.7-2.7s2.7,1.2,2.7,2.7l0,0C92.7,12.6,91.5,13.8,90,13.8z"/>
	<path class="st0" d="M90,23.9l-0.3-0.3c-2.5-2.4-6.3-7.9-6.3-13C83.4,6.9,86.3,4,90,4s6.6,2.9,6.6,6.6c0,4.7-3.2,10.2-6.3,13
		L90,23.9z M90,5c-3.1,0-5.6,2.5-5.6,5.6c0,4.6,3.2,9.5,5.6,11.9c2.4-2.4,5.6-7.5,5.6-11.9C95.6,7.5,93.1,5,90,5z M90,14.3
		c-1.8,0-3.2-1.4-3.2-3.2c0-1.8,1.4-3.2,3.2-3.2s3.2,1.4,3.2,3.2C93.2,12.9,91.8,14.3,90,14.3z M90,8.9c-1.2,0-2.2,1-2.2,2.2
		c0,1.2,1,2.2,2.2,2.2s2.2-1,2.2-2.2C92.2,9.9,91.2,8.9,90,8.9z"/>
</g>
<g>
	<path class="st0" d="M135.1,22.5H129c-0.9,0.9-1.9,1.8-3,2.6c-1.1-0.8-2.1-1.6-3-2.6h-6.1l-5.1,7.3h28.3L135.1,22.5z"/>
	<path class="st0" d="M141,30.3h-30.2l5.8-8.3h6.6l0.1,0.2c0.8,0.9,1.7,1.7,2.6,2.3c0.9-0.7,1.7-1.4,2.6-2.3l0.1-0.1h6.6L141,30.3z
		 M112.8,29.3h26.4l-4.3-6.3h-5.6c-1,1-2,1.8-2.9,2.5l-0.3,0.2l-0.3-0.2c-1-0.7-2-1.5-2.9-2.5h-5.6L112.8,29.3z"/>
</g>
<g>
	<path class="st0" d="M126,2c-3.3,0-6.1,2.7-6.1,6.1c0,4.7,3.4,10,6.1,12.5c2.6-2.5,6.1-7.9,6.1-12.6C132.1,4.7,129.3,2,126,2z
		 M126,11.3c-1.5,0-2.7-1.2-2.7-2.7s1.2-2.7,2.7-2.7s2.7,1.2,2.7,2.7C128.7,10,127.5,11.3,126,11.3L126,11.3z"/>
	<path class="st0" d="M126,21.3l-0.3-0.3c-3-2.8-6.3-8.3-6.3-12.9c0-3.6,3-6.6,6.6-6.6c3.6,0,6.6,3,6.6,6.5c0,5.1-3.8,10.6-6.3,13
		L126,21.3z M126,2.5c-3.1,0-5.6,2.5-5.6,5.6c0,4.1,2.8,9.1,5.6,11.8c2.3-2.4,5.6-7.4,5.6-11.9C131.6,5,129,2.5,126,2.5z M126,11.8
		c-1.8,0-3.2-1.4-3.2-3.2c0-1.8,1.4-3.2,3.2-3.2s3.2,1.4,3.2,3.2C129.2,10.3,127.7,11.8,126,11.8z M126,6.4c-1.2,0-2.2,1-2.2,2.2
		c0,1.2,1,2.2,2.2,2.2c1.2,0,2.2-1,2.2-2.2C128.2,7.4,127.2,6.4,126,6.4z"/>
</g>
<g>
	<path class="st0" d="M27.3,22h-4.6c-0.2,0.3-0.5,0.7-0.7,1h4.8l4.4,6.3H4.8L9.2,23H14c-0.3-0.3-0.5-0.7-0.7-1H8.7l-5.8,8.3h30.3
		L27.3,22z"/>
</g>
<g>
	<path class="st0" d="M18,23.9l-0.3-0.3c-2.5-2.4-6.3-7.9-6.3-13C11.4,6.9,14.3,4,18,4s6.6,2.9,6.6,6.6c0,5.1-3.8,10.6-6.3,13
		L18,23.9z M18,5c-3.1,0-5.6,2.5-5.6,5.6c0,4.6,3.2,9.4,5.6,11.9c2.3-2.4,5.6-7.4,5.6-11.9C23.6,7.5,21.1,5,18,5z M18,14.3
		c-1.8,0-3.2-1.4-3.2-3.2c0-1.8,1.4-3.2,3.2-3.2s3.2,1.4,3.2,3.2C21.2,12.9,19.8,14.3,18,14.3z M18,8.9c-1.2,0-2.2,1-2.2,2.2
		c0,1.2,1,2.2,2.2,2.2s2.2-1,2.2-2.2C20.2,9.9,19.2,8.9,18,8.9z"/>
</g>
</svg>
