<?xml version="1.0" encoding="utf-8"?>
<!-- Generator: Adobe Illustrator 20.0.0, SVG Export Plug-In . SVG Version: 6.00 Build 0)  -->
<svg version="1.1" id="Layer_1" xmlns="http://www.w3.org/2000/svg" xmlns:xlink="http://www.w3.org/1999/xlink" x="0px" y="0px"
	 viewBox="0 0 72 36" style="enable-background:new 0 0 72 36;" xml:space="preserve">
<style type="text/css">
	.st0{fill:none;stroke:#1E1E1E;stroke-width:0.75;stroke-miterlimit:10;}
	.st1{fill:none;stroke:#EF6732;stroke-width:0.75;stroke-miterlimit:10;}
</style>
<title>icon</title>
<polyline class="st0" points="17.5,8.1 9.5,8.1 9.5,29 26.2,29 26.2,16.8 "/>
<polyline class="st0" points="28.2,11.3 28.2,6.1 23,6.1 "/>
<line class="st0" x1="17.2" y1="17.1" x2="28.2" y2="6.1"/>
<polyline class="st0" points="17.5,8.1 9.5,8.1 9.5,29 26.2,29 26.2,16.8 "/>
<polyline class="st1" points="53.6,8.2 45.6,8.2 45.6,29 62.2,29 62.2,16.8 "/>
<polyline class="st1" points="66.1,9.5 66.1,4.3 60.9,4.3 "/>
<line class="st1" x1="55.1" y1="15.3" x2="66.1" y2="4.3"/>
<polyline class="st1" points="53.6,8.2 45.6,8.2 45.6,29 62.2,29 62.2,16.8 "/>
</svg>
