<?xml version="1.0" encoding="utf-8"?>
<!-- Generator: Adobe Illustrator 20.0.0, SVG Export Plug-In . SVG Version: 6.00 Build 0)  -->
<svg version="1.1" id="Layer_1" xmlns="http://www.w3.org/2000/svg" xmlns:xlink="http://www.w3.org/1999/xlink" x="0px" y="0px"
	 viewBox="0 0 72 36" style="enable-background:new 0 0 72 36;" xml:space="preserve">
<style type="text/css">
	.st0{fill:#1E1E1E;}
</style>
<title>icon</title>
<g>
	<polygon class="st0" points="26.6,29.3 9.1,29.3 9.1,7.7 17.5,7.7 17.5,8.4 9.9,8.4 9.9,28.6 25.8,28.6 25.8,16.8 26.6,16.8 	"/>
</g>
<g>
	<polygon class="st0" points="28.6,11.3 27.8,11.3 27.8,6.5 23,6.5 23,5.7 28.6,5.7 	"/>
</g>
<g>
	
		<rect x="14.9" y="11.2" transform="matrix(0.7071 -0.7071 0.7071 0.7071 -1.5668 19.4304)" class="st0" width="15.6" height="0.7"/>
</g>
<g>
	<polygon class="st0" points="26.6,29.3 9.1,29.3 9.1,7.7 17.5,7.7 17.5,8.4 9.9,8.4 9.9,28.6 25.8,28.6 25.8,16.8 26.6,16.8 	"/>
</g>
<g>
	<polygon points="62.6,29.3 45.2,29.3 45.2,7.8 53.6,7.8 53.6,8.5 46,8.5 46,28.6 61.8,28.6 61.8,16.8 62.6,16.8 	"/>
</g>
<g>
	<polygon points="66.4,9.5 65.7,9.5 65.7,4.7 60.9,4.7 60.9,3.9 66.4,3.9 	"/>
</g>
<g>
	<rect x="52.8" y="9.4" transform="matrix(0.7065 -0.7078 0.7078 0.7065 10.8446 45.7512)" width="15.5" height="0.8"/>
</g>
<g>
	<polygon points="62.6,29.3 45.2,29.3 45.2,7.8 53.6,7.8 53.6,8.5 46,8.5 46,28.6 61.8,28.6 61.8,16.8 62.6,16.8 	"/>
</g>
</svg>
