<?xml version="1.0" encoding="utf-8"?>
<!-- Generator: Adobe Illustrator 20.0.0, SVG Export Plug-In . SVG Version: 6.00 Build 0)  -->
<svg version="1.1" id="Layer_1" xmlns="http://www.w3.org/2000/svg" xmlns:xlink="http://www.w3.org/1999/xlink" x="0px" y="0px"
	 viewBox="0 0 72 36" style="enable-background:new 0 0 72 36;" xml:space="preserve">
<style type="text/css">
	.st0{fill:#5D5D5D;}
</style>
<title>feedback</title>
<g>
	<path class="st0" d="M11.3,30.7v-7H7V7h22v16.7H18.3L11.3,30.7z M8,22.7h4.3v5.6l5.6-5.6H28V8H8V22.7z"/>
</g>
<g>
	<rect x="17.5" y="18.4" class="st0" width="1" height="1"/>
</g>
<g>
	<rect x="17.5" y="10.8" class="st0" width="1" height="6.3"/>
</g>
<g>
	<path class="st0" d="M47.3,30.7v-7H43V7h22v16.7H54.3L47.3,30.7z M44,22.7h4.3v5.6l5.6-5.6H64V8H44V22.7z"/>
</g>
<g>
	<polygon class="st0" points="54.9,17.1 55.7,10.8 52.4,10.8 53.2,17.1 	"/>
</g>
<g>
	<polygon class="st0" points="53.4,18.4 53.5,19.4 54.6,19.4 54.7,18.4 	"/>
</g>
</svg>
