<?xml version="1.0" encoding="utf-8"?>
<!-- Generator: Adobe Illustrator 20.0.0, SVG Export Plug-In . SVG Version: 6.00 Build 0)  -->
<svg version="1.1" id="Layer_1" xmlns="http://www.w3.org/2000/svg" xmlns:xlink="http://www.w3.org/1999/xlink" x="0px" y="0px"
	 viewBox="0 0 75 400" style="enable-background:new 0 0 75 400;" xml:space="preserve">
<style type="text/css">
	.st0{fill:none;stroke:#000000;stroke-miterlimit:10;}
</style>
<rect class="st0" width="10.7" height="10.7"/>
<rect x="10.7" class="st0" width="10.7" height="10.7"/>
<rect x="21.4" class="st0" width="10.7" height="10.7"/>
<rect x="32.1" class="st0" width="10.7" height="10.7"/>
<rect x="42.9" class="st0" width="10.7" height="10.7"/>
<rect x="53.6" class="st0" width="10.7" height="10.7"/>
<rect x="64.3" class="st0" width="10.7" height="10.7"/>
<rect y="10.7" class="st0" width="10.7" height="10.7"/>
<rect x="10.7" y="10.7" class="st0" width="10.7" height="10.7"/>
<rect x="21.4" y="10.7" class="st0" width="10.7" height="10.7"/>
<rect x="32.1" y="10.7" class="st0" width="10.7" height="10.7"/>
<rect x="42.9" y="10.7" class="st0" width="10.7" height="10.7"/>
<rect x="53.6" y="10.7" class="st0" width="10.7" height="10.7"/>
<rect x="64.3" y="10.7" class="st0" width="10.7" height="10.7"/>
<rect y="21.4" class="st0" width="10.7" height="10.7"/>
<rect x="10.7" y="21.4" class="st0" width="10.7" height="10.7"/>
<rect x="21.4" y="21.4" class="st0" width="10.7" height="10.7"/>
<rect x="32.1" y="21.4" class="st0" width="10.7" height="10.7"/>
<rect x="42.9" y="21.4" class="st0" width="10.7" height="10.7"/>
<rect x="53.6" y="21.4" class="st0" width="10.7" height="10.7"/>
<rect x="64.3" y="21.4" class="st0" width="10.7" height="10.7"/>
<rect y="32.1" class="st0" width="10.7" height="10.7"/>
<rect x="10.7" y="32.1" class="st0" width="10.7" height="10.7"/>
<rect x="21.4" y="32.1" class="st0" width="10.7" height="10.7"/>
<rect x="32.1" y="32.1" class="st0" width="10.7" height="10.7"/>
<rect x="42.9" y="32.1" class="st0" width="10.7" height="10.7"/>
<rect x="53.6" y="32.1" class="st0" width="10.7" height="10.7"/>
<rect x="64.3" y="32.1" class="st0" width="10.7" height="10.7"/>
<rect y="42.9" class="st0" width="10.7" height="10.7"/>
<rect x="10.7" y="42.9" class="st0" width="10.7" height="10.7"/>
<rect x="21.4" y="42.9" class="st0" width="10.7" height="10.7"/>
<rect x="32.1" y="42.9" class="st0" width="10.7" height="10.7"/>
<rect x="42.9" y="42.9" class="st0" width="10.7" height="10.7"/>
<rect x="53.6" y="42.9" class="st0" width="10.7" height="10.7"/>
<rect x="64.3" y="42.9" class="st0" width="10.7" height="10.7"/>
<rect y="53.6" class="st0" width="10.7" height="10.7"/>
<rect x="10.7" y="53.6" class="st0" width="10.7" height="10.7"/>
<rect x="21.4" y="53.6" class="st0" width="10.7" height="10.7"/>
<rect x="32.1" y="53.6" class="st0" width="10.7" height="10.7"/>
<rect x="42.9" y="53.6" class="st0" width="10.7" height="10.7"/>
<rect x="53.6" y="53.6" class="st0" width="10.7" height="10.7"/>
<rect x="64.3" y="53.6" class="st0" width="10.7" height="10.7"/>
<rect y="64.3" class="st0" width="10.7" height="10.7"/>
<rect x="10.7" y="64.3" class="st0" width="10.7" height="10.7"/>
<rect x="21.4" y="64.3" class="st0" width="10.7" height="10.7"/>
<rect x="32.1" y="64.3" class="st0" width="10.7" height="10.7"/>
<rect x="42.9" y="64.3" class="st0" width="10.7" height="10.7"/>
<rect x="53.6" y="64.3" class="st0" width="10.7" height="10.7"/>
<rect x="64.3" y="64.3" class="st0" width="10.7" height="10.7"/>
<rect y="75" class="st0" width="10.7" height="10.7"/>
<rect x="10.7" y="75" class="st0" width="10.7" height="10.7"/>
<rect x="21.4" y="75" class="st0" width="10.7" height="10.7"/>
<rect x="32.1" y="75" class="st0" width="10.7" height="10.7"/>
<rect x="42.9" y="75" class="st0" width="10.7" height="10.7"/>
<rect x="53.6" y="75" class="st0" width="10.7" height="10.7"/>
<rect x="64.3" y="75" class="st0" width="10.7" height="10.7"/>
<rect y="85.7" class="st0" width="10.7" height="10.7"/>
<rect x="10.7" y="85.7" class="st0" width="10.7" height="10.7"/>
<rect x="21.4" y="85.7" class="st0" width="10.7" height="10.7"/>
<rect x="32.1" y="85.7" class="st0" width="10.7" height="10.7"/>
<rect x="42.9" y="85.7" class="st0" width="10.7" height="10.7"/>
<rect x="53.6" y="85.7" class="st0" width="10.7" height="10.7"/>
<rect x="64.3" y="85.7" class="st0" width="10.7" height="10.7"/>
<rect y="96.4" class="st0" width="10.7" height="10.7"/>
<rect x="10.7" y="96.4" class="st0" width="10.7" height="10.7"/>
<rect x="21.4" y="96.4" class="st0" width="10.7" height="10.7"/>
<rect x="32.1" y="96.4" class="st0" width="10.7" height="10.7"/>
<rect x="42.9" y="96.4" class="st0" width="10.7" height="10.7"/>
<rect x="53.6" y="96.4" class="st0" width="10.7" height="10.7"/>
<rect x="64.3" y="96.4" class="st0" width="10.7" height="10.7"/>
<rect y="107.1" class="st0" width="10.7" height="10.7"/>
<rect x="10.7" y="107.1" class="st0" width="10.7" height="10.7"/>
<rect x="21.4" y="107.1" class="st0" width="10.7" height="10.7"/>
<rect x="32.1" y="107.1" class="st0" width="10.7" height="10.7"/>
<rect x="42.9" y="107.1" class="st0" width="10.7" height="10.7"/>
<rect x="53.6" y="107.1" class="st0" width="10.7" height="10.7"/>
<rect x="64.3" y="107.1" class="st0" width="10.7" height="10.7"/>
<rect y="117.9" class="st0" width="10.7" height="10.7"/>
<rect x="10.7" y="117.9" class="st0" width="10.7" height="10.7"/>
<rect x="21.4" y="117.9" class="st0" width="10.7" height="10.7"/>
<rect x="32.1" y="117.9" class="st0" width="10.7" height="10.7"/>
<rect x="42.9" y="117.9" class="st0" width="10.7" height="10.7"/>
<rect x="53.6" y="117.9" class="st0" width="10.7" height="10.7"/>
<rect x="64.3" y="117.9" class="st0" width="10.7" height="10.7"/>
<rect y="128.6" class="st0" width="10.7" height="10.7"/>
<rect x="10.7" y="128.6" class="st0" width="10.7" height="10.7"/>
<rect x="21.4" y="128.6" class="st0" width="10.7" height="10.7"/>
<rect x="32.1" y="128.6" class="st0" width="10.7" height="10.7"/>
<rect x="42.9" y="128.6" class="st0" width="10.7" height="10.7"/>
<rect x="53.6" y="128.6" class="st0" width="10.7" height="10.7"/>
<rect x="64.3" y="128.6" class="st0" width="10.7" height="10.7"/>
<rect y="139.3" class="st0" width="10.7" height="10.7"/>
<rect x="10.7" y="139.3" class="st0" width="10.7" height="10.7"/>
<rect x="21.4" y="139.3" class="st0" width="10.7" height="10.7"/>
<rect x="32.1" y="139.3" class="st0" width="10.7" height="10.7"/>
<rect x="42.9" y="139.3" class="st0" width="10.7" height="10.7"/>
<rect x="53.6" y="139.3" class="st0" width="10.7" height="10.7"/>
<rect x="64.3" y="139.3" class="st0" width="10.7" height="10.7"/>
<rect y="150" class="st0" width="10.7" height="10.7"/>
<rect x="10.7" y="150" class="st0" width="10.7" height="10.7"/>
<rect x="21.4" y="150" class="st0" width="10.7" height="10.7"/>
<rect x="32.1" y="150" class="st0" width="10.7" height="10.7"/>
<rect x="42.9" y="150" class="st0" width="10.7" height="10.7"/>
<rect x="53.6" y="150" class="st0" width="10.7" height="10.7"/>
<rect x="64.3" y="150" class="st0" width="10.7" height="10.7"/>
<rect y="160.7" class="st0" width="10.7" height="10.7"/>
<rect x="10.7" y="160.7" class="st0" width="10.7" height="10.7"/>
<rect x="21.4" y="160.7" class="st0" width="10.7" height="10.7"/>
<rect x="32.1" y="160.7" class="st0" width="10.7" height="10.7"/>
<rect x="42.9" y="160.7" class="st0" width="10.7" height="10.7"/>
<rect x="53.6" y="160.7" class="st0" width="10.7" height="10.7"/>
<rect x="64.3" y="160.7" class="st0" width="10.7" height="10.7"/>
<rect y="171.4" class="st0" width="10.7" height="10.7"/>
<rect x="10.7" y="171.4" class="st0" width="10.7" height="10.7"/>
<rect x="21.4" y="171.4" class="st0" width="10.7" height="10.7"/>
<rect x="32.1" y="171.4" class="st0" width="10.7" height="10.7"/>
<rect x="42.9" y="171.4" class="st0" width="10.7" height="10.7"/>
<rect x="53.6" y="171.4" class="st0" width="10.7" height="10.7"/>
<rect x="64.3" y="171.4" class="st0" width="10.7" height="10.7"/>
<rect y="182.1" class="st0" width="10.7" height="10.7"/>
<rect x="10.7" y="182.1" class="st0" width="10.7" height="10.7"/>
<rect x="21.4" y="182.1" class="st0" width="10.7" height="10.7"/>
<rect x="32.1" y="182.1" class="st0" width="10.7" height="10.7"/>
<rect x="42.9" y="182.1" class="st0" width="10.7" height="10.7"/>
<rect x="53.6" y="182.1" class="st0" width="10.7" height="10.7"/>
<rect x="64.3" y="182.1" class="st0" width="10.7" height="10.7"/>
<rect y="192.9" class="st0" width="10.7" height="10.7"/>
<rect x="10.7" y="192.9" class="st0" width="10.7" height="10.7"/>
<rect x="21.4" y="192.9" class="st0" width="10.7" height="10.7"/>
<rect x="32.1" y="192.9" class="st0" width="10.7" height="10.7"/>
<rect x="42.9" y="192.9" class="st0" width="10.7" height="10.7"/>
<rect x="53.6" y="192.9" class="st0" width="10.7" height="10.7"/>
<rect x="64.3" y="192.9" class="st0" width="10.7" height="10.7"/>
<rect y="203.6" class="st0" width="10.7" height="10.7"/>
<rect x="10.7" y="203.6" class="st0" width="10.7" height="10.7"/>
<rect x="21.4" y="203.6" class="st0" width="10.7" height="10.7"/>
<rect x="32.1" y="203.6" class="st0" width="10.7" height="10.7"/>
<rect x="42.9" y="203.6" class="st0" width="10.7" height="10.7"/>
<rect x="53.6" y="203.6" class="st0" width="10.7" height="10.7"/>
<rect x="64.3" y="203.6" class="st0" width="10.7" height="10.7"/>
<rect y="214.3" class="st0" width="10.7" height="10.7"/>
<rect x="10.7" y="214.3" class="st0" width="10.7" height="10.7"/>
<rect x="21.4" y="214.3" class="st0" width="10.7" height="10.7"/>
<rect x="32.1" y="214.3" class="st0" width="10.7" height="10.7"/>
<rect x="42.9" y="214.3" class="st0" width="10.7" height="10.7"/>
<rect x="53.6" y="214.3" class="st0" width="10.7" height="10.7"/>
<rect x="64.3" y="214.3" class="st0" width="10.7" height="10.7"/>
<rect y="225" class="st0" width="10.7" height="10.7"/>
<rect x="10.7" y="225" class="st0" width="10.7" height="10.7"/>
<rect x="21.4" y="225" class="st0" width="10.7" height="10.7"/>
<rect x="32.1" y="225" class="st0" width="10.7" height="10.7"/>
<rect x="42.9" y="225" class="st0" width="10.7" height="10.7"/>
<rect x="53.6" y="225" class="st0" width="10.7" height="10.7"/>
<rect x="64.3" y="225" class="st0" width="10.7" height="10.7"/>
<rect y="235.7" class="st0" width="10.7" height="10.7"/>
<rect x="10.7" y="235.7" class="st0" width="10.7" height="10.7"/>
<rect x="21.4" y="235.7" class="st0" width="10.7" height="10.7"/>
<rect x="32.1" y="235.7" class="st0" width="10.7" height="10.7"/>
<rect x="42.9" y="235.7" class="st0" width="10.7" height="10.7"/>
<rect x="53.6" y="235.7" class="st0" width="10.7" height="10.7"/>
<rect x="64.3" y="235.7" class="st0" width="10.7" height="10.7"/>
<rect y="246.4" class="st0" width="10.7" height="10.7"/>
<rect x="10.7" y="246.4" class="st0" width="10.7" height="10.7"/>
<rect x="21.4" y="246.4" class="st0" width="10.7" height="10.7"/>
<rect x="32.1" y="246.4" class="st0" width="10.7" height="10.7"/>
<rect x="42.9" y="246.4" class="st0" width="10.7" height="10.7"/>
<rect x="53.6" y="246.4" class="st0" width="10.7" height="10.7"/>
<rect x="64.3" y="246.4" class="st0" width="10.7" height="10.7"/>
<rect y="257.1" class="st0" width="10.7" height="10.7"/>
<rect x="10.7" y="257.1" class="st0" width="10.7" height="10.7"/>
<rect x="21.4" y="257.1" class="st0" width="10.7" height="10.7"/>
<rect x="32.1" y="257.1" class="st0" width="10.7" height="10.7"/>
<rect x="42.9" y="257.1" class="st0" width="10.7" height="10.7"/>
<rect x="53.6" y="257.1" class="st0" width="10.7" height="10.7"/>
<rect x="64.3" y="257.1" class="st0" width="10.7" height="10.7"/>
<rect y="267.9" class="st0" width="10.7" height="10.7"/>
<rect x="10.7" y="267.9" class="st0" width="10.7" height="10.7"/>
<rect x="21.4" y="267.9" class="st0" width="10.7" height="10.7"/>
<rect x="32.1" y="267.9" class="st0" width="10.7" height="10.7"/>
<rect x="42.9" y="267.9" class="st0" width="10.7" height="10.7"/>
<rect x="53.6" y="267.9" class="st0" width="10.7" height="10.7"/>
<rect x="64.3" y="267.9" class="st0" width="10.7" height="10.7"/>
<rect y="278.6" class="st0" width="10.7" height="10.7"/>
<rect x="10.7" y="278.6" class="st0" width="10.7" height="10.7"/>
<rect x="21.4" y="278.6" class="st0" width="10.7" height="10.7"/>
<rect x="32.1" y="278.6" class="st0" width="10.7" height="10.7"/>
<rect x="42.9" y="278.6" class="st0" width="10.7" height="10.7"/>
<rect x="53.6" y="278.6" class="st0" width="10.7" height="10.7"/>
<rect x="64.3" y="278.6" class="st0" width="10.7" height="10.7"/>
<rect y="289.3" class="st0" width="10.7" height="10.7"/>
<rect x="10.7" y="289.3" class="st0" width="10.7" height="10.7"/>
<rect x="21.4" y="289.3" class="st0" width="10.7" height="10.7"/>
<rect x="32.1" y="289.3" class="st0" width="10.7" height="10.7"/>
<rect x="42.9" y="289.3" class="st0" width="10.7" height="10.7"/>
<rect x="53.6" y="289.3" class="st0" width="10.7" height="10.7"/>
<rect x="64.3" y="289.3" class="st0" width="10.7" height="10.7"/>
<rect y="300" class="st0" width="10.7" height="10.7"/>
<rect x="10.7" y="300" class="st0" width="10.7" height="10.7"/>
<rect x="21.4" y="300" class="st0" width="10.7" height="10.7"/>
<rect x="32.1" y="300" class="st0" width="10.7" height="10.7"/>
<rect x="42.9" y="300" class="st0" width="10.7" height="10.7"/>
<rect x="53.6" y="300" class="st0" width="10.7" height="10.7"/>
<rect x="64.3" y="300" class="st0" width="10.7" height="10.7"/>
<rect y="310.7" class="st0" width="10.7" height="10.7"/>
<rect x="10.7" y="310.7" class="st0" width="10.7" height="10.7"/>
<rect x="21.4" y="310.7" class="st0" width="10.7" height="10.7"/>
<rect x="32.1" y="310.7" class="st0" width="10.7" height="10.7"/>
<rect x="42.9" y="310.7" class="st0" width="10.7" height="10.7"/>
<rect x="53.6" y="310.7" class="st0" width="10.7" height="10.7"/>
<rect x="64.3" y="310.7" class="st0" width="10.7" height="10.7"/>
<rect y="321.4" class="st0" width="10.7" height="10.7"/>
<rect x="10.7" y="321.4" class="st0" width="10.7" height="10.7"/>
<rect x="21.4" y="321.4" class="st0" width="10.7" height="10.7"/>
<rect x="32.1" y="321.4" class="st0" width="10.7" height="10.7"/>
<rect x="42.9" y="321.4" class="st0" width="10.7" height="10.7"/>
<rect x="53.6" y="321.4" class="st0" width="10.7" height="10.7"/>
<rect x="64.3" y="321.4" class="st0" width="10.7" height="10.7"/>
<rect y="332.1" class="st0" width="10.7" height="10.7"/>
<rect x="10.7" y="332.1" class="st0" width="10.7" height="10.7"/>
<rect x="21.4" y="332.1" class="st0" width="10.7" height="10.7"/>
<rect x="32.1" y="332.1" class="st0" width="10.7" height="10.7"/>
<rect x="42.9" y="332.1" class="st0" width="10.7" height="10.7"/>
<rect x="53.6" y="332.1" class="st0" width="10.7" height="10.7"/>
<rect x="64.3" y="332.1" class="st0" width="10.7" height="10.7"/>
<rect y="342.9" class="st0" width="10.7" height="10.7"/>
<rect x="10.7" y="342.9" class="st0" width="10.7" height="10.7"/>
<rect x="21.4" y="342.9" class="st0" width="10.7" height="10.7"/>
<rect x="32.1" y="342.9" class="st0" width="10.7" height="10.7"/>
<rect x="42.9" y="342.9" class="st0" width="10.7" height="10.7"/>
<rect x="53.6" y="342.9" class="st0" width="10.7" height="10.7"/>
<rect x="64.3" y="342.9" class="st0" width="10.7" height="10.7"/>
<rect y="353.6" class="st0" width="10.7" height="10.7"/>
<rect x="10.7" y="353.6" class="st0" width="10.7" height="10.7"/>
<rect x="21.4" y="353.6" class="st0" width="10.7" height="10.7"/>
<rect x="32.1" y="353.6" class="st0" width="10.7" height="10.7"/>
<rect x="42.9" y="353.6" class="st0" width="10.7" height="10.7"/>
<rect x="53.6" y="353.6" class="st0" width="10.7" height="10.7"/>
<rect x="64.3" y="353.6" class="st0" width="10.7" height="10.7"/>
<rect y="364.3" class="st0" width="10.7" height="10.7"/>
<rect x="10.7" y="364.3" class="st0" width="10.7" height="10.7"/>
<rect x="21.4" y="364.3" class="st0" width="10.7" height="10.7"/>
<rect x="32.1" y="364.3" class="st0" width="10.7" height="10.7"/>
<rect x="42.9" y="364.3" class="st0" width="10.7" height="10.7"/>
<rect x="53.6" y="364.3" class="st0" width="10.7" height="10.7"/>
<rect x="64.3" y="364.3" class="st0" width="10.7" height="10.7"/>
<rect y="375" class="st0" width="10.7" height="10.7"/>
<rect x="10.7" y="375" class="st0" width="10.7" height="10.7"/>
<rect x="21.4" y="375" class="st0" width="10.7" height="10.7"/>
<rect x="32.1" y="375" class="st0" width="10.7" height="10.7"/>
<rect x="42.9" y="375" class="st0" width="10.7" height="10.7"/>
<rect x="53.6" y="375" class="st0" width="10.7" height="10.7"/>
<rect x="64.3" y="375" class="st0" width="10.7" height="10.7"/>
<rect y="385.7" class="st0" width="10.7" height="10.7"/>
<rect x="10.7" y="385.7" class="st0" width="10.7" height="10.7"/>
<rect x="21.4" y="385.7" class="st0" width="10.7" height="10.7"/>
<rect x="32.1" y="385.7" class="st0" width="10.7" height="10.7"/>
<rect x="42.9" y="385.7" class="st0" width="10.7" height="10.7"/>
<rect x="53.6" y="385.7" class="st0" width="10.7" height="10.7"/>
<rect x="64.3" y="385.7" class="st0" width="10.7" height="10.7"/>
<rect y="396.4" class="st0" width="10.7" height="10.7"/>
<rect x="10.7" y="396.4" class="st0" width="10.7" height="10.7"/>
<rect x="21.4" y="396.4" class="st0" width="10.7" height="10.7"/>
<rect x="32.1" y="396.4" class="st0" width="10.7" height="10.7"/>
<rect x="42.9" y="396.4" class="st0" width="10.7" height="10.7"/>
<rect x="53.6" y="396.4" class="st0" width="10.7" height="10.7"/>
<rect x="64.3" y="396.4" class="st0" width="10.7" height="10.7"/>
<rect y="407.1" class="st0" width="10.7" height="10.7"/>
<rect x="10.7" y="407.1" class="st0" width="10.7" height="10.7"/>
<rect x="21.4" y="407.1" class="st0" width="10.7" height="10.7"/>
<rect x="32.1" y="407.1" class="st0" width="10.7" height="10.7"/>
<rect x="42.9" y="407.1" class="st0" width="10.7" height="10.7"/>
<rect x="53.6" y="407.1" class="st0" width="10.7" height="10.7"/>
<rect x="64.3" y="407.1" class="st0" width="10.7" height="10.7"/>
<rect y="417.9" class="st0" width="10.7" height="10.7"/>
<rect x="10.7" y="417.9" class="st0" width="10.7" height="10.7"/>
<rect x="21.4" y="417.9" class="st0" width="10.7" height="10.7"/>
<rect x="32.1" y="417.9" class="st0" width="10.7" height="10.7"/>
<rect x="42.9" y="417.9" class="st0" width="10.7" height="10.7"/>
<rect x="53.6" y="417.9" class="st0" width="10.7" height="10.7"/>
<rect x="64.3" y="417.9" class="st0" width="10.7" height="10.7"/>
<rect y="428.6" class="st0" width="10.7" height="10.7"/>
<rect x="10.7" y="428.6" class="st0" width="10.7" height="10.7"/>
<rect x="21.4" y="428.6" class="st0" width="10.7" height="10.7"/>
<rect x="32.1" y="428.6" class="st0" width="10.7" height="10.7"/>
<rect x="42.9" y="428.6" class="st0" width="10.7" height="10.7"/>
<rect x="53.6" y="428.6" class="st0" width="10.7" height="10.7"/>
<rect x="64.3" y="428.6" class="st0" width="10.7" height="10.7"/>
<rect y="439.3" class="st0" width="10.7" height="10.7"/>
<rect x="10.7" y="439.3" class="st0" width="10.7" height="10.7"/>
<rect x="21.4" y="439.3" class="st0" width="10.7" height="10.7"/>
<rect x="32.1" y="439.3" class="st0" width="10.7" height="10.7"/>
<rect x="42.9" y="439.3" class="st0" width="10.7" height="10.7"/>
<rect x="53.6" y="439.3" class="st0" width="10.7" height="10.7"/>
<rect x="64.3" y="439.3" class="st0" width="10.7" height="10.7"/>
</svg>
