<?xml version="1.0" encoding="utf-8"?>
<!-- Generator: Adobe Illustrator 20.0.0, SVG Export Plug-In . SVG Version: 6.00 Build 0)  -->
<svg version="1.1" id="Layer_1" xmlns="http://www.w3.org/2000/svg" xmlns:xlink="http://www.w3.org/1999/xlink" x="0px" y="0px"
	 viewBox="0 0 75 400" style="enable-background:new 0 0 75 400;" xml:space="preserve">
<style type="text/css">
	.st0{fill:none;stroke:#000000;stroke-miterlimit:10;}
</style>
<g>
	<g>
		<g>
			<polyline class="st0" points="240.5,650 227.5,662.5 240.5,675 			"/>
		</g>
		<g>
			<polyline class="st0" points="231.5,650 218.5,662.5 231.5,675 			"/>
		</g>
		<g>
			<polyline class="st0" points="222.5,650 209.5,662.5 222.5,675 			"/>
		</g>
		<g>
			<polyline class="st0" points="213.5,650 200.5,662.5 213.5,675 			"/>
		</g>
		<g>
			<polyline class="st0" points="204.5,650 191.5,662.5 204.5,675 			"/>
		</g>
		<g>
			<polyline class="st0" points="195.5,650 182.5,662.5 195.5,675 			"/>
		</g>
		<g>
			<polyline class="st0" points="186.5,650 173.5,662.5 186.5,675 			"/>
		</g>
		<g>
			<polyline class="st0" points="177.5,650 164.5,662.5 177.5,675 			"/>
		</g>
		<g>
			<polyline class="st0" points="168.5,650 155.5,662.5 168.5,675 			"/>
		</g>
		<g>
			<polyline class="st0" points="159.5,650 146.5,662.5 159.5,675 			"/>
		</g>
		<g>
			<polyline class="st0" points="150.5,650 137.5,662.5 150.5,675 			"/>
		</g>
		<g>
			<polyline class="st0" points="141.5,650 128.5,662.5 141.5,675 			"/>
		</g>
		<g>
			<polyline class="st0" points="132.5,650 119.5,662.5 132.5,675 			"/>
		</g>
		<g>
			<polyline class="st0" points="123.5,650 110.5,662.5 123.5,675 			"/>
		</g>
		<g>
			<polyline class="st0" points="114.5,650 101.5,662.5 114.5,675 			"/>
		</g>
		<g>
			<polyline class="st0" points="105.5,650 92.5,662.5 105.5,675 			"/>
		</g>
		<g>
			<polyline class="st0" points="96.5,650 83.5,662.5 96.5,675 			"/>
		</g>
		<g>
			<polyline class="st0" points="87.5,650 74.5,662.5 87.5,675 			"/>
		</g>
		<g>
			<polyline class="st0" points="78.5,650 65.5,662.5 78.5,675 			"/>
		</g>
		<g>
			<polyline class="st0" points="69.5,650 56.5,662.5 69.5,675 			"/>
		</g>
		<g>
			<polyline class="st0" points="60.5,650 47.5,662.5 60.5,675 			"/>
		</g>
		<g>
			<polyline class="st0" points="51.5,650 38.5,662.5 51.5,675 			"/>
		</g>
		<g>
			<polyline class="st0" points="42.5,650 29.5,662.5 42.5,675 			"/>
		</g>
		<g>
			<polyline class="st0" points="33.5,650 20.5,662.5 33.5,675 			"/>
		</g>
		<g>
			<polyline class="st0" points="24.5,650 11.5,662.5 24.5,675 			"/>
		</g>
		<g>
			<polyline class="st0" points="15.5,650 2.5,662.5 15.5,675 			"/>
		</g>
		<g>
			<polyline class="st0" points="6.5,650 -6.5,662.5 6.5,675 			"/>
		</g>
	</g>
	<g>
		<g>
			<polyline class="st0" points="240.5,625 227.5,637.5 240.5,650 			"/>
		</g>
		<g>
			<polyline class="st0" points="231.5,625 218.5,637.5 231.5,650 			"/>
		</g>
		<g>
			<polyline class="st0" points="222.5,625 209.5,637.5 222.5,650 			"/>
		</g>
		<g>
			<polyline class="st0" points="213.5,625 200.5,637.5 213.5,650 			"/>
		</g>
		<g>
			<polyline class="st0" points="204.5,625 191.5,637.5 204.5,650 			"/>
		</g>
		<g>
			<polyline class="st0" points="195.5,625 182.5,637.5 195.5,650 			"/>
		</g>
		<g>
			<polyline class="st0" points="186.5,625 173.5,637.5 186.5,650 			"/>
		</g>
		<g>
			<polyline class="st0" points="177.5,625 164.5,637.5 177.5,650 			"/>
		</g>
		<g>
			<polyline class="st0" points="168.5,625 155.5,637.5 168.5,650 			"/>
		</g>
		<g>
			<polyline class="st0" points="159.5,625 146.5,637.5 159.5,650 			"/>
		</g>
		<g>
			<polyline class="st0" points="150.5,625 137.5,637.5 150.5,650 			"/>
		</g>
		<g>
			<polyline class="st0" points="141.5,625 128.5,637.5 141.5,650 			"/>
		</g>
		<g>
			<polyline class="st0" points="132.5,625 119.5,637.5 132.5,650 			"/>
		</g>
		<g>
			<polyline class="st0" points="123.5,625 110.5,637.5 123.5,650 			"/>
		</g>
		<g>
			<polyline class="st0" points="114.5,625 101.5,637.5 114.5,650 			"/>
		</g>
		<g>
			<polyline class="st0" points="105.5,625 92.5,637.5 105.5,650 			"/>
		</g>
		<g>
			<polyline class="st0" points="96.5,625 83.5,637.5 96.5,650 			"/>
		</g>
		<g>
			<polyline class="st0" points="87.5,625 74.5,637.5 87.5,650 			"/>
		</g>
		<g>
			<polyline class="st0" points="78.5,625 65.5,637.5 78.5,650 			"/>
		</g>
		<g>
			<polyline class="st0" points="69.5,625 56.5,637.5 69.5,650 			"/>
		</g>
		<g>
			<polyline class="st0" points="60.5,625 47.5,637.5 60.5,650 			"/>
		</g>
		<g>
			<polyline class="st0" points="51.5,625 38.5,637.5 51.5,650 			"/>
		</g>
		<g>
			<polyline class="st0" points="42.5,625 29.5,637.5 42.5,650 			"/>
		</g>
		<g>
			<polyline class="st0" points="33.5,625 20.5,637.5 33.5,650 			"/>
		</g>
		<g>
			<polyline class="st0" points="24.5,625 11.5,637.5 24.5,650 			"/>
		</g>
		<g>
			<polyline class="st0" points="15.5,625 2.5,637.5 15.5,650 			"/>
		</g>
		<g>
			<polyline class="st0" points="6.5,625 -6.5,637.5 6.5,650 			"/>
		</g>
	</g>
	<g>
		<g>
			<polyline class="st0" points="240.5,600 227.5,612.5 240.5,625 			"/>
		</g>
		<g>
			<polyline class="st0" points="231.5,600 218.5,612.5 231.5,625 			"/>
		</g>
		<g>
			<polyline class="st0" points="222.5,600 209.5,612.5 222.5,625 			"/>
		</g>
		<g>
			<polyline class="st0" points="213.5,600 200.5,612.5 213.5,625 			"/>
		</g>
		<g>
			<polyline class="st0" points="204.5,600 191.5,612.5 204.5,625 			"/>
		</g>
		<g>
			<polyline class="st0" points="195.5,600 182.5,612.5 195.5,625 			"/>
		</g>
		<g>
			<polyline class="st0" points="186.5,600 173.5,612.5 186.5,625 			"/>
		</g>
		<g>
			<polyline class="st0" points="177.5,600 164.5,612.5 177.5,625 			"/>
		</g>
		<g>
			<polyline class="st0" points="168.5,600 155.5,612.5 168.5,625 			"/>
		</g>
		<g>
			<polyline class="st0" points="159.5,600 146.5,612.5 159.5,625 			"/>
		</g>
		<g>
			<polyline class="st0" points="150.5,600 137.5,612.5 150.5,625 			"/>
		</g>
		<g>
			<polyline class="st0" points="141.5,600 128.5,612.5 141.5,625 			"/>
		</g>
		<g>
			<polyline class="st0" points="132.5,600 119.5,612.5 132.5,625 			"/>
		</g>
		<g>
			<polyline class="st0" points="123.5,600 110.5,612.5 123.5,625 			"/>
		</g>
		<g>
			<polyline class="st0" points="114.5,600 101.5,612.5 114.5,625 			"/>
		</g>
		<g>
			<polyline class="st0" points="105.5,600 92.5,612.5 105.5,625 			"/>
		</g>
		<g>
			<polyline class="st0" points="96.5,600 83.5,612.5 96.5,625 			"/>
		</g>
		<g>
			<polyline class="st0" points="87.5,600 74.5,612.5 87.5,625 			"/>
		</g>
		<g>
			<polyline class="st0" points="78.5,600 65.5,612.5 78.5,625 			"/>
		</g>
		<g>
			<polyline class="st0" points="69.5,600 56.5,612.5 69.5,625 			"/>
		</g>
		<g>
			<polyline class="st0" points="60.5,600 47.5,612.5 60.5,625 			"/>
		</g>
		<g>
			<polyline class="st0" points="51.5,600 38.5,612.5 51.5,625 			"/>
		</g>
		<g>
			<polyline class="st0" points="42.5,600 29.5,612.5 42.5,625 			"/>
		</g>
		<g>
			<polyline class="st0" points="33.5,600 20.5,612.5 33.5,625 			"/>
		</g>
		<g>
			<polyline class="st0" points="24.5,600 11.5,612.5 24.5,625 			"/>
		</g>
		<g>
			<polyline class="st0" points="15.5,600 2.5,612.5 15.5,625 			"/>
		</g>
		<g>
			<polyline class="st0" points="6.5,600 -6.5,612.5 6.5,625 			"/>
		</g>
	</g>
	<g>
		<g>
			<polyline class="st0" points="240.5,575 227.5,587.5 240.5,600 			"/>
		</g>
		<g>
			<polyline class="st0" points="231.5,575 218.5,587.5 231.5,600 			"/>
		</g>
		<g>
			<polyline class="st0" points="222.5,575 209.5,587.5 222.5,600 			"/>
		</g>
		<g>
			<polyline class="st0" points="213.5,575 200.5,587.5 213.5,600 			"/>
		</g>
		<g>
			<polyline class="st0" points="204.5,575 191.5,587.5 204.5,600 			"/>
		</g>
		<g>
			<polyline class="st0" points="195.5,575 182.5,587.5 195.5,600 			"/>
		</g>
		<g>
			<polyline class="st0" points="186.5,575 173.5,587.5 186.5,600 			"/>
		</g>
		<g>
			<polyline class="st0" points="177.5,575 164.5,587.5 177.5,600 			"/>
		</g>
		<g>
			<polyline class="st0" points="168.5,575 155.5,587.5 168.5,600 			"/>
		</g>
		<g>
			<polyline class="st0" points="159.5,575 146.5,587.5 159.5,600 			"/>
		</g>
		<g>
			<polyline class="st0" points="150.5,575 137.5,587.5 150.5,600 			"/>
		</g>
		<g>
			<polyline class="st0" points="141.5,575 128.5,587.5 141.5,600 			"/>
		</g>
		<g>
			<polyline class="st0" points="132.5,575 119.5,587.5 132.5,600 			"/>
		</g>
		<g>
			<polyline class="st0" points="123.5,575 110.5,587.5 123.5,600 			"/>
		</g>
		<g>
			<polyline class="st0" points="114.5,575 101.5,587.5 114.5,600 			"/>
		</g>
		<g>
			<polyline class="st0" points="105.5,575 92.5,587.5 105.5,600 			"/>
		</g>
		<g>
			<polyline class="st0" points="96.5,575 83.5,587.5 96.5,600 			"/>
		</g>
		<g>
			<polyline class="st0" points="87.5,575 74.5,587.5 87.5,600 			"/>
		</g>
		<g>
			<polyline class="st0" points="78.5,575 65.5,587.5 78.5,600 			"/>
		</g>
		<g>
			<polyline class="st0" points="69.5,575 56.5,587.5 69.5,600 			"/>
		</g>
		<g>
			<polyline class="st0" points="60.5,575 47.5,587.5 60.5,600 			"/>
		</g>
		<g>
			<polyline class="st0" points="51.5,575 38.5,587.5 51.5,600 			"/>
		</g>
		<g>
			<polyline class="st0" points="42.5,575 29.5,587.5 42.5,600 			"/>
		</g>
		<g>
			<polyline class="st0" points="33.5,575 20.5,587.5 33.5,600 			"/>
		</g>
		<g>
			<polyline class="st0" points="24.5,575 11.5,587.5 24.5,600 			"/>
		</g>
		<g>
			<polyline class="st0" points="15.5,575 2.5,587.5 15.5,600 			"/>
		</g>
		<g>
			<polyline class="st0" points="6.5,575 -6.5,587.5 6.5,600 			"/>
		</g>
	</g>
	<g>
		<g>
			<polyline class="st0" points="240.5,550 227.5,562.5 240.5,575 			"/>
		</g>
		<g>
			<polyline class="st0" points="231.5,550 218.5,562.5 231.5,575 			"/>
		</g>
		<g>
			<polyline class="st0" points="222.5,550 209.5,562.5 222.5,575 			"/>
		</g>
		<g>
			<polyline class="st0" points="213.5,550 200.5,562.5 213.5,575 			"/>
		</g>
		<g>
			<polyline class="st0" points="204.5,550 191.5,562.5 204.5,575 			"/>
		</g>
		<g>
			<polyline class="st0" points="195.5,550 182.5,562.5 195.5,575 			"/>
		</g>
		<g>
			<polyline class="st0" points="186.5,550 173.5,562.5 186.5,575 			"/>
		</g>
		<g>
			<polyline class="st0" points="177.5,550 164.5,562.5 177.5,575 			"/>
		</g>
		<g>
			<polyline class="st0" points="168.5,550 155.5,562.5 168.5,575 			"/>
		</g>
		<g>
			<polyline class="st0" points="159.5,550 146.5,562.5 159.5,575 			"/>
		</g>
		<g>
			<polyline class="st0" points="150.5,550 137.5,562.5 150.5,575 			"/>
		</g>
		<g>
			<polyline class="st0" points="141.5,550 128.5,562.5 141.5,575 			"/>
		</g>
		<g>
			<polyline class="st0" points="132.5,550 119.5,562.5 132.5,575 			"/>
		</g>
		<g>
			<polyline class="st0" points="123.5,550 110.5,562.5 123.5,575 			"/>
		</g>
		<g>
			<polyline class="st0" points="114.5,550 101.5,562.5 114.5,575 			"/>
		</g>
		<g>
			<polyline class="st0" points="105.5,550 92.5,562.5 105.5,575 			"/>
		</g>
		<g>
			<polyline class="st0" points="96.5,550 83.5,562.5 96.5,575 			"/>
		</g>
		<g>
			<polyline class="st0" points="87.5,550 74.5,562.5 87.5,575 			"/>
		</g>
		<g>
			<polyline class="st0" points="78.5,550 65.5,562.5 78.5,575 			"/>
		</g>
		<g>
			<polyline class="st0" points="69.5,550 56.5,562.5 69.5,575 			"/>
		</g>
		<g>
			<polyline class="st0" points="60.5,550 47.5,562.5 60.5,575 			"/>
		</g>
		<g>
			<polyline class="st0" points="51.5,550 38.5,562.5 51.5,575 			"/>
		</g>
		<g>
			<polyline class="st0" points="42.5,550 29.5,562.5 42.5,575 			"/>
		</g>
		<g>
			<polyline class="st0" points="33.5,550 20.5,562.5 33.5,575 			"/>
		</g>
		<g>
			<polyline class="st0" points="24.5,550 11.5,562.5 24.5,575 			"/>
		</g>
		<g>
			<polyline class="st0" points="15.5,550 2.5,562.5 15.5,575 			"/>
		</g>
		<g>
			<polyline class="st0" points="6.5,550 -6.5,562.5 6.5,575 			"/>
		</g>
	</g>
	<g>
		<g>
			<polyline class="st0" points="240.5,525 227.5,537.5 240.5,550 			"/>
		</g>
		<g>
			<polyline class="st0" points="231.5,525 218.5,537.5 231.5,550 			"/>
		</g>
		<g>
			<polyline class="st0" points="222.5,525 209.5,537.5 222.5,550 			"/>
		</g>
		<g>
			<polyline class="st0" points="213.5,525 200.5,537.5 213.5,550 			"/>
		</g>
		<g>
			<polyline class="st0" points="204.5,525 191.5,537.5 204.5,550 			"/>
		</g>
		<g>
			<polyline class="st0" points="195.5,525 182.5,537.5 195.5,550 			"/>
		</g>
		<g>
			<polyline class="st0" points="186.5,525 173.5,537.5 186.5,550 			"/>
		</g>
		<g>
			<polyline class="st0" points="177.5,525 164.5,537.5 177.5,550 			"/>
		</g>
		<g>
			<polyline class="st0" points="168.5,525 155.5,537.5 168.5,550 			"/>
		</g>
		<g>
			<polyline class="st0" points="159.5,525 146.5,537.5 159.5,550 			"/>
		</g>
		<g>
			<polyline class="st0" points="150.5,525 137.5,537.5 150.5,550 			"/>
		</g>
		<g>
			<polyline class="st0" points="141.5,525 128.5,537.5 141.5,550 			"/>
		</g>
		<g>
			<polyline class="st0" points="132.5,525 119.5,537.5 132.5,550 			"/>
		</g>
		<g>
			<polyline class="st0" points="123.5,525 110.5,537.5 123.5,550 			"/>
		</g>
		<g>
			<polyline class="st0" points="114.5,525 101.5,537.5 114.5,550 			"/>
		</g>
		<g>
			<polyline class="st0" points="105.5,525 92.5,537.5 105.5,550 			"/>
		</g>
		<g>
			<polyline class="st0" points="96.5,525 83.5,537.5 96.5,550 			"/>
		</g>
		<g>
			<polyline class="st0" points="87.5,525 74.5,537.5 87.5,550 			"/>
		</g>
		<g>
			<polyline class="st0" points="78.5,525 65.5,537.5 78.5,550 			"/>
		</g>
		<g>
			<polyline class="st0" points="69.5,525 56.5,537.5 69.5,550 			"/>
		</g>
		<g>
			<polyline class="st0" points="60.5,525 47.5,537.5 60.5,550 			"/>
		</g>
		<g>
			<polyline class="st0" points="51.5,525 38.5,537.5 51.5,550 			"/>
		</g>
		<g>
			<polyline class="st0" points="42.5,525 29.5,537.5 42.5,550 			"/>
		</g>
		<g>
			<polyline class="st0" points="33.5,525 20.5,537.5 33.5,550 			"/>
		</g>
		<g>
			<polyline class="st0" points="24.5,525 11.5,537.5 24.5,550 			"/>
		</g>
		<g>
			<polyline class="st0" points="15.5,525 2.5,537.5 15.5,550 			"/>
		</g>
		<g>
			<polyline class="st0" points="6.5,525 -6.5,537.5 6.5,550 			"/>
		</g>
	</g>
	<g>
		<g>
			<polyline class="st0" points="240.5,500 227.5,512.5 240.5,525 			"/>
		</g>
		<g>
			<polyline class="st0" points="231.5,500 218.5,512.5 231.5,525 			"/>
		</g>
		<g>
			<polyline class="st0" points="222.5,500 209.5,512.5 222.5,525 			"/>
		</g>
		<g>
			<polyline class="st0" points="213.5,500 200.5,512.5 213.5,525 			"/>
		</g>
		<g>
			<polyline class="st0" points="204.5,500 191.5,512.5 204.5,525 			"/>
		</g>
		<g>
			<polyline class="st0" points="195.5,500 182.5,512.5 195.5,525 			"/>
		</g>
		<g>
			<polyline class="st0" points="186.5,500 173.5,512.5 186.5,525 			"/>
		</g>
		<g>
			<polyline class="st0" points="177.5,500 164.5,512.5 177.5,525 			"/>
		</g>
		<g>
			<polyline class="st0" points="168.5,500 155.5,512.5 168.5,525 			"/>
		</g>
		<g>
			<polyline class="st0" points="159.5,500 146.5,512.5 159.5,525 			"/>
		</g>
		<g>
			<polyline class="st0" points="150.5,500 137.5,512.5 150.5,525 			"/>
		</g>
		<g>
			<polyline class="st0" points="141.5,500 128.5,512.5 141.5,525 			"/>
		</g>
		<g>
			<polyline class="st0" points="132.5,500 119.5,512.5 132.5,525 			"/>
		</g>
		<g>
			<polyline class="st0" points="123.5,500 110.5,512.5 123.5,525 			"/>
		</g>
		<g>
			<polyline class="st0" points="114.5,500 101.5,512.5 114.5,525 			"/>
		</g>
		<g>
			<polyline class="st0" points="105.5,500 92.5,512.5 105.5,525 			"/>
		</g>
		<g>
			<polyline class="st0" points="96.5,500 83.5,512.5 96.5,525 			"/>
		</g>
		<g>
			<polyline class="st0" points="87.5,500 74.5,512.5 87.5,525 			"/>
		</g>
		<g>
			<polyline class="st0" points="78.5,500 65.5,512.5 78.5,525 			"/>
		</g>
		<g>
			<polyline class="st0" points="69.5,500 56.5,512.5 69.5,525 			"/>
		</g>
		<g>
			<polyline class="st0" points="60.5,500 47.5,512.5 60.5,525 			"/>
		</g>
		<g>
			<polyline class="st0" points="51.5,500 38.5,512.5 51.5,525 			"/>
		</g>
		<g>
			<polyline class="st0" points="42.5,500 29.5,512.5 42.5,525 			"/>
		</g>
		<g>
			<polyline class="st0" points="33.5,500 20.5,512.5 33.5,525 			"/>
		</g>
		<g>
			<polyline class="st0" points="24.5,500 11.5,512.5 24.5,525 			"/>
		</g>
		<g>
			<polyline class="st0" points="15.5,500 2.5,512.5 15.5,525 			"/>
		</g>
		<g>
			<polyline class="st0" points="6.5,500 -6.5,512.5 6.5,525 			"/>
		</g>
	</g>
	<g>
		<g>
			<polyline class="st0" points="240.5,475 227.5,487.5 240.5,500 			"/>
		</g>
		<g>
			<polyline class="st0" points="231.5,475 218.5,487.5 231.5,500 			"/>
		</g>
		<g>
			<polyline class="st0" points="222.5,475 209.5,487.5 222.5,500 			"/>
		</g>
		<g>
			<polyline class="st0" points="213.5,475 200.5,487.5 213.5,500 			"/>
		</g>
		<g>
			<polyline class="st0" points="204.5,475 191.5,487.5 204.5,500 			"/>
		</g>
		<g>
			<polyline class="st0" points="195.5,475 182.5,487.5 195.5,500 			"/>
		</g>
		<g>
			<polyline class="st0" points="186.5,475 173.5,487.5 186.5,500 			"/>
		</g>
		<g>
			<polyline class="st0" points="177.5,475 164.5,487.5 177.5,500 			"/>
		</g>
		<g>
			<polyline class="st0" points="168.5,475 155.5,487.5 168.5,500 			"/>
		</g>
		<g>
			<polyline class="st0" points="159.5,475 146.5,487.5 159.5,500 			"/>
		</g>
		<g>
			<polyline class="st0" points="150.5,475 137.5,487.5 150.5,500 			"/>
		</g>
		<g>
			<polyline class="st0" points="141.5,475 128.5,487.5 141.5,500 			"/>
		</g>
		<g>
			<polyline class="st0" points="132.5,475 119.5,487.5 132.5,500 			"/>
		</g>
		<g>
			<polyline class="st0" points="123.5,475 110.5,487.5 123.5,500 			"/>
		</g>
		<g>
			<polyline class="st0" points="114.5,475 101.5,487.5 114.5,500 			"/>
		</g>
		<g>
			<polyline class="st0" points="105.5,475 92.5,487.5 105.5,500 			"/>
		</g>
		<g>
			<polyline class="st0" points="96.5,475 83.5,487.5 96.5,500 			"/>
		</g>
		<g>
			<polyline class="st0" points="87.5,475 74.5,487.5 87.5,500 			"/>
		</g>
		<g>
			<polyline class="st0" points="78.5,475 65.5,487.5 78.5,500 			"/>
		</g>
		<g>
			<polyline class="st0" points="69.5,475 56.5,487.5 69.5,500 			"/>
		</g>
		<g>
			<polyline class="st0" points="60.5,475 47.5,487.5 60.5,500 			"/>
		</g>
		<g>
			<polyline class="st0" points="51.5,475 38.5,487.5 51.5,500 			"/>
		</g>
		<g>
			<polyline class="st0" points="42.5,475 29.5,487.5 42.5,500 			"/>
		</g>
		<g>
			<polyline class="st0" points="33.5,475 20.5,487.5 33.5,500 			"/>
		</g>
		<g>
			<polyline class="st0" points="24.5,475 11.5,487.5 24.5,500 			"/>
		</g>
		<g>
			<polyline class="st0" points="15.5,475 2.5,487.5 15.5,500 			"/>
		</g>
		<g>
			<polyline class="st0" points="6.5,475 -6.5,487.5 6.5,500 			"/>
		</g>
	</g>
	<g>
		<g>
			<polyline class="st0" points="240.5,450 227.5,462.5 240.5,475 			"/>
		</g>
		<g>
			<polyline class="st0" points="231.5,450 218.5,462.5 231.5,475 			"/>
		</g>
		<g>
			<polyline class="st0" points="222.5,450 209.5,462.5 222.5,475 			"/>
		</g>
		<g>
			<polyline class="st0" points="213.5,450 200.5,462.5 213.5,475 			"/>
		</g>
		<g>
			<polyline class="st0" points="204.5,450 191.5,462.5 204.5,475 			"/>
		</g>
		<g>
			<polyline class="st0" points="195.5,450 182.5,462.5 195.5,475 			"/>
		</g>
		<g>
			<polyline class="st0" points="186.5,450 173.5,462.5 186.5,475 			"/>
		</g>
		<g>
			<polyline class="st0" points="177.5,450 164.5,462.5 177.5,475 			"/>
		</g>
		<g>
			<polyline class="st0" points="168.5,450 155.5,462.5 168.5,475 			"/>
		</g>
		<g>
			<polyline class="st0" points="159.5,450 146.5,462.5 159.5,475 			"/>
		</g>
		<g>
			<polyline class="st0" points="150.5,450 137.5,462.5 150.5,475 			"/>
		</g>
		<g>
			<polyline class="st0" points="141.5,450 128.5,462.5 141.5,475 			"/>
		</g>
		<g>
			<polyline class="st0" points="132.5,450 119.5,462.5 132.5,475 			"/>
		</g>
		<g>
			<polyline class="st0" points="123.5,450 110.5,462.5 123.5,475 			"/>
		</g>
		<g>
			<polyline class="st0" points="114.5,450 101.5,462.5 114.5,475 			"/>
		</g>
		<g>
			<polyline class="st0" points="105.5,450 92.5,462.5 105.5,475 			"/>
		</g>
		<g>
			<polyline class="st0" points="96.5,450 83.5,462.5 96.5,475 			"/>
		</g>
		<g>
			<polyline class="st0" points="87.5,450 74.5,462.5 87.5,475 			"/>
		</g>
		<g>
			<polyline class="st0" points="78.5,450 65.5,462.5 78.5,475 			"/>
		</g>
		<g>
			<polyline class="st0" points="69.5,450 56.5,462.5 69.5,475 			"/>
		</g>
		<g>
			<polyline class="st0" points="60.5,450 47.5,462.5 60.5,475 			"/>
		</g>
		<g>
			<polyline class="st0" points="51.5,450 38.5,462.5 51.5,475 			"/>
		</g>
		<g>
			<polyline class="st0" points="42.5,450 29.5,462.5 42.5,475 			"/>
		</g>
		<g>
			<polyline class="st0" points="33.5,450 20.5,462.5 33.5,475 			"/>
		</g>
		<g>
			<polyline class="st0" points="24.5,450 11.5,462.5 24.5,475 			"/>
		</g>
		<g>
			<polyline class="st0" points="15.5,450 2.5,462.5 15.5,475 			"/>
		</g>
		<g>
			<polyline class="st0" points="6.5,450 -6.5,462.5 6.5,475 			"/>
		</g>
	</g>
	<g>
		<g>
			<polyline class="st0" points="240.5,425 227.5,437.5 240.5,450 			"/>
		</g>
		<g>
			<polyline class="st0" points="231.5,425 218.5,437.5 231.5,450 			"/>
		</g>
		<g>
			<polyline class="st0" points="222.5,425 209.5,437.5 222.5,450 			"/>
		</g>
		<g>
			<polyline class="st0" points="213.5,425 200.5,437.5 213.5,450 			"/>
		</g>
		<g>
			<polyline class="st0" points="204.5,425 191.5,437.5 204.5,450 			"/>
		</g>
		<g>
			<polyline class="st0" points="195.5,425 182.5,437.5 195.5,450 			"/>
		</g>
		<g>
			<polyline class="st0" points="186.5,425 173.5,437.5 186.5,450 			"/>
		</g>
		<g>
			<polyline class="st0" points="177.5,425 164.5,437.5 177.5,450 			"/>
		</g>
		<g>
			<polyline class="st0" points="168.5,425 155.5,437.5 168.5,450 			"/>
		</g>
		<g>
			<polyline class="st0" points="159.5,425 146.5,437.5 159.5,450 			"/>
		</g>
		<g>
			<polyline class="st0" points="150.5,425 137.5,437.5 150.5,450 			"/>
		</g>
		<g>
			<polyline class="st0" points="141.5,425 128.5,437.5 141.5,450 			"/>
		</g>
		<g>
			<polyline class="st0" points="132.5,425 119.5,437.5 132.5,450 			"/>
		</g>
		<g>
			<polyline class="st0" points="123.5,425 110.5,437.5 123.5,450 			"/>
		</g>
		<g>
			<polyline class="st0" points="114.5,425 101.5,437.5 114.5,450 			"/>
		</g>
		<g>
			<polyline class="st0" points="105.5,425 92.5,437.5 105.5,450 			"/>
		</g>
		<g>
			<polyline class="st0" points="96.5,425 83.5,437.5 96.5,450 			"/>
		</g>
		<g>
			<polyline class="st0" points="87.5,425 74.5,437.5 87.5,450 			"/>
		</g>
		<g>
			<polyline class="st0" points="78.5,425 65.5,437.5 78.5,450 			"/>
		</g>
		<g>
			<polyline class="st0" points="69.5,425 56.5,437.5 69.5,450 			"/>
		</g>
		<g>
			<polyline class="st0" points="60.5,425 47.5,437.5 60.5,450 			"/>
		</g>
		<g>
			<polyline class="st0" points="51.5,425 38.5,437.5 51.5,450 			"/>
		</g>
		<g>
			<polyline class="st0" points="42.5,425 29.5,437.5 42.5,450 			"/>
		</g>
		<g>
			<polyline class="st0" points="33.5,425 20.5,437.5 33.5,450 			"/>
		</g>
		<g>
			<polyline class="st0" points="24.5,425 11.5,437.5 24.5,450 			"/>
		</g>
		<g>
			<polyline class="st0" points="15.5,425 2.5,437.5 15.5,450 			"/>
		</g>
		<g>
			<polyline class="st0" points="6.5,425 -6.5,437.5 6.5,450 			"/>
		</g>
	</g>
	<g>
		<g>
			<polyline class="st0" points="240.5,400 227.5,412.5 240.5,425 			"/>
		</g>
		<g>
			<polyline class="st0" points="231.5,400 218.5,412.5 231.5,425 			"/>
		</g>
		<g>
			<polyline class="st0" points="222.5,400 209.5,412.5 222.5,425 			"/>
		</g>
		<g>
			<polyline class="st0" points="213.5,400 200.5,412.5 213.5,425 			"/>
		</g>
		<g>
			<polyline class="st0" points="204.5,400 191.5,412.5 204.5,425 			"/>
		</g>
		<g>
			<polyline class="st0" points="195.5,400 182.5,412.5 195.5,425 			"/>
		</g>
		<g>
			<polyline class="st0" points="186.5,400 173.5,412.5 186.5,425 			"/>
		</g>
		<g>
			<polyline class="st0" points="177.5,400 164.5,412.5 177.5,425 			"/>
		</g>
		<g>
			<polyline class="st0" points="168.5,400 155.5,412.5 168.5,425 			"/>
		</g>
		<g>
			<polyline class="st0" points="159.5,400 146.5,412.5 159.5,425 			"/>
		</g>
		<g>
			<polyline class="st0" points="150.5,400 137.5,412.5 150.5,425 			"/>
		</g>
		<g>
			<polyline class="st0" points="141.5,400 128.5,412.5 141.5,425 			"/>
		</g>
		<g>
			<polyline class="st0" points="132.5,400 119.5,412.5 132.5,425 			"/>
		</g>
		<g>
			<polyline class="st0" points="123.5,400 110.5,412.5 123.5,425 			"/>
		</g>
		<g>
			<polyline class="st0" points="114.5,400 101.5,412.5 114.5,425 			"/>
		</g>
		<g>
			<polyline class="st0" points="105.5,400 92.5,412.5 105.5,425 			"/>
		</g>
		<g>
			<polyline class="st0" points="96.5,400 83.5,412.5 96.5,425 			"/>
		</g>
		<g>
			<polyline class="st0" points="87.5,400 74.5,412.5 87.5,425 			"/>
		</g>
		<g>
			<polyline class="st0" points="78.5,400 65.5,412.5 78.5,425 			"/>
		</g>
		<g>
			<polyline class="st0" points="69.5,400 56.5,412.5 69.5,425 			"/>
		</g>
		<g>
			<polyline class="st0" points="60.5,400 47.5,412.5 60.5,425 			"/>
		</g>
		<g>
			<polyline class="st0" points="51.5,400 38.5,412.5 51.5,425 			"/>
		</g>
		<g>
			<polyline class="st0" points="42.5,400 29.5,412.5 42.5,425 			"/>
		</g>
		<g>
			<polyline class="st0" points="33.5,400 20.5,412.5 33.5,425 			"/>
		</g>
		<g>
			<polyline class="st0" points="24.5,400 11.5,412.5 24.5,425 			"/>
		</g>
		<g>
			<polyline class="st0" points="15.5,400 2.5,412.5 15.5,425 			"/>
		</g>
		<g>
			<polyline class="st0" points="6.5,400 -6.5,412.5 6.5,425 			"/>
		</g>
	</g>
	<g>
		<g>
			<polyline class="st0" points="240.5,375 227.5,387.5 240.5,400 			"/>
		</g>
		<g>
			<polyline class="st0" points="231.5,375 218.5,387.5 231.5,400 			"/>
		</g>
		<g>
			<polyline class="st0" points="222.5,375 209.5,387.5 222.5,400 			"/>
		</g>
		<g>
			<polyline class="st0" points="213.5,375 200.5,387.5 213.5,400 			"/>
		</g>
		<g>
			<polyline class="st0" points="204.5,375 191.5,387.5 204.5,400 			"/>
		</g>
		<g>
			<polyline class="st0" points="195.5,375 182.5,387.5 195.5,400 			"/>
		</g>
		<g>
			<polyline class="st0" points="186.5,375 173.5,387.5 186.5,400 			"/>
		</g>
		<g>
			<polyline class="st0" points="177.5,375 164.5,387.5 177.5,400 			"/>
		</g>
		<g>
			<polyline class="st0" points="168.5,375 155.5,387.5 168.5,400 			"/>
		</g>
		<g>
			<polyline class="st0" points="159.5,375 146.5,387.5 159.5,400 			"/>
		</g>
		<g>
			<polyline class="st0" points="150.5,375 137.5,387.5 150.5,400 			"/>
		</g>
		<g>
			<polyline class="st0" points="141.5,375 128.5,387.5 141.5,400 			"/>
		</g>
		<g>
			<polyline class="st0" points="132.5,375 119.5,387.5 132.5,400 			"/>
		</g>
		<g>
			<polyline class="st0" points="123.5,375 110.5,387.5 123.5,400 			"/>
		</g>
		<g>
			<polyline class="st0" points="114.5,375 101.5,387.5 114.5,400 			"/>
		</g>
		<g>
			<polyline class="st0" points="105.5,375 92.5,387.5 105.5,400 			"/>
		</g>
		<g>
			<polyline class="st0" points="96.5,375 83.5,387.5 96.5,400 			"/>
		</g>
		<g>
			<polyline class="st0" points="87.5,375 74.5,387.5 87.5,400 			"/>
		</g>
		<g>
			<polyline class="st0" points="78.5,375 65.5,387.5 78.5,400 			"/>
		</g>
		<g>
			<polyline class="st0" points="69.5,375 56.5,387.5 69.5,400 			"/>
		</g>
		<g>
			<polyline class="st0" points="60.5,375 47.5,387.5 60.5,400 			"/>
		</g>
		<g>
			<polyline class="st0" points="51.5,375 38.5,387.5 51.5,400 			"/>
		</g>
		<g>
			<polyline class="st0" points="42.5,375 29.5,387.5 42.5,400 			"/>
		</g>
		<g>
			<polyline class="st0" points="33.5,375 20.5,387.5 33.5,400 			"/>
		</g>
		<g>
			<polyline class="st0" points="24.5,375 11.5,387.5 24.5,400 			"/>
		</g>
		<g>
			<polyline class="st0" points="15.5,375 2.5,387.5 15.5,400 			"/>
		</g>
		<g>
			<polyline class="st0" points="6.5,375 -6.5,387.5 6.5,400 			"/>
		</g>
	</g>
	<g>
		<g>
			<polyline class="st0" points="240.5,350 227.5,362.5 240.5,375 			"/>
		</g>
		<g>
			<polyline class="st0" points="231.5,350 218.5,362.5 231.5,375 			"/>
		</g>
		<g>
			<polyline class="st0" points="222.5,350 209.5,362.5 222.5,375 			"/>
		</g>
		<g>
			<polyline class="st0" points="213.5,350 200.5,362.5 213.5,375 			"/>
		</g>
		<g>
			<polyline class="st0" points="204.5,350 191.5,362.5 204.5,375 			"/>
		</g>
		<g>
			<polyline class="st0" points="195.5,350 182.5,362.5 195.5,375 			"/>
		</g>
		<g>
			<polyline class="st0" points="186.5,350 173.5,362.5 186.5,375 			"/>
		</g>
		<g>
			<polyline class="st0" points="177.5,350 164.5,362.5 177.5,375 			"/>
		</g>
		<g>
			<polyline class="st0" points="168.5,350 155.5,362.5 168.5,375 			"/>
		</g>
		<g>
			<polyline class="st0" points="159.5,350 146.5,362.5 159.5,375 			"/>
		</g>
		<g>
			<polyline class="st0" points="150.5,350 137.5,362.5 150.5,375 			"/>
		</g>
		<g>
			<polyline class="st0" points="141.5,350 128.5,362.5 141.5,375 			"/>
		</g>
		<g>
			<polyline class="st0" points="132.5,350 119.5,362.5 132.5,375 			"/>
		</g>
		<g>
			<polyline class="st0" points="123.5,350 110.5,362.5 123.5,375 			"/>
		</g>
		<g>
			<polyline class="st0" points="114.5,350 101.5,362.5 114.5,375 			"/>
		</g>
		<g>
			<polyline class="st0" points="105.5,350 92.5,362.5 105.5,375 			"/>
		</g>
		<g>
			<polyline class="st0" points="96.5,350 83.5,362.5 96.5,375 			"/>
		</g>
		<g>
			<polyline class="st0" points="87.5,350 74.5,362.5 87.5,375 			"/>
		</g>
		<g>
			<polyline class="st0" points="78.5,350 65.5,362.5 78.5,375 			"/>
		</g>
		<g>
			<polyline class="st0" points="69.5,350 56.5,362.5 69.5,375 			"/>
		</g>
		<g>
			<polyline class="st0" points="60.5,350 47.5,362.5 60.5,375 			"/>
		</g>
		<g>
			<polyline class="st0" points="51.5,350 38.5,362.5 51.5,375 			"/>
		</g>
		<g>
			<polyline class="st0" points="42.5,350 29.5,362.5 42.5,375 			"/>
		</g>
		<g>
			<polyline class="st0" points="33.5,350 20.5,362.5 33.5,375 			"/>
		</g>
		<g>
			<polyline class="st0" points="24.5,350 11.5,362.5 24.5,375 			"/>
		</g>
		<g>
			<polyline class="st0" points="15.5,350 2.5,362.5 15.5,375 			"/>
		</g>
		<g>
			<polyline class="st0" points="6.5,350 -6.5,362.5 6.5,375 			"/>
		</g>
	</g>
	<g>
		<g>
			<polyline class="st0" points="240.5,325 227.5,337.5 240.5,350 			"/>
		</g>
		<g>
			<polyline class="st0" points="231.5,325 218.5,337.5 231.5,350 			"/>
		</g>
		<g>
			<polyline class="st0" points="222.5,325 209.5,337.5 222.5,350 			"/>
		</g>
		<g>
			<polyline class="st0" points="213.5,325 200.5,337.5 213.5,350 			"/>
		</g>
		<g>
			<polyline class="st0" points="204.5,325 191.5,337.5 204.5,350 			"/>
		</g>
		<g>
			<polyline class="st0" points="195.5,325 182.5,337.5 195.5,350 			"/>
		</g>
		<g>
			<polyline class="st0" points="186.5,325 173.5,337.5 186.5,350 			"/>
		</g>
		<g>
			<polyline class="st0" points="177.5,325 164.5,337.5 177.5,350 			"/>
		</g>
		<g>
			<polyline class="st0" points="168.5,325 155.5,337.5 168.5,350 			"/>
		</g>
		<g>
			<polyline class="st0" points="159.5,325 146.5,337.5 159.5,350 			"/>
		</g>
		<g>
			<polyline class="st0" points="150.5,325 137.5,337.5 150.5,350 			"/>
		</g>
		<g>
			<polyline class="st0" points="141.5,325 128.5,337.5 141.5,350 			"/>
		</g>
		<g>
			<polyline class="st0" points="132.5,325 119.5,337.5 132.5,350 			"/>
		</g>
		<g>
			<polyline class="st0" points="123.5,325 110.5,337.5 123.5,350 			"/>
		</g>
		<g>
			<polyline class="st0" points="114.5,325 101.5,337.5 114.5,350 			"/>
		</g>
		<g>
			<polyline class="st0" points="105.5,325 92.5,337.5 105.5,350 			"/>
		</g>
		<g>
			<polyline class="st0" points="96.5,325 83.5,337.5 96.5,350 			"/>
		</g>
		<g>
			<polyline class="st0" points="87.5,325 74.5,337.5 87.5,350 			"/>
		</g>
		<g>
			<polyline class="st0" points="78.5,325 65.5,337.5 78.5,350 			"/>
		</g>
		<g>
			<polyline class="st0" points="69.5,325 56.5,337.5 69.5,350 			"/>
		</g>
		<g>
			<polyline class="st0" points="60.5,325 47.5,337.5 60.5,350 			"/>
		</g>
		<g>
			<polyline class="st0" points="51.5,325 38.5,337.5 51.5,350 			"/>
		</g>
		<g>
			<polyline class="st0" points="42.5,325 29.5,337.5 42.5,350 			"/>
		</g>
		<g>
			<polyline class="st0" points="33.5,325 20.5,337.5 33.5,350 			"/>
		</g>
		<g>
			<polyline class="st0" points="24.5,325 11.5,337.5 24.5,350 			"/>
		</g>
		<g>
			<polyline class="st0" points="15.5,325 2.5,337.5 15.5,350 			"/>
		</g>
		<g>
			<polyline class="st0" points="6.5,325 -6.5,337.5 6.5,350 			"/>
		</g>
	</g>
	<g>
		<g>
			<polyline class="st0" points="240.5,300 227.5,312.5 240.5,325 			"/>
		</g>
		<g>
			<polyline class="st0" points="231.5,300 218.5,312.5 231.5,325 			"/>
		</g>
		<g>
			<polyline class="st0" points="222.5,300 209.5,312.5 222.5,325 			"/>
		</g>
		<g>
			<polyline class="st0" points="213.5,300 200.5,312.5 213.5,325 			"/>
		</g>
		<g>
			<polyline class="st0" points="204.5,300 191.5,312.5 204.5,325 			"/>
		</g>
		<g>
			<polyline class="st0" points="195.5,300 182.5,312.5 195.5,325 			"/>
		</g>
		<g>
			<polyline class="st0" points="186.5,300 173.5,312.5 186.5,325 			"/>
		</g>
		<g>
			<polyline class="st0" points="177.5,300 164.5,312.5 177.5,325 			"/>
		</g>
		<g>
			<polyline class="st0" points="168.5,300 155.5,312.5 168.5,325 			"/>
		</g>
		<g>
			<polyline class="st0" points="159.5,300 146.5,312.5 159.5,325 			"/>
		</g>
		<g>
			<polyline class="st0" points="150.5,300 137.5,312.5 150.5,325 			"/>
		</g>
		<g>
			<polyline class="st0" points="141.5,300 128.5,312.5 141.5,325 			"/>
		</g>
		<g>
			<polyline class="st0" points="132.5,300 119.5,312.5 132.5,325 			"/>
		</g>
		<g>
			<polyline class="st0" points="123.5,300 110.5,312.5 123.5,325 			"/>
		</g>
		<g>
			<polyline class="st0" points="114.5,300 101.5,312.5 114.5,325 			"/>
		</g>
		<g>
			<polyline class="st0" points="105.5,300 92.5,312.5 105.5,325 			"/>
		</g>
		<g>
			<polyline class="st0" points="96.5,300 83.5,312.5 96.5,325 			"/>
		</g>
		<g>
			<polyline class="st0" points="87.5,300 74.5,312.5 87.5,325 			"/>
		</g>
		<g>
			<polyline class="st0" points="78.5,300 65.5,312.5 78.5,325 			"/>
		</g>
		<g>
			<polyline class="st0" points="69.5,300 56.5,312.5 69.5,325 			"/>
		</g>
		<g>
			<polyline class="st0" points="60.5,300 47.5,312.5 60.5,325 			"/>
		</g>
		<g>
			<polyline class="st0" points="51.5,300 38.5,312.5 51.5,325 			"/>
		</g>
		<g>
			<polyline class="st0" points="42.5,300 29.5,312.5 42.5,325 			"/>
		</g>
		<g>
			<polyline class="st0" points="33.5,300 20.5,312.5 33.5,325 			"/>
		</g>
		<g>
			<polyline class="st0" points="24.5,300 11.5,312.5 24.5,325 			"/>
		</g>
		<g>
			<polyline class="st0" points="15.5,300 2.5,312.5 15.5,325 			"/>
		</g>
		<g>
			<polyline class="st0" points="6.5,300 -6.5,312.5 6.5,325 			"/>
		</g>
	</g>
	<g>
		<g>
			<polyline class="st0" points="240.5,275 227.5,287.5 240.5,300 			"/>
		</g>
		<g>
			<polyline class="st0" points="231.5,275 218.5,287.5 231.5,300 			"/>
		</g>
		<g>
			<polyline class="st0" points="222.5,275 209.5,287.5 222.5,300 			"/>
		</g>
		<g>
			<polyline class="st0" points="213.5,275 200.5,287.5 213.5,300 			"/>
		</g>
		<g>
			<polyline class="st0" points="204.5,275 191.5,287.5 204.5,300 			"/>
		</g>
		<g>
			<polyline class="st0" points="195.5,275 182.5,287.5 195.5,300 			"/>
		</g>
		<g>
			<polyline class="st0" points="186.5,275 173.5,287.5 186.5,300 			"/>
		</g>
		<g>
			<polyline class="st0" points="177.5,275 164.5,287.5 177.5,300 			"/>
		</g>
		<g>
			<polyline class="st0" points="168.5,275 155.5,287.5 168.5,300 			"/>
		</g>
		<g>
			<polyline class="st0" points="159.5,275 146.5,287.5 159.5,300 			"/>
		</g>
		<g>
			<polyline class="st0" points="150.5,275 137.5,287.5 150.5,300 			"/>
		</g>
		<g>
			<polyline class="st0" points="141.5,275 128.5,287.5 141.5,300 			"/>
		</g>
		<g>
			<polyline class="st0" points="132.5,275 119.5,287.5 132.5,300 			"/>
		</g>
		<g>
			<polyline class="st0" points="123.5,275 110.5,287.5 123.5,300 			"/>
		</g>
		<g>
			<polyline class="st0" points="114.5,275 101.5,287.5 114.5,300 			"/>
		</g>
		<g>
			<polyline class="st0" points="105.5,275 92.5,287.5 105.5,300 			"/>
		</g>
		<g>
			<polyline class="st0" points="96.5,275 83.5,287.5 96.5,300 			"/>
		</g>
		<g>
			<polyline class="st0" points="87.5,275 74.5,287.5 87.5,300 			"/>
		</g>
		<g>
			<polyline class="st0" points="78.5,275 65.5,287.5 78.5,300 			"/>
		</g>
		<g>
			<polyline class="st0" points="69.5,275 56.5,287.5 69.5,300 			"/>
		</g>
		<g>
			<polyline class="st0" points="60.5,275 47.5,287.5 60.5,300 			"/>
		</g>
		<g>
			<polyline class="st0" points="51.5,275 38.5,287.5 51.5,300 			"/>
		</g>
		<g>
			<polyline class="st0" points="42.5,275 29.5,287.5 42.5,300 			"/>
		</g>
		<g>
			<polyline class="st0" points="33.5,275 20.5,287.5 33.5,300 			"/>
		</g>
		<g>
			<polyline class="st0" points="24.5,275 11.5,287.5 24.5,300 			"/>
		</g>
		<g>
			<polyline class="st0" points="15.5,275 2.5,287.5 15.5,300 			"/>
		</g>
		<g>
			<polyline class="st0" points="6.5,275 -6.5,287.5 6.5,300 			"/>
		</g>
	</g>
	<g>
		<g>
			<polyline class="st0" points="240.5,250 227.5,262.5 240.5,275 			"/>
		</g>
		<g>
			<polyline class="st0" points="231.5,250 218.5,262.5 231.5,275 			"/>
		</g>
		<g>
			<polyline class="st0" points="222.5,250 209.5,262.5 222.5,275 			"/>
		</g>
		<g>
			<polyline class="st0" points="213.5,250 200.5,262.5 213.5,275 			"/>
		</g>
		<g>
			<polyline class="st0" points="204.5,250 191.5,262.5 204.5,275 			"/>
		</g>
		<g>
			<polyline class="st0" points="195.5,250 182.5,262.5 195.5,275 			"/>
		</g>
		<g>
			<polyline class="st0" points="186.5,250 173.5,262.5 186.5,275 			"/>
		</g>
		<g>
			<polyline class="st0" points="177.5,250 164.5,262.5 177.5,275 			"/>
		</g>
		<g>
			<polyline class="st0" points="168.5,250 155.5,262.5 168.5,275 			"/>
		</g>
		<g>
			<polyline class="st0" points="159.5,250 146.5,262.5 159.5,275 			"/>
		</g>
		<g>
			<polyline class="st0" points="150.5,250 137.5,262.5 150.5,275 			"/>
		</g>
		<g>
			<polyline class="st0" points="141.5,250 128.5,262.5 141.5,275 			"/>
		</g>
		<g>
			<polyline class="st0" points="132.5,250 119.5,262.5 132.5,275 			"/>
		</g>
		<g>
			<polyline class="st0" points="123.5,250 110.5,262.5 123.5,275 			"/>
		</g>
		<g>
			<polyline class="st0" points="114.5,250 101.5,262.5 114.5,275 			"/>
		</g>
		<g>
			<polyline class="st0" points="105.5,250 92.5,262.5 105.5,275 			"/>
		</g>
		<g>
			<polyline class="st0" points="96.5,250 83.5,262.5 96.5,275 			"/>
		</g>
		<g>
			<polyline class="st0" points="87.5,250 74.5,262.5 87.5,275 			"/>
		</g>
		<g>
			<polyline class="st0" points="78.5,250 65.5,262.5 78.5,275 			"/>
		</g>
		<g>
			<polyline class="st0" points="69.5,250 56.5,262.5 69.5,275 			"/>
		</g>
		<g>
			<polyline class="st0" points="60.5,250 47.5,262.5 60.5,275 			"/>
		</g>
		<g>
			<polyline class="st0" points="51.5,250 38.5,262.5 51.5,275 			"/>
		</g>
		<g>
			<polyline class="st0" points="42.5,250 29.5,262.5 42.5,275 			"/>
		</g>
		<g>
			<polyline class="st0" points="33.5,250 20.5,262.5 33.5,275 			"/>
		</g>
		<g>
			<polyline class="st0" points="24.5,250 11.5,262.5 24.5,275 			"/>
		</g>
		<g>
			<polyline class="st0" points="15.5,250 2.5,262.5 15.5,275 			"/>
		</g>
		<g>
			<polyline class="st0" points="6.5,250 -6.5,262.5 6.5,275 			"/>
		</g>
	</g>
	<g>
		<g>
			<polyline class="st0" points="240.5,225 227.5,237.5 240.5,250 			"/>
		</g>
		<g>
			<polyline class="st0" points="231.5,225 218.5,237.5 231.5,250 			"/>
		</g>
		<g>
			<polyline class="st0" points="222.5,225 209.5,237.5 222.5,250 			"/>
		</g>
		<g>
			<polyline class="st0" points="213.5,225 200.5,237.5 213.5,250 			"/>
		</g>
		<g>
			<polyline class="st0" points="204.5,225 191.5,237.5 204.5,250 			"/>
		</g>
		<g>
			<polyline class="st0" points="195.5,225 182.5,237.5 195.5,250 			"/>
		</g>
		<g>
			<polyline class="st0" points="186.5,225 173.5,237.5 186.5,250 			"/>
		</g>
		<g>
			<polyline class="st0" points="177.5,225 164.5,237.5 177.5,250 			"/>
		</g>
		<g>
			<polyline class="st0" points="168.5,225 155.5,237.5 168.5,250 			"/>
		</g>
		<g>
			<polyline class="st0" points="159.5,225 146.5,237.5 159.5,250 			"/>
		</g>
		<g>
			<polyline class="st0" points="150.5,225 137.5,237.5 150.5,250 			"/>
		</g>
		<g>
			<polyline class="st0" points="141.5,225 128.5,237.5 141.5,250 			"/>
		</g>
		<g>
			<polyline class="st0" points="132.5,225 119.5,237.5 132.5,250 			"/>
		</g>
		<g>
			<polyline class="st0" points="123.5,225 110.5,237.5 123.5,250 			"/>
		</g>
		<g>
			<polyline class="st0" points="114.5,225 101.5,237.5 114.5,250 			"/>
		</g>
		<g>
			<polyline class="st0" points="105.5,225 92.5,237.5 105.5,250 			"/>
		</g>
		<g>
			<polyline class="st0" points="96.5,225 83.5,237.5 96.5,250 			"/>
		</g>
		<g>
			<polyline class="st0" points="87.5,225 74.5,237.5 87.5,250 			"/>
		</g>
		<g>
			<polyline class="st0" points="78.5,225 65.5,237.5 78.5,250 			"/>
		</g>
		<g>
			<polyline class="st0" points="69.5,225 56.5,237.5 69.5,250 			"/>
		</g>
		<g>
			<polyline class="st0" points="60.5,225 47.5,237.5 60.5,250 			"/>
		</g>
		<g>
			<polyline class="st0" points="51.5,225 38.5,237.5 51.5,250 			"/>
		</g>
		<g>
			<polyline class="st0" points="42.5,225 29.5,237.5 42.5,250 			"/>
		</g>
		<g>
			<polyline class="st0" points="33.5,225 20.5,237.5 33.5,250 			"/>
		</g>
		<g>
			<polyline class="st0" points="24.5,225 11.5,237.5 24.5,250 			"/>
		</g>
		<g>
			<polyline class="st0" points="15.5,225 2.5,237.5 15.5,250 			"/>
		</g>
		<g>
			<polyline class="st0" points="6.5,225 -6.5,237.5 6.5,250 			"/>
		</g>
	</g>
	<g>
		<g>
			<polyline class="st0" points="240.5,200 227.5,212.5 240.5,225 			"/>
		</g>
		<g>
			<polyline class="st0" points="231.5,200 218.5,212.5 231.5,225 			"/>
		</g>
		<g>
			<polyline class="st0" points="222.5,200 209.5,212.5 222.5,225 			"/>
		</g>
		<g>
			<polyline class="st0" points="213.5,200 200.5,212.5 213.5,225 			"/>
		</g>
		<g>
			<polyline class="st0" points="204.5,200 191.5,212.5 204.5,225 			"/>
		</g>
		<g>
			<polyline class="st0" points="195.5,200 182.5,212.5 195.5,225 			"/>
		</g>
		<g>
			<polyline class="st0" points="186.5,200 173.5,212.5 186.5,225 			"/>
		</g>
		<g>
			<polyline class="st0" points="177.5,200 164.5,212.5 177.5,225 			"/>
		</g>
		<g>
			<polyline class="st0" points="168.5,200 155.5,212.5 168.5,225 			"/>
		</g>
		<g>
			<polyline class="st0" points="159.5,200 146.5,212.5 159.5,225 			"/>
		</g>
		<g>
			<polyline class="st0" points="150.5,200 137.5,212.5 150.5,225 			"/>
		</g>
		<g>
			<polyline class="st0" points="141.5,200 128.5,212.5 141.5,225 			"/>
		</g>
		<g>
			<polyline class="st0" points="132.5,200 119.5,212.5 132.5,225 			"/>
		</g>
		<g>
			<polyline class="st0" points="123.5,200 110.5,212.5 123.5,225 			"/>
		</g>
		<g>
			<polyline class="st0" points="114.5,200 101.5,212.5 114.5,225 			"/>
		</g>
		<g>
			<polyline class="st0" points="105.5,200 92.5,212.5 105.5,225 			"/>
		</g>
		<g>
			<polyline class="st0" points="96.5,200 83.5,212.5 96.5,225 			"/>
		</g>
		<g>
			<polyline class="st0" points="87.5,200 74.5,212.5 87.5,225 			"/>
		</g>
		<g>
			<polyline class="st0" points="78.5,200 65.5,212.5 78.5,225 			"/>
		</g>
		<g>
			<polyline class="st0" points="69.5,200 56.5,212.5 69.5,225 			"/>
		</g>
		<g>
			<polyline class="st0" points="60.5,200 47.5,212.5 60.5,225 			"/>
		</g>
		<g>
			<polyline class="st0" points="51.5,200 38.5,212.5 51.5,225 			"/>
		</g>
		<g>
			<polyline class="st0" points="42.5,200 29.5,212.5 42.5,225 			"/>
		</g>
		<g>
			<polyline class="st0" points="33.5,200 20.5,212.5 33.5,225 			"/>
		</g>
		<g>
			<polyline class="st0" points="24.5,200 11.5,212.5 24.5,225 			"/>
		</g>
		<g>
			<polyline class="st0" points="15.5,200 2.5,212.5 15.5,225 			"/>
		</g>
		<g>
			<polyline class="st0" points="6.5,200 -6.5,212.5 6.5,225 			"/>
		</g>
	</g>
	<g>
		<g>
			<polyline class="st0" points="240.5,175 227.5,187.5 240.5,200 			"/>
		</g>
		<g>
			<polyline class="st0" points="231.5,175 218.5,187.5 231.5,200 			"/>
		</g>
		<g>
			<polyline class="st0" points="222.5,175 209.5,187.5 222.5,200 			"/>
		</g>
		<g>
			<polyline class="st0" points="213.5,175 200.5,187.5 213.5,200 			"/>
		</g>
		<g>
			<polyline class="st0" points="204.5,175 191.5,187.5 204.5,200 			"/>
		</g>
		<g>
			<polyline class="st0" points="195.5,175 182.5,187.5 195.5,200 			"/>
		</g>
		<g>
			<polyline class="st0" points="186.5,175 173.5,187.5 186.5,200 			"/>
		</g>
		<g>
			<polyline class="st0" points="177.5,175 164.5,187.5 177.5,200 			"/>
		</g>
		<g>
			<polyline class="st0" points="168.5,175 155.5,187.5 168.5,200 			"/>
		</g>
		<g>
			<polyline class="st0" points="159.5,175 146.5,187.5 159.5,200 			"/>
		</g>
		<g>
			<polyline class="st0" points="150.5,175 137.5,187.5 150.5,200 			"/>
		</g>
		<g>
			<polyline class="st0" points="141.5,175 128.5,187.5 141.5,200 			"/>
		</g>
		<g>
			<polyline class="st0" points="132.5,175 119.5,187.5 132.5,200 			"/>
		</g>
		<g>
			<polyline class="st0" points="123.5,175 110.5,187.5 123.5,200 			"/>
		</g>
		<g>
			<polyline class="st0" points="114.5,175 101.5,187.5 114.5,200 			"/>
		</g>
		<g>
			<polyline class="st0" points="105.5,175 92.5,187.5 105.5,200 			"/>
		</g>
		<g>
			<polyline class="st0" points="96.5,175 83.5,187.5 96.5,200 			"/>
		</g>
		<g>
			<polyline class="st0" points="87.5,175 74.5,187.5 87.5,200 			"/>
		</g>
		<g>
			<polyline class="st0" points="78.5,175 65.5,187.5 78.5,200 			"/>
		</g>
		<g>
			<polyline class="st0" points="69.5,175 56.5,187.5 69.5,200 			"/>
		</g>
		<g>
			<polyline class="st0" points="60.5,175 47.5,187.5 60.5,200 			"/>
		</g>
		<g>
			<polyline class="st0" points="51.5,175 38.5,187.5 51.5,200 			"/>
		</g>
		<g>
			<polyline class="st0" points="42.5,175 29.5,187.5 42.5,200 			"/>
		</g>
		<g>
			<polyline class="st0" points="33.5,175 20.5,187.5 33.5,200 			"/>
		</g>
		<g>
			<polyline class="st0" points="24.5,175 11.5,187.5 24.5,200 			"/>
		</g>
		<g>
			<polyline class="st0" points="15.5,175 2.5,187.5 15.5,200 			"/>
		</g>
		<g>
			<polyline class="st0" points="6.5,175 -6.5,187.5 6.5,200 			"/>
		</g>
	</g>
	<g>
		<g>
			<polyline class="st0" points="240.5,150 227.5,162.5 240.5,175 			"/>
		</g>
		<g>
			<polyline class="st0" points="231.5,150 218.5,162.5 231.5,175 			"/>
		</g>
		<g>
			<polyline class="st0" points="222.5,150 209.5,162.5 222.5,175 			"/>
		</g>
		<g>
			<polyline class="st0" points="213.5,150 200.5,162.5 213.5,175 			"/>
		</g>
		<g>
			<polyline class="st0" points="204.5,150 191.5,162.5 204.5,175 			"/>
		</g>
		<g>
			<polyline class="st0" points="195.5,150 182.5,162.5 195.5,175 			"/>
		</g>
		<g>
			<polyline class="st0" points="186.5,150 173.5,162.5 186.5,175 			"/>
		</g>
		<g>
			<polyline class="st0" points="177.5,150 164.5,162.5 177.5,175 			"/>
		</g>
		<g>
			<polyline class="st0" points="168.5,150 155.5,162.5 168.5,175 			"/>
		</g>
		<g>
			<polyline class="st0" points="159.5,150 146.5,162.5 159.5,175 			"/>
		</g>
		<g>
			<polyline class="st0" points="150.5,150 137.5,162.5 150.5,175 			"/>
		</g>
		<g>
			<polyline class="st0" points="141.5,150 128.5,162.5 141.5,175 			"/>
		</g>
		<g>
			<polyline class="st0" points="132.5,150 119.5,162.5 132.5,175 			"/>
		</g>
		<g>
			<polyline class="st0" points="123.5,150 110.5,162.5 123.5,175 			"/>
		</g>
		<g>
			<polyline class="st0" points="114.5,150 101.5,162.5 114.5,175 			"/>
		</g>
		<g>
			<polyline class="st0" points="105.5,150 92.5,162.5 105.5,175 			"/>
		</g>
		<g>
			<polyline class="st0" points="96.5,150 83.5,162.5 96.5,175 			"/>
		</g>
		<g>
			<polyline class="st0" points="87.5,150 74.5,162.5 87.5,175 			"/>
		</g>
		<g>
			<polyline class="st0" points="78.5,150 65.5,162.5 78.5,175 			"/>
		</g>
		<g>
			<polyline class="st0" points="69.5,150 56.5,162.5 69.5,175 			"/>
		</g>
		<g>
			<polyline class="st0" points="60.5,150 47.5,162.5 60.5,175 			"/>
		</g>
		<g>
			<polyline class="st0" points="51.5,150 38.5,162.5 51.5,175 			"/>
		</g>
		<g>
			<polyline class="st0" points="42.5,150 29.5,162.5 42.5,175 			"/>
		</g>
		<g>
			<polyline class="st0" points="33.5,150 20.5,162.5 33.5,175 			"/>
		</g>
		<g>
			<polyline class="st0" points="24.5,150 11.5,162.5 24.5,175 			"/>
		</g>
		<g>
			<polyline class="st0" points="15.5,150 2.5,162.5 15.5,175 			"/>
		</g>
		<g>
			<polyline class="st0" points="6.5,150 -6.5,162.5 6.5,175 			"/>
		</g>
	</g>
	<g>
		<g>
			<polyline class="st0" points="240.5,125 227.5,137.5 240.5,150 			"/>
		</g>
		<g>
			<polyline class="st0" points="231.5,125 218.5,137.5 231.5,150 			"/>
		</g>
		<g>
			<polyline class="st0" points="222.5,125 209.5,137.5 222.5,150 			"/>
		</g>
		<g>
			<polyline class="st0" points="213.5,125 200.5,137.5 213.5,150 			"/>
		</g>
		<g>
			<polyline class="st0" points="204.5,125 191.5,137.5 204.5,150 			"/>
		</g>
		<g>
			<polyline class="st0" points="195.5,125 182.5,137.5 195.5,150 			"/>
		</g>
		<g>
			<polyline class="st0" points="186.5,125 173.5,137.5 186.5,150 			"/>
		</g>
		<g>
			<polyline class="st0" points="177.5,125 164.5,137.5 177.5,150 			"/>
		</g>
		<g>
			<polyline class="st0" points="168.5,125 155.5,137.5 168.5,150 			"/>
		</g>
		<g>
			<polyline class="st0" points="159.5,125 146.5,137.5 159.5,150 			"/>
		</g>
		<g>
			<polyline class="st0" points="150.5,125 137.5,137.5 150.5,150 			"/>
		</g>
		<g>
			<polyline class="st0" points="141.5,125 128.5,137.5 141.5,150 			"/>
		</g>
		<g>
			<polyline class="st0" points="132.5,125 119.5,137.5 132.5,150 			"/>
		</g>
		<g>
			<polyline class="st0" points="123.5,125 110.5,137.5 123.5,150 			"/>
		</g>
		<g>
			<polyline class="st0" points="114.5,125 101.5,137.5 114.5,150 			"/>
		</g>
		<g>
			<polyline class="st0" points="105.5,125 92.5,137.5 105.5,150 			"/>
		</g>
		<g>
			<polyline class="st0" points="96.5,125 83.5,137.5 96.5,150 			"/>
		</g>
		<g>
			<polyline class="st0" points="87.5,125 74.5,137.5 87.5,150 			"/>
		</g>
		<g>
			<polyline class="st0" points="78.5,125 65.5,137.5 78.5,150 			"/>
		</g>
		<g>
			<polyline class="st0" points="69.5,125 56.5,137.5 69.5,150 			"/>
		</g>
		<g>
			<polyline class="st0" points="60.5,125 47.5,137.5 60.5,150 			"/>
		</g>
		<g>
			<polyline class="st0" points="51.5,125 38.5,137.5 51.5,150 			"/>
		</g>
		<g>
			<polyline class="st0" points="42.5,125 29.5,137.5 42.5,150 			"/>
		</g>
		<g>
			<polyline class="st0" points="33.5,125 20.5,137.5 33.5,150 			"/>
		</g>
		<g>
			<polyline class="st0" points="24.5,125 11.5,137.5 24.5,150 			"/>
		</g>
		<g>
			<polyline class="st0" points="15.5,125 2.5,137.5 15.5,150 			"/>
		</g>
		<g>
			<polyline class="st0" points="6.5,125 -6.5,137.5 6.5,150 			"/>
		</g>
	</g>
	<g>
		<g>
			<polyline class="st0" points="240.5,100 227.5,112.5 240.5,125 			"/>
		</g>
		<g>
			<polyline class="st0" points="231.5,100 218.5,112.5 231.5,125 			"/>
		</g>
		<g>
			<polyline class="st0" points="222.5,100 209.5,112.5 222.5,125 			"/>
		</g>
		<g>
			<polyline class="st0" points="213.5,100 200.5,112.5 213.5,125 			"/>
		</g>
		<g>
			<polyline class="st0" points="204.5,100 191.5,112.5 204.5,125 			"/>
		</g>
		<g>
			<polyline class="st0" points="195.5,100 182.5,112.5 195.5,125 			"/>
		</g>
		<g>
			<polyline class="st0" points="186.5,100 173.5,112.5 186.5,125 			"/>
		</g>
		<g>
			<polyline class="st0" points="177.5,100 164.5,112.5 177.5,125 			"/>
		</g>
		<g>
			<polyline class="st0" points="168.5,100 155.5,112.5 168.5,125 			"/>
		</g>
		<g>
			<polyline class="st0" points="159.5,100 146.5,112.5 159.5,125 			"/>
		</g>
		<g>
			<polyline class="st0" points="150.5,100 137.5,112.5 150.5,125 			"/>
		</g>
		<g>
			<polyline class="st0" points="141.5,100 128.5,112.5 141.5,125 			"/>
		</g>
		<g>
			<polyline class="st0" points="132.5,100 119.5,112.5 132.5,125 			"/>
		</g>
		<g>
			<polyline class="st0" points="123.5,100 110.5,112.5 123.5,125 			"/>
		</g>
		<g>
			<polyline class="st0" points="114.5,100 101.5,112.5 114.5,125 			"/>
		</g>
		<g>
			<polyline class="st0" points="105.5,100 92.5,112.5 105.5,125 			"/>
		</g>
		<g>
			<polyline class="st0" points="96.5,100 83.5,112.5 96.5,125 			"/>
		</g>
		<g>
			<polyline class="st0" points="87.5,100 74.5,112.5 87.5,125 			"/>
		</g>
		<g>
			<polyline class="st0" points="78.5,100 65.5,112.5 78.5,125 			"/>
		</g>
		<g>
			<polyline class="st0" points="69.5,100 56.5,112.5 69.5,125 			"/>
		</g>
		<g>
			<polyline class="st0" points="60.5,100 47.5,112.5 60.5,125 			"/>
		</g>
		<g>
			<polyline class="st0" points="51.5,100 38.5,112.5 51.5,125 			"/>
		</g>
		<g>
			<polyline class="st0" points="42.5,100 29.5,112.5 42.5,125 			"/>
		</g>
		<g>
			<polyline class="st0" points="33.5,100 20.5,112.5 33.5,125 			"/>
		</g>
		<g>
			<polyline class="st0" points="24.5,100 11.5,112.5 24.5,125 			"/>
		</g>
		<g>
			<polyline class="st0" points="15.5,100 2.5,112.5 15.5,125 			"/>
		</g>
		<g>
			<polyline class="st0" points="6.5,100 -6.5,112.5 6.5,125 			"/>
		</g>
	</g>
	<g>
		<g>
			<polyline class="st0" points="240.5,75 227.5,87.5 240.5,100 			"/>
		</g>
		<g>
			<polyline class="st0" points="231.5,75 218.5,87.5 231.5,100 			"/>
		</g>
		<g>
			<polyline class="st0" points="222.5,75 209.5,87.5 222.5,100 			"/>
		</g>
		<g>
			<polyline class="st0" points="213.5,75 200.5,87.5 213.5,100 			"/>
		</g>
		<g>
			<polyline class="st0" points="204.5,75 191.5,87.5 204.5,100 			"/>
		</g>
		<g>
			<polyline class="st0" points="195.5,75 182.5,87.5 195.5,100 			"/>
		</g>
		<g>
			<polyline class="st0" points="186.5,75 173.5,87.5 186.5,100 			"/>
		</g>
		<g>
			<polyline class="st0" points="177.5,75 164.5,87.5 177.5,100 			"/>
		</g>
		<g>
			<polyline class="st0" points="168.5,75 155.5,87.5 168.5,100 			"/>
		</g>
		<g>
			<polyline class="st0" points="159.5,75 146.5,87.5 159.5,100 			"/>
		</g>
		<g>
			<polyline class="st0" points="150.5,75 137.5,87.5 150.5,100 			"/>
		</g>
		<g>
			<polyline class="st0" points="141.5,75 128.5,87.5 141.5,100 			"/>
		</g>
		<g>
			<polyline class="st0" points="132.5,75 119.5,87.5 132.5,100 			"/>
		</g>
		<g>
			<polyline class="st0" points="123.5,75 110.5,87.5 123.5,100 			"/>
		</g>
		<g>
			<polyline class="st0" points="114.5,75 101.5,87.5 114.5,100 			"/>
		</g>
		<g>
			<polyline class="st0" points="105.5,75 92.5,87.5 105.5,100 			"/>
		</g>
		<g>
			<polyline class="st0" points="96.5,75 83.5,87.5 96.5,100 			"/>
		</g>
		<g>
			<polyline class="st0" points="87.5,75 74.5,87.5 87.5,100 			"/>
		</g>
		<g>
			<polyline class="st0" points="78.5,75 65.5,87.5 78.5,100 			"/>
		</g>
		<g>
			<polyline class="st0" points="69.5,75 56.5,87.5 69.5,100 			"/>
		</g>
		<g>
			<polyline class="st0" points="60.5,75 47.5,87.5 60.5,100 			"/>
		</g>
		<g>
			<polyline class="st0" points="51.5,75 38.5,87.5 51.5,100 			"/>
		</g>
		<g>
			<polyline class="st0" points="42.5,75 29.5,87.5 42.5,100 			"/>
		</g>
		<g>
			<polyline class="st0" points="33.5,75 20.5,87.5 33.5,100 			"/>
		</g>
		<g>
			<polyline class="st0" points="24.5,75 11.5,87.5 24.5,100 			"/>
		</g>
		<g>
			<polyline class="st0" points="15.5,75 2.5,87.5 15.5,100 			"/>
		</g>
		<g>
			<polyline class="st0" points="6.5,75 -6.5,87.5 6.5,100 			"/>
		</g>
	</g>
	<g>
		<g>
			<polyline class="st0" points="240.5,50 227.5,62.5 240.5,75 			"/>
		</g>
		<g>
			<polyline class="st0" points="231.5,50 218.5,62.5 231.5,75 			"/>
		</g>
		<g>
			<polyline class="st0" points="222.5,50 209.5,62.5 222.5,75 			"/>
		</g>
		<g>
			<polyline class="st0" points="213.5,50 200.5,62.5 213.5,75 			"/>
		</g>
		<g>
			<polyline class="st0" points="204.5,50 191.5,62.5 204.5,75 			"/>
		</g>
		<g>
			<polyline class="st0" points="195.5,50 182.5,62.5 195.5,75 			"/>
		</g>
		<g>
			<polyline class="st0" points="186.5,50 173.5,62.5 186.5,75 			"/>
		</g>
		<g>
			<polyline class="st0" points="177.5,50 164.5,62.5 177.5,75 			"/>
		</g>
		<g>
			<polyline class="st0" points="168.5,50 155.5,62.5 168.5,75 			"/>
		</g>
		<g>
			<polyline class="st0" points="159.5,50 146.5,62.5 159.5,75 			"/>
		</g>
		<g>
			<polyline class="st0" points="150.5,50 137.5,62.5 150.5,75 			"/>
		</g>
		<g>
			<polyline class="st0" points="141.5,50 128.5,62.5 141.5,75 			"/>
		</g>
		<g>
			<polyline class="st0" points="132.5,50 119.5,62.5 132.5,75 			"/>
		</g>
		<g>
			<polyline class="st0" points="123.5,50 110.5,62.5 123.5,75 			"/>
		</g>
		<g>
			<polyline class="st0" points="114.5,50 101.5,62.5 114.5,75 			"/>
		</g>
		<g>
			<polyline class="st0" points="105.5,50 92.5,62.5 105.5,75 			"/>
		</g>
		<g>
			<polyline class="st0" points="96.5,50 83.5,62.5 96.5,75 			"/>
		</g>
		<g>
			<polyline class="st0" points="87.5,50 74.5,62.5 87.5,75 			"/>
		</g>
		<g>
			<polyline class="st0" points="78.5,50 65.5,62.5 78.5,75 			"/>
		</g>
		<g>
			<polyline class="st0" points="69.5,50 56.5,62.5 69.5,75 			"/>
		</g>
		<g>
			<polyline class="st0" points="60.5,50 47.5,62.5 60.5,75 			"/>
		</g>
		<g>
			<polyline class="st0" points="51.5,50 38.5,62.5 51.5,75 			"/>
		</g>
		<g>
			<polyline class="st0" points="42.5,50 29.5,62.5 42.5,75 			"/>
		</g>
		<g>
			<polyline class="st0" points="33.5,50 20.5,62.5 33.5,75 			"/>
		</g>
		<g>
			<polyline class="st0" points="24.5,50 11.5,62.5 24.5,75 			"/>
		</g>
		<g>
			<polyline class="st0" points="15.5,50 2.5,62.5 15.5,75 			"/>
		</g>
		<g>
			<polyline class="st0" points="6.5,50 -6.5,62.5 6.5,75 			"/>
		</g>
	</g>
	<g>
		<g>
			<polyline class="st0" points="240.5,25 227.5,37.5 240.5,50 			"/>
		</g>
		<g>
			<polyline class="st0" points="231.5,25 218.5,37.5 231.5,50 			"/>
		</g>
		<g>
			<polyline class="st0" points="222.5,25 209.5,37.5 222.5,50 			"/>
		</g>
		<g>
			<polyline class="st0" points="213.5,25 200.5,37.5 213.5,50 			"/>
		</g>
		<g>
			<polyline class="st0" points="204.5,25 191.5,37.5 204.5,50 			"/>
		</g>
		<g>
			<polyline class="st0" points="195.5,25 182.5,37.5 195.5,50 			"/>
		</g>
		<g>
			<polyline class="st0" points="186.5,25 173.5,37.5 186.5,50 			"/>
		</g>
		<g>
			<polyline class="st0" points="177.5,25 164.5,37.5 177.5,50 			"/>
		</g>
		<g>
			<polyline class="st0" points="168.5,25 155.5,37.5 168.5,50 			"/>
		</g>
		<g>
			<polyline class="st0" points="159.5,25 146.5,37.5 159.5,50 			"/>
		</g>
		<g>
			<polyline class="st0" points="150.5,25 137.5,37.5 150.5,50 			"/>
		</g>
		<g>
			<polyline class="st0" points="141.5,25 128.5,37.5 141.5,50 			"/>
		</g>
		<g>
			<polyline class="st0" points="132.5,25 119.5,37.5 132.5,50 			"/>
		</g>
		<g>
			<polyline class="st0" points="123.5,25 110.5,37.5 123.5,50 			"/>
		</g>
		<g>
			<polyline class="st0" points="114.5,25 101.5,37.5 114.5,50 			"/>
		</g>
		<g>
			<polyline class="st0" points="105.5,25 92.5,37.5 105.5,50 			"/>
		</g>
		<g>
			<polyline class="st0" points="96.5,25 83.5,37.5 96.5,50 			"/>
		</g>
		<g>
			<polyline class="st0" points="87.5,25 74.5,37.5 87.5,50 			"/>
		</g>
		<g>
			<polyline class="st0" points="78.5,25 65.5,37.5 78.5,50 			"/>
		</g>
		<g>
			<polyline class="st0" points="69.5,25 56.5,37.5 69.5,50 			"/>
		</g>
		<g>
			<polyline class="st0" points="60.5,25 47.5,37.5 60.5,50 			"/>
		</g>
		<g>
			<polyline class="st0" points="51.5,25 38.5,37.5 51.5,50 			"/>
		</g>
		<g>
			<polyline class="st0" points="42.5,25 29.5,37.5 42.5,50 			"/>
		</g>
		<g>
			<polyline class="st0" points="33.5,25 20.5,37.5 33.5,50 			"/>
		</g>
		<g>
			<polyline class="st0" points="24.5,25 11.5,37.5 24.5,50 			"/>
		</g>
		<g>
			<polyline class="st0" points="15.5,25 2.5,37.5 15.5,50 			"/>
		</g>
		<g>
			<polyline class="st0" points="6.5,25 -6.5,37.5 6.5,50 			"/>
		</g>
	</g>
	<g>
		<g>
			<polyline class="st0" points="240.5,0 227.5,12.5 240.5,25 			"/>
		</g>
		<g>
			<polyline class="st0" points="231.5,0 218.5,12.5 231.5,25 			"/>
		</g>
		<g>
			<polyline class="st0" points="222.5,0 209.5,12.5 222.5,25 			"/>
		</g>
		<g>
			<polyline class="st0" points="213.5,0 200.5,12.5 213.5,25 			"/>
		</g>
		<g>
			<polyline class="st0" points="204.5,0 191.5,12.5 204.5,25 			"/>
		</g>
		<g>
			<polyline class="st0" points="195.5,0 182.5,12.5 195.5,25 			"/>
		</g>
		<g>
			<polyline class="st0" points="186.5,0 173.5,12.5 186.5,25 			"/>
		</g>
		<g>
			<polyline class="st0" points="177.5,0 164.5,12.5 177.5,25 			"/>
		</g>
		<g>
			<polyline class="st0" points="168.5,0 155.5,12.5 168.5,25 			"/>
		</g>
		<g>
			<polyline class="st0" points="159.5,0 146.5,12.5 159.5,25 			"/>
		</g>
		<g>
			<polyline class="st0" points="150.5,0 137.5,12.5 150.5,25 			"/>
		</g>
		<g>
			<polyline class="st0" points="141.5,0 128.5,12.5 141.5,25 			"/>
		</g>
		<g>
			<polyline class="st0" points="132.5,0 119.5,12.5 132.5,25 			"/>
		</g>
		<g>
			<polyline class="st0" points="123.5,0 110.5,12.5 123.5,25 			"/>
		</g>
		<g>
			<polyline class="st0" points="114.5,0 101.5,12.5 114.5,25 			"/>
		</g>
		<g>
			<polyline class="st0" points="105.5,0 92.5,12.5 105.5,25 			"/>
		</g>
		<g>
			<polyline class="st0" points="96.5,0 83.5,12.5 96.5,25 			"/>
		</g>
		<g>
			<polyline class="st0" points="87.5,0 74.5,12.5 87.5,25 			"/>
		</g>
		<g>
			<polyline class="st0" points="78.5,0 65.5,12.5 78.5,25 			"/>
		</g>
		<g>
			<polyline class="st0" points="69.5,0 56.5,12.5 69.5,25 			"/>
		</g>
		<g>
			<polyline class="st0" points="60.5,0 47.5,12.5 60.5,25 			"/>
		</g>
		<g>
			<polyline class="st0" points="51.5,0 38.5,12.5 51.5,25 			"/>
		</g>
		<g>
			<polyline class="st0" points="42.5,0 29.5,12.5 42.5,25 			"/>
		</g>
		<g>
			<polyline class="st0" points="33.5,0 20.5,12.5 33.5,25 			"/>
		</g>
		<g>
			<polyline class="st0" points="24.5,0 11.5,12.5 24.5,25 			"/>
		</g>
		<g>
			<polyline class="st0" points="15.5,0 2.5,12.5 15.5,25 			"/>
		</g>
		<g>
			<polyline class="st0" points="6.5,0 -6.5,12.5 6.5,25 			"/>
		</g>
	</g>
</g>
</svg>
