<?xml version="1.0" encoding="utf-8"?>
<!-- Generator: Adobe Illustrator 22.0.1, SVG Export Plug-In . SVG Version: 6.00 Build 0)  -->
<svg version="1.1" id="Layer_1" xmlns="http://www.w3.org/2000/svg" xmlns:xlink="http://www.w3.org/1999/xlink" x="0px" y="0px"
	 viewBox="0 0 75 400" style="enable-background:new 0 0 75 400;" xml:space="preserve">
<style type="text/css">
	.st0{fill:none;stroke:#000000;stroke-miterlimit:10;}
</style>
<g>
	<g>
		<g>
			<line class="st0" x1="291.5" y1="611.7" x2="308" y2="628.2"/>
		</g>
		<g>
			<line class="st0" x1="266.5" y1="611.7" x2="283" y2="628.2"/>
		</g>
		<g>
			<line class="st0" x1="241.5" y1="611.7" x2="258" y2="628.2"/>
		</g>
		<g>
			<line class="st0" x1="216.5" y1="611.7" x2="233" y2="628.2"/>
		</g>
		<g>
			<line class="st0" x1="191.5" y1="611.7" x2="208" y2="628.2"/>
		</g>
		<g>
			<line class="st0" x1="166.5" y1="611.7" x2="183" y2="628.2"/>
		</g>
		<g>
			<line class="st0" x1="141.5" y1="611.7" x2="158" y2="628.2"/>
		</g>
		<g>
			<line class="st0" x1="116.5" y1="611.7" x2="133" y2="628.2"/>
		</g>
		<g>
			<line class="st0" x1="91.5" y1="611.7" x2="108" y2="628.2"/>
		</g>
		<g>
			<line class="st0" x1="66.5" y1="611.7" x2="83" y2="628.2"/>
		</g>
		<g>
			<line class="st0" x1="41.5" y1="611.7" x2="58" y2="628.2"/>
		</g>
		<g>
			<line class="st0" x1="16.5" y1="611.7" x2="33" y2="628.2"/>
		</g>
		<g>
			<line class="st0" x1="-8.5" y1="611.7" x2="8" y2="628.2"/>
		</g>
	</g>
	<g>
		<g>
			<line class="st0" x1="291.5" y1="577.7" x2="308" y2="594.2"/>
		</g>
		<g>
			<line class="st0" x1="266.5" y1="577.7" x2="283" y2="594.2"/>
		</g>
		<g>
			<line class="st0" x1="241.5" y1="577.7" x2="258" y2="594.2"/>
		</g>
		<g>
			<line class="st0" x1="216.5" y1="577.7" x2="233" y2="594.2"/>
		</g>
		<g>
			<line class="st0" x1="191.5" y1="577.7" x2="208" y2="594.2"/>
		</g>
		<g>
			<line class="st0" x1="166.5" y1="577.7" x2="183" y2="594.2"/>
		</g>
		<g>
			<line class="st0" x1="141.5" y1="577.7" x2="158" y2="594.2"/>
		</g>
		<g>
			<line class="st0" x1="116.5" y1="577.7" x2="133" y2="594.2"/>
		</g>
		<g>
			<line class="st0" x1="91.5" y1="577.7" x2="108" y2="594.2"/>
		</g>
		<g>
			<line class="st0" x1="66.5" y1="577.7" x2="83" y2="594.2"/>
		</g>
		<g>
			<line class="st0" x1="41.5" y1="577.7" x2="58" y2="594.2"/>
		</g>
		<g>
			<line class="st0" x1="16.5" y1="577.7" x2="33" y2="594.2"/>
		</g>
		<g>
			<line class="st0" x1="-8.5" y1="577.7" x2="8" y2="594.2"/>
		</g>
	</g>
	<g>
		<g>
			<line class="st0" x1="291.5" y1="543.7" x2="308" y2="560.2"/>
		</g>
		<g>
			<line class="st0" x1="266.5" y1="543.7" x2="283" y2="560.2"/>
		</g>
		<g>
			<line class="st0" x1="241.5" y1="543.7" x2="258" y2="560.2"/>
		</g>
		<g>
			<line class="st0" x1="216.5" y1="543.7" x2="233" y2="560.2"/>
		</g>
		<g>
			<line class="st0" x1="191.5" y1="543.7" x2="208" y2="560.2"/>
		</g>
		<g>
			<line class="st0" x1="166.5" y1="543.7" x2="183" y2="560.2"/>
		</g>
		<g>
			<line class="st0" x1="141.5" y1="543.7" x2="158" y2="560.2"/>
		</g>
		<g>
			<line class="st0" x1="116.5" y1="543.7" x2="133" y2="560.2"/>
		</g>
		<g>
			<line class="st0" x1="91.5" y1="543.7" x2="108" y2="560.2"/>
		</g>
		<g>
			<line class="st0" x1="66.5" y1="543.7" x2="83" y2="560.2"/>
		</g>
		<g>
			<line class="st0" x1="41.5" y1="543.7" x2="58" y2="560.2"/>
		</g>
		<g>
			<line class="st0" x1="16.5" y1="543.7" x2="33" y2="560.2"/>
		</g>
		<g>
			<line class="st0" x1="-8.5" y1="543.7" x2="8" y2="560.2"/>
		</g>
	</g>
	<g>
		<g>
			<line class="st0" x1="291.5" y1="509.7" x2="308" y2="526.2"/>
		</g>
		<g>
			<line class="st0" x1="266.5" y1="509.7" x2="283" y2="526.2"/>
		</g>
		<g>
			<line class="st0" x1="241.5" y1="509.7" x2="258" y2="526.2"/>
		</g>
		<g>
			<line class="st0" x1="216.5" y1="509.7" x2="233" y2="526.2"/>
		</g>
		<g>
			<line class="st0" x1="191.5" y1="509.7" x2="208" y2="526.2"/>
		</g>
		<g>
			<line class="st0" x1="166.5" y1="509.7" x2="183" y2="526.2"/>
		</g>
		<g>
			<line class="st0" x1="141.5" y1="509.7" x2="158" y2="526.2"/>
		</g>
		<g>
			<line class="st0" x1="116.5" y1="509.7" x2="133" y2="526.2"/>
		</g>
		<g>
			<line class="st0" x1="91.5" y1="509.7" x2="108" y2="526.2"/>
		</g>
		<g>
			<line class="st0" x1="66.5" y1="509.7" x2="83" y2="526.2"/>
		</g>
		<g>
			<line class="st0" x1="41.5" y1="509.7" x2="58" y2="526.2"/>
		</g>
		<g>
			<line class="st0" x1="16.5" y1="509.7" x2="33" y2="526.2"/>
		</g>
		<g>
			<line class="st0" x1="-8.5" y1="509.7" x2="8" y2="526.2"/>
		</g>
	</g>
	<g>
		<g>
			<line class="st0" x1="291.5" y1="475.7" x2="308" y2="492.2"/>
		</g>
		<g>
			<line class="st0" x1="266.5" y1="475.7" x2="283" y2="492.2"/>
		</g>
		<g>
			<line class="st0" x1="241.5" y1="475.7" x2="258" y2="492.2"/>
		</g>
		<g>
			<line class="st0" x1="216.5" y1="475.7" x2="233" y2="492.2"/>
		</g>
		<g>
			<line class="st0" x1="191.5" y1="475.7" x2="208" y2="492.2"/>
		</g>
		<g>
			<line class="st0" x1="166.5" y1="475.7" x2="183" y2="492.2"/>
		</g>
		<g>
			<line class="st0" x1="141.5" y1="475.7" x2="158" y2="492.2"/>
		</g>
		<g>
			<line class="st0" x1="116.5" y1="475.7" x2="133" y2="492.2"/>
		</g>
		<g>
			<line class="st0" x1="91.5" y1="475.7" x2="108" y2="492.2"/>
		</g>
		<g>
			<line class="st0" x1="66.5" y1="475.7" x2="83" y2="492.2"/>
		</g>
		<g>
			<line class="st0" x1="41.5" y1="475.7" x2="58" y2="492.2"/>
		</g>
		<g>
			<line class="st0" x1="16.5" y1="475.7" x2="33" y2="492.2"/>
		</g>
		<g>
			<line class="st0" x1="-8.5" y1="475.7" x2="8" y2="492.2"/>
		</g>
	</g>
	<g>
		<g>
			<line class="st0" x1="291.5" y1="441.7" x2="308" y2="458.2"/>
		</g>
		<g>
			<line class="st0" x1="266.5" y1="441.7" x2="283" y2="458.2"/>
		</g>
		<g>
			<line class="st0" x1="241.5" y1="441.7" x2="258" y2="458.2"/>
		</g>
		<g>
			<line class="st0" x1="216.5" y1="441.7" x2="233" y2="458.2"/>
		</g>
		<g>
			<line class="st0" x1="191.5" y1="441.7" x2="208" y2="458.2"/>
		</g>
		<g>
			<line class="st0" x1="166.5" y1="441.7" x2="183" y2="458.2"/>
		</g>
		<g>
			<line class="st0" x1="141.5" y1="441.7" x2="158" y2="458.2"/>
		</g>
		<g>
			<line class="st0" x1="116.5" y1="441.7" x2="133" y2="458.2"/>
		</g>
		<g>
			<line class="st0" x1="91.5" y1="441.7" x2="108" y2="458.2"/>
		</g>
		<g>
			<line class="st0" x1="66.5" y1="441.7" x2="83" y2="458.2"/>
		</g>
		<g>
			<line class="st0" x1="41.5" y1="441.7" x2="58" y2="458.2"/>
		</g>
		<g>
			<line class="st0" x1="16.5" y1="441.7" x2="33" y2="458.2"/>
		</g>
		<g>
			<line class="st0" x1="-8.5" y1="441.7" x2="8" y2="458.2"/>
		</g>
	</g>
	<g>
		<g>
			<line class="st0" x1="291.5" y1="407.7" x2="308" y2="424.2"/>
		</g>
		<g>
			<line class="st0" x1="266.5" y1="407.7" x2="283" y2="424.2"/>
		</g>
		<g>
			<line class="st0" x1="241.5" y1="407.7" x2="258" y2="424.2"/>
		</g>
		<g>
			<line class="st0" x1="216.5" y1="407.7" x2="233" y2="424.2"/>
		</g>
		<g>
			<line class="st0" x1="191.5" y1="407.7" x2="208" y2="424.2"/>
		</g>
		<g>
			<line class="st0" x1="166.5" y1="407.7" x2="183" y2="424.2"/>
		</g>
		<g>
			<line class="st0" x1="141.5" y1="407.7" x2="158" y2="424.2"/>
		</g>
		<g>
			<line class="st0" x1="116.5" y1="407.7" x2="133" y2="424.2"/>
		</g>
		<g>
			<line class="st0" x1="91.5" y1="407.7" x2="108" y2="424.2"/>
		</g>
		<g>
			<line class="st0" x1="66.5" y1="407.7" x2="83" y2="424.2"/>
		</g>
		<g>
			<line class="st0" x1="41.5" y1="407.7" x2="58" y2="424.2"/>
		</g>
		<g>
			<line class="st0" x1="16.5" y1="407.7" x2="33" y2="424.2"/>
		</g>
		<g>
			<line class="st0" x1="-8.5" y1="407.7" x2="8" y2="424.2"/>
		</g>
	</g>
	<g>
		<g>
			<line class="st0" x1="291.5" y1="373.7" x2="308" y2="390.2"/>
		</g>
		<g>
			<line class="st0" x1="266.5" y1="373.7" x2="283" y2="390.2"/>
		</g>
		<g>
			<line class="st0" x1="241.5" y1="373.7" x2="258" y2="390.2"/>
		</g>
		<g>
			<line class="st0" x1="216.5" y1="373.7" x2="233" y2="390.2"/>
		</g>
		<g>
			<line class="st0" x1="191.5" y1="373.7" x2="208" y2="390.2"/>
		</g>
		<g>
			<line class="st0" x1="166.5" y1="373.7" x2="183" y2="390.2"/>
		</g>
		<g>
			<line class="st0" x1="141.5" y1="373.7" x2="158" y2="390.2"/>
		</g>
		<g>
			<line class="st0" x1="116.5" y1="373.7" x2="133" y2="390.2"/>
		</g>
		<g>
			<line class="st0" x1="91.5" y1="373.7" x2="108" y2="390.2"/>
		</g>
		<g>
			<line class="st0" x1="66.5" y1="373.7" x2="83" y2="390.2"/>
		</g>
		<g>
			<line class="st0" x1="41.5" y1="373.7" x2="58" y2="390.2"/>
		</g>
		<g>
			<line class="st0" x1="16.5" y1="373.7" x2="33" y2="390.2"/>
		</g>
		<g>
			<line class="st0" x1="-8.5" y1="373.7" x2="8" y2="390.2"/>
		</g>
	</g>
	<g>
		<g>
			<line class="st0" x1="291.5" y1="339.7" x2="308" y2="356.2"/>
		</g>
		<g>
			<line class="st0" x1="266.5" y1="339.7" x2="283" y2="356.2"/>
		</g>
		<g>
			<line class="st0" x1="241.5" y1="339.7" x2="258" y2="356.2"/>
		</g>
		<g>
			<line class="st0" x1="216.5" y1="339.7" x2="233" y2="356.2"/>
		</g>
		<g>
			<line class="st0" x1="191.5" y1="339.7" x2="208" y2="356.2"/>
		</g>
		<g>
			<line class="st0" x1="166.5" y1="339.7" x2="183" y2="356.2"/>
		</g>
		<g>
			<line class="st0" x1="141.5" y1="339.7" x2="158" y2="356.2"/>
		</g>
		<g>
			<line class="st0" x1="116.5" y1="339.7" x2="133" y2="356.2"/>
		</g>
		<g>
			<line class="st0" x1="91.5" y1="339.7" x2="108" y2="356.2"/>
		</g>
		<g>
			<line class="st0" x1="66.5" y1="339.7" x2="83" y2="356.2"/>
		</g>
		<g>
			<line class="st0" x1="41.5" y1="339.7" x2="58" y2="356.2"/>
		</g>
		<g>
			<line class="st0" x1="16.5" y1="339.7" x2="33" y2="356.2"/>
		</g>
		<g>
			<line class="st0" x1="-8.5" y1="339.7" x2="8" y2="356.2"/>
		</g>
	</g>
	<g>
		<g>
			<line class="st0" x1="291.5" y1="305.7" x2="308" y2="322.2"/>
		</g>
		<g>
			<line class="st0" x1="266.5" y1="305.7" x2="283" y2="322.2"/>
		</g>
		<g>
			<line class="st0" x1="241.5" y1="305.7" x2="258" y2="322.2"/>
		</g>
		<g>
			<line class="st0" x1="216.5" y1="305.7" x2="233" y2="322.2"/>
		</g>
		<g>
			<line class="st0" x1="191.5" y1="305.7" x2="208" y2="322.2"/>
		</g>
		<g>
			<line class="st0" x1="166.5" y1="305.7" x2="183" y2="322.2"/>
		</g>
		<g>
			<line class="st0" x1="141.5" y1="305.7" x2="158" y2="322.2"/>
		</g>
		<g>
			<line class="st0" x1="116.5" y1="305.7" x2="133" y2="322.2"/>
		</g>
		<g>
			<line class="st0" x1="91.5" y1="305.7" x2="108" y2="322.2"/>
		</g>
		<g>
			<line class="st0" x1="66.5" y1="305.7" x2="83" y2="322.2"/>
		</g>
		<g>
			<line class="st0" x1="41.5" y1="305.7" x2="58" y2="322.2"/>
		</g>
		<g>
			<line class="st0" x1="16.5" y1="305.7" x2="33" y2="322.2"/>
		</g>
		<g>
			<line class="st0" x1="-8.5" y1="305.7" x2="8" y2="322.2"/>
		</g>
	</g>
	<g>
		<g>
			<line class="st0" x1="291.5" y1="271.7" x2="308" y2="288.2"/>
		</g>
		<g>
			<line class="st0" x1="266.5" y1="271.7" x2="283" y2="288.2"/>
		</g>
		<g>
			<line class="st0" x1="241.5" y1="271.7" x2="258" y2="288.2"/>
		</g>
		<g>
			<line class="st0" x1="216.5" y1="271.7" x2="233" y2="288.2"/>
		</g>
		<g>
			<line class="st0" x1="191.5" y1="271.7" x2="208" y2="288.2"/>
		</g>
		<g>
			<line class="st0" x1="166.5" y1="271.7" x2="183" y2="288.2"/>
		</g>
		<g>
			<line class="st0" x1="141.5" y1="271.7" x2="158" y2="288.2"/>
		</g>
		<g>
			<line class="st0" x1="116.5" y1="271.7" x2="133" y2="288.2"/>
		</g>
		<g>
			<line class="st0" x1="91.5" y1="271.7" x2="108" y2="288.2"/>
		</g>
		<g>
			<line class="st0" x1="66.5" y1="271.7" x2="83" y2="288.2"/>
		</g>
		<g>
			<line class="st0" x1="41.5" y1="271.7" x2="58" y2="288.2"/>
		</g>
		<g>
			<line class="st0" x1="16.5" y1="271.7" x2="33" y2="288.2"/>
		</g>
		<g>
			<line class="st0" x1="-8.5" y1="271.7" x2="8" y2="288.2"/>
		</g>
	</g>
	<g>
		<g>
			<line class="st0" x1="291.5" y1="237.7" x2="308" y2="254.2"/>
		</g>
		<g>
			<line class="st0" x1="266.5" y1="237.7" x2="283" y2="254.2"/>
		</g>
		<g>
			<line class="st0" x1="241.5" y1="237.7" x2="258" y2="254.2"/>
		</g>
		<g>
			<line class="st0" x1="216.5" y1="237.7" x2="233" y2="254.2"/>
		</g>
		<g>
			<line class="st0" x1="191.5" y1="237.7" x2="208" y2="254.2"/>
		</g>
		<g>
			<line class="st0" x1="166.5" y1="237.7" x2="183" y2="254.2"/>
		</g>
		<g>
			<line class="st0" x1="141.5" y1="237.7" x2="158" y2="254.2"/>
		</g>
		<g>
			<line class="st0" x1="116.5" y1="237.7" x2="133" y2="254.2"/>
		</g>
		<g>
			<line class="st0" x1="91.5" y1="237.7" x2="108" y2="254.2"/>
		</g>
		<g>
			<line class="st0" x1="66.5" y1="237.7" x2="83" y2="254.2"/>
		</g>
		<g>
			<line class="st0" x1="41.5" y1="237.7" x2="58" y2="254.2"/>
		</g>
		<g>
			<line class="st0" x1="16.5" y1="237.7" x2="33" y2="254.2"/>
		</g>
		<g>
			<line class="st0" x1="-8.5" y1="237.7" x2="8" y2="254.2"/>
		</g>
	</g>
	<g>
		<g>
			<line class="st0" x1="291.5" y1="203.7" x2="308" y2="220.2"/>
		</g>
		<g>
			<line class="st0" x1="266.5" y1="203.7" x2="283" y2="220.2"/>
		</g>
		<g>
			<line class="st0" x1="241.5" y1="203.7" x2="258" y2="220.2"/>
		</g>
		<g>
			<line class="st0" x1="216.5" y1="203.7" x2="233" y2="220.2"/>
		</g>
		<g>
			<line class="st0" x1="191.5" y1="203.7" x2="208" y2="220.2"/>
		</g>
		<g>
			<line class="st0" x1="166.5" y1="203.7" x2="183" y2="220.2"/>
		</g>
		<g>
			<line class="st0" x1="141.5" y1="203.7" x2="158" y2="220.2"/>
		</g>
		<g>
			<line class="st0" x1="116.5" y1="203.7" x2="133" y2="220.2"/>
		</g>
		<g>
			<line class="st0" x1="91.5" y1="203.7" x2="108" y2="220.2"/>
		</g>
		<g>
			<line class="st0" x1="66.5" y1="203.7" x2="83" y2="220.2"/>
		</g>
		<g>
			<line class="st0" x1="41.5" y1="203.7" x2="58" y2="220.2"/>
		</g>
		<g>
			<line class="st0" x1="16.5" y1="203.7" x2="33" y2="220.2"/>
		</g>
		<g>
			<line class="st0" x1="-8.5" y1="203.7" x2="8" y2="220.2"/>
		</g>
	</g>
	<g>
		<g>
			<line class="st0" x1="291.5" y1="169.7" x2="308" y2="186.2"/>
		</g>
		<g>
			<line class="st0" x1="266.5" y1="169.7" x2="283" y2="186.2"/>
		</g>
		<g>
			<line class="st0" x1="241.5" y1="169.7" x2="258" y2="186.2"/>
		</g>
		<g>
			<line class="st0" x1="216.5" y1="169.7" x2="233" y2="186.2"/>
		</g>
		<g>
			<line class="st0" x1="191.5" y1="169.7" x2="208" y2="186.2"/>
		</g>
		<g>
			<line class="st0" x1="166.5" y1="169.7" x2="183" y2="186.2"/>
		</g>
		<g>
			<line class="st0" x1="141.5" y1="169.7" x2="158" y2="186.2"/>
		</g>
		<g>
			<line class="st0" x1="116.5" y1="169.7" x2="133" y2="186.2"/>
		</g>
		<g>
			<line class="st0" x1="91.5" y1="169.7" x2="108" y2="186.2"/>
		</g>
		<g>
			<line class="st0" x1="66.5" y1="169.7" x2="83" y2="186.2"/>
		</g>
		<g>
			<line class="st0" x1="41.5" y1="169.7" x2="58" y2="186.2"/>
		</g>
		<g>
			<line class="st0" x1="16.5" y1="169.7" x2="33" y2="186.2"/>
		</g>
		<g>
			<line class="st0" x1="-8.5" y1="169.7" x2="8" y2="186.2"/>
		</g>
	</g>
	<g>
		<g>
			<line class="st0" x1="291.5" y1="135.7" x2="308" y2="152.2"/>
		</g>
		<g>
			<line class="st0" x1="266.5" y1="135.7" x2="283" y2="152.2"/>
		</g>
		<g>
			<line class="st0" x1="241.5" y1="135.7" x2="258" y2="152.2"/>
		</g>
		<g>
			<line class="st0" x1="216.5" y1="135.7" x2="233" y2="152.2"/>
		</g>
		<g>
			<line class="st0" x1="191.5" y1="135.7" x2="208" y2="152.2"/>
		</g>
		<g>
			<line class="st0" x1="166.5" y1="135.7" x2="183" y2="152.2"/>
		</g>
		<g>
			<line class="st0" x1="141.5" y1="135.7" x2="158" y2="152.2"/>
		</g>
		<g>
			<line class="st0" x1="116.5" y1="135.7" x2="133" y2="152.2"/>
		</g>
		<g>
			<line class="st0" x1="91.5" y1="135.7" x2="108" y2="152.2"/>
		</g>
		<g>
			<line class="st0" x1="66.5" y1="135.7" x2="83" y2="152.2"/>
		</g>
		<g>
			<line class="st0" x1="41.5" y1="135.7" x2="58" y2="152.2"/>
		</g>
		<g>
			<line class="st0" x1="16.5" y1="135.7" x2="33" y2="152.2"/>
		</g>
		<g>
			<line class="st0" x1="-8.5" y1="135.7" x2="8" y2="152.2"/>
		</g>
	</g>
	<g>
		<g>
			<line class="st0" x1="291.5" y1="101.7" x2="308" y2="118.2"/>
		</g>
		<g>
			<line class="st0" x1="266.5" y1="101.7" x2="283" y2="118.2"/>
		</g>
		<g>
			<line class="st0" x1="241.5" y1="101.7" x2="258" y2="118.2"/>
		</g>
		<g>
			<line class="st0" x1="216.5" y1="101.7" x2="233" y2="118.2"/>
		</g>
		<g>
			<line class="st0" x1="191.5" y1="101.7" x2="208" y2="118.2"/>
		</g>
		<g>
			<line class="st0" x1="166.5" y1="101.7" x2="183" y2="118.2"/>
		</g>
		<g>
			<line class="st0" x1="141.5" y1="101.7" x2="158" y2="118.2"/>
		</g>
		<g>
			<line class="st0" x1="116.5" y1="101.7" x2="133" y2="118.2"/>
		</g>
		<g>
			<line class="st0" x1="91.5" y1="101.7" x2="108" y2="118.2"/>
		</g>
		<g>
			<line class="st0" x1="66.5" y1="101.7" x2="83" y2="118.2"/>
		</g>
		<g>
			<line class="st0" x1="41.5" y1="101.7" x2="58" y2="118.2"/>
		</g>
		<g>
			<line class="st0" x1="16.5" y1="101.7" x2="33" y2="118.2"/>
		</g>
		<g>
			<line class="st0" x1="-8.5" y1="101.7" x2="8" y2="118.2"/>
		</g>
	</g>
	<g>
		<g>
			<line class="st0" x1="291.5" y1="67.7" x2="308" y2="84.2"/>
		</g>
		<g>
			<line class="st0" x1="266.5" y1="67.7" x2="283" y2="84.2"/>
		</g>
		<g>
			<line class="st0" x1="241.5" y1="67.7" x2="258" y2="84.2"/>
		</g>
		<g>
			<line class="st0" x1="216.5" y1="67.7" x2="233" y2="84.2"/>
		</g>
		<g>
			<line class="st0" x1="191.5" y1="67.7" x2="208" y2="84.2"/>
		</g>
		<g>
			<line class="st0" x1="166.5" y1="67.7" x2="183" y2="84.2"/>
		</g>
		<g>
			<line class="st0" x1="141.5" y1="67.7" x2="158" y2="84.2"/>
		</g>
		<g>
			<line class="st0" x1="116.5" y1="67.7" x2="133" y2="84.2"/>
		</g>
		<g>
			<line class="st0" x1="91.5" y1="67.7" x2="108" y2="84.2"/>
		</g>
		<g>
			<line class="st0" x1="66.5" y1="67.7" x2="83" y2="84.2"/>
		</g>
		<g>
			<line class="st0" x1="41.5" y1="67.7" x2="58" y2="84.2"/>
		</g>
		<g>
			<line class="st0" x1="16.5" y1="67.7" x2="33" y2="84.2"/>
		</g>
		<g>
			<line class="st0" x1="-8.5" y1="67.7" x2="8" y2="84.2"/>
		</g>
	</g>
	<g>
		<g>
			<line class="st0" x1="291.5" y1="33.7" x2="308" y2="50.2"/>
		</g>
		<g>
			<line class="st0" x1="266.5" y1="33.7" x2="283" y2="50.2"/>
		</g>
		<g>
			<line class="st0" x1="241.5" y1="33.7" x2="258" y2="50.2"/>
		</g>
		<g>
			<line class="st0" x1="216.5" y1="33.7" x2="233" y2="50.2"/>
		</g>
		<g>
			<line class="st0" x1="191.5" y1="33.7" x2="208" y2="50.2"/>
		</g>
		<g>
			<line class="st0" x1="166.5" y1="33.7" x2="183" y2="50.2"/>
		</g>
		<g>
			<line class="st0" x1="141.5" y1="33.7" x2="158" y2="50.2"/>
		</g>
		<g>
			<line class="st0" x1="116.5" y1="33.7" x2="133" y2="50.2"/>
		</g>
		<g>
			<line class="st0" x1="91.5" y1="33.7" x2="108" y2="50.2"/>
		</g>
		<g>
			<line class="st0" x1="66.5" y1="33.7" x2="83" y2="50.2"/>
		</g>
		<g>
			<line class="st0" x1="41.5" y1="33.7" x2="58" y2="50.2"/>
		</g>
		<g>
			<line class="st0" x1="16.5" y1="33.7" x2="33" y2="50.2"/>
		</g>
		<g>
			<line class="st0" x1="-8.5" y1="33.7" x2="8" y2="50.2"/>
		</g>
	</g>
	<g>
		<g>
			<line class="st0" x1="291.5" y1="-0.3" x2="308" y2="16.2"/>
		</g>
		<g>
			<line class="st0" x1="266.5" y1="-0.3" x2="283" y2="16.2"/>
		</g>
		<g>
			<line class="st0" x1="241.5" y1="-0.3" x2="258" y2="16.2"/>
		</g>
		<g>
			<line class="st0" x1="216.5" y1="-0.3" x2="233" y2="16.2"/>
		</g>
		<g>
			<line class="st0" x1="191.5" y1="-0.3" x2="208" y2="16.2"/>
		</g>
		<g>
			<line class="st0" x1="166.5" y1="-0.3" x2="183" y2="16.2"/>
		</g>
		<g>
			<line class="st0" x1="141.5" y1="-0.3" x2="158" y2="16.2"/>
		</g>
		<g>
			<line class="st0" x1="116.5" y1="-0.3" x2="133" y2="16.2"/>
		</g>
		<g>
			<line class="st0" x1="91.5" y1="-0.3" x2="108" y2="16.2"/>
		</g>
		<g>
			<line class="st0" x1="66.5" y1="-0.3" x2="83" y2="16.2"/>
		</g>
		<g>
			<line class="st0" x1="41.5" y1="-0.3" x2="58" y2="16.2"/>
		</g>
		<g>
			<line class="st0" x1="16.5" y1="-0.3" x2="33" y2="16.2"/>
		</g>
		<g>
			<line class="st0" x1="-8.5" y1="-0.3" x2="8" y2="16.2"/>
		</g>
	</g>
</g>
</svg>
