<?xml version="1.0" encoding="utf-8"?>
<!-- Generator: Adobe Illustrator 22.0.1, SVG Export Plug-In . SVG Version: 6.00 Build 0)  -->
<svg version="1.1" id="Layer_1" xmlns="http://www.w3.org/2000/svg" xmlns:xlink="http://www.w3.org/1999/xlink" x="0px" y="0px"
	 viewBox="0 0 75 400" style="enable-background:new 0 0 75 400;" xml:space="preserve">
<style type="text/css">
	.st0{fill:none;stroke:#000000;stroke-miterlimit:10;}
</style>
<g>
	<g>
		<polyline class="st0" points="-0.3,574.7 16.1,591.1 30.8,576.5 45.5,591.2 61.3,575.3 75.2,589.2 77.8,591.8 92.6,576.9 
			106.4,590.8 120.6,576.6 134.1,590.1 		"/>
	</g>
	<g>
		<polyline class="st0" points="-0.3,550.7 16.1,567.1 30.8,552.5 45.5,567.2 61.3,551.3 75.2,565.2 77.8,567.8 92.6,552.9 
			106.4,566.8 120.6,552.6 134.1,566.1 		"/>
	</g>
	<g>
		<polyline class="st0" points="-0.3,526.7 16.1,543.1 30.8,528.5 45.5,543.2 61.3,527.3 75.2,541.2 77.8,543.8 92.6,528.9 
			106.4,542.8 120.6,528.6 134.1,542.1 		"/>
	</g>
	<g>
		<polyline class="st0" points="-0.3,502.7 16.1,519.1 30.8,504.5 45.5,519.2 61.3,503.4 75.2,517.2 77.8,519.8 92.6,504.9 
			106.4,518.8 120.6,504.6 134.1,518.1 		"/>
	</g>
	<g>
		<polyline class="st0" points="-0.3,478.7 16.1,495.1 30.8,480.5 45.5,495.2 61.3,479.4 75.2,493.2 77.8,495.8 92.6,480.9 
			106.4,494.8 120.6,480.6 134.1,494.1 		"/>
	</g>
	<g>
		<polyline class="st0" points="-0.3,454.7 16.1,471.1 30.8,456.5 45.5,471.2 61.3,455.4 75.2,469.2 77.8,471.8 92.6,456.9 
			106.4,470.8 120.6,456.6 134.1,470.1 		"/>
	</g>
	<g>
		<polyline class="st0" points="-0.3,430.7 16.1,447.1 30.8,432.5 45.5,447.2 61.3,431.4 75.2,445.2 77.8,447.8 92.6,432.9 
			106.4,446.8 120.6,432.6 134.1,446.1 		"/>
	</g>
	<g>
		<polyline class="st0" points="-0.3,406.7 16.1,423.1 30.8,408.5 45.5,423.2 61.3,407.4 75.2,421.2 77.8,423.8 92.6,408.9 
			106.4,422.8 120.6,408.6 134.1,422.1 		"/>
	</g>
	<g>
		<polyline class="st0" points="-0.3,382.7 16.1,399.1 30.8,384.5 45.5,399.2 61.3,383.4 75.2,397.2 77.8,399.8 92.6,384.9 
			106.4,398.8 120.6,384.6 134.1,398.1 		"/>
	</g>
	<g>
		<polyline class="st0" points="-0.3,358.7 16.1,375.1 30.8,360.5 45.5,375.2 61.3,359.4 75.2,373.2 77.8,375.8 92.6,360.9 
			106.4,374.8 120.6,360.6 134.1,374.1 		"/>
	</g>
	<g>
		<polyline class="st0" points="-0.3,334.7 16.1,351.1 30.8,336.5 45.5,351.2 61.3,335.4 75.2,349.2 77.8,351.8 92.6,336.9 
			106.4,350.8 120.6,336.6 134.1,350.1 		"/>
	</g>
	<g>
		<polyline class="st0" points="-0.3,310.7 16.1,327.1 30.8,312.5 45.5,327.2 61.3,311.4 75.2,325.2 77.8,327.8 92.6,312.9 
			106.4,326.8 120.6,312.6 134.1,326.1 		"/>
	</g>
	<g>
		<polyline class="st0" points="-0.3,286.7 16.1,303.1 30.8,288.5 45.5,303.2 61.3,287.4 75.2,301.2 77.8,303.8 92.6,288.9 
			106.4,302.8 120.6,288.6 134.1,302.1 		"/>
	</g>
	<g>
		<polyline class="st0" points="-0.3,262.7 16.1,279.1 30.8,264.5 45.5,279.2 61.3,263.4 75.2,277.2 77.8,279.8 92.6,264.9 
			106.4,278.8 120.6,264.6 134.1,278.1 		"/>
	</g>
	<g>
		<polyline class="st0" points="-0.3,238.7 16.1,255.1 30.8,240.4 45.5,255.2 61.3,239.4 75.2,253.2 77.8,255.8 92.6,240.9 
			106.4,254.8 120.6,240.6 134.1,254.1 		"/>
	</g>
	<g>
		<polyline class="st0" points="-0.3,214.7 16.1,231.1 30.8,216.4 45.5,231.2 61.3,215.4 75.2,229.2 77.8,231.8 92.6,216.9 
			106.4,230.8 120.6,216.6 134.1,230.1 		"/>
	</g>
	<g>
		<polyline class="st0" points="-0.3,190.7 16.1,207.1 30.8,192.4 45.5,207.2 61.3,191.4 75.2,205.2 77.8,207.8 92.6,192.9 
			106.4,206.8 120.6,192.6 134.1,206.1 		"/>
	</g>
	<g>
		<polyline class="st0" points="-0.3,166.7 16.1,183.1 30.8,168.4 45.5,183.2 61.3,167.4 75.2,181.2 77.8,183.8 92.6,168.9 
			106.4,182.8 120.6,168.6 134.1,182.1 		"/>
	</g>
	<g>
		<polyline class="st0" points="-0.3,142.7 16.1,159.1 30.8,144.4 45.5,159.2 61.3,143.4 75.2,157.2 77.8,159.8 92.6,144.9 
			106.4,158.8 120.6,144.6 134.1,158.1 		"/>
	</g>
	<g>
		<polyline class="st0" points="-0.3,118.7 16.1,135.1 30.8,120.4 45.5,135.2 61.3,119.3 75.2,133.2 77.8,135.8 92.6,120.9 
			106.4,134.8 120.6,120.6 134.1,134.1 		"/>
	</g>
	<g>
		<polyline class="st0" points="-0.3,94.7 16.1,111.1 30.8,96.4 45.5,111.2 61.3,95.3 75.2,109.2 77.8,111.8 92.6,96.9 106.4,110.8 
			120.6,96.6 134.1,110.1 		"/>
	</g>
	<g>
		<polyline class="st0" points="-0.3,70.7 16.1,87.1 30.8,72.4 45.5,87.2 61.3,71.3 75.2,85.2 77.8,87.8 92.6,72.9 106.4,86.8 
			120.6,72.6 134.1,86.1 		"/>
	</g>
	<g>
		<polyline class="st0" points="-0.3,46.7 16.1,63.1 30.8,48.5 45.5,63.2 61.3,47.3 75.2,61.2 77.8,63.8 92.6,48.9 106.4,62.8 
			120.6,48.6 134.1,62.1 		"/>
	</g>
	<g>
		<polyline class="st0" points="-0.3,22.7 16.1,39.1 30.8,24.5 45.5,39.2 61.3,23.4 75.2,37.2 77.8,39.8 92.6,24.9 106.4,38.8 
			120.6,24.6 134.1,38.1 		"/>
	</g>
	<g>
		<polyline class="st0" points="-0.3,-1.3 16.1,15.1 30.8,0.5 45.5,15.2 61.3,-0.6 75.2,13.2 77.8,15.8 92.6,0.9 106.4,14.8 
			120.6,0.6 134.1,14.1 		"/>
	</g>
</g>
</svg>
