<?xml version="1.0" encoding="utf-8"?>
<!-- Generator: Adobe Illustrator 20.0.0, SVG Export Plug-In . SVG Version: 6.00 Build 0)  -->
<svg version="1.1" id="Layer_1" xmlns="http://www.w3.org/2000/svg" xmlns:xlink="http://www.w3.org/1999/xlink" x="0px" y="0px"
	 viewBox="0 0 75 400" style="enable-background:new 0 0 75 400;" xml:space="preserve">
<style type="text/css">
	.st0{fill:none;stroke:#000000;stroke-miterlimit:10;}
</style>
<g>
	<g>
		<g>
			<g>
				<polyline class="st0" points="-0.3,414.7 16.1,431.1 30.8,416.5 45.5,431.2 61.3,415.4 75.2,429.2 77.8,431.8 				"/>
			</g>
		</g>
	</g>
	<g>
		<g>
			<g>
				<polyline class="st0" points="-0.3,401.7 16.1,418.1 30.8,403.5 45.5,418.2 61.3,402.4 75.2,416.2 77.8,418.8 				"/>
			</g>
		</g>
	</g>
	<g>
		<g>
			<g>
				<polyline class="st0" points="-0.3,388.7 16.1,405.1 30.8,390.5 45.5,405.2 61.3,389.4 75.2,403.2 77.8,405.8 				"/>
			</g>
		</g>
	</g>
	<g>
		<g>
			<g>
				<polyline class="st0" points="-0.3,375.7 16.1,392.1 30.8,377.5 45.5,392.2 61.3,376.4 75.2,390.2 77.8,392.8 				"/>
			</g>
		</g>
	</g>
	<g>
		<g>
			<g>
				<polyline class="st0" points="-0.3,362.7 16.1,379.1 30.8,364.5 45.5,379.2 61.3,363.4 75.2,377.2 77.8,379.8 				"/>
			</g>
		</g>
	</g>
	<g>
		<g>
			<g>
				<polyline class="st0" points="-0.3,349.7 16.1,366.1 30.8,351.5 45.5,366.2 61.3,350.4 75.2,364.2 77.8,366.8 				"/>
			</g>
		</g>
	</g>
	<g>
		<g>
			<g>
				<polyline class="st0" points="-0.3,336.7 16.1,353.1 30.8,338.5 45.5,353.2 61.3,337.4 75.2,351.2 77.8,353.8 				"/>
			</g>
		</g>
	</g>
	<g>
		<g>
			<g>
				<polyline class="st0" points="-0.3,323.7 16.1,340.1 30.8,325.5 45.5,340.2 61.3,324.4 75.2,338.2 77.8,340.8 				"/>
			</g>
		</g>
	</g>
	<g>
		<g>
			<g>
				<polyline class="st0" points="-0.3,310.7 16.1,327.1 30.8,312.5 45.5,327.2 61.3,311.4 75.2,325.2 77.8,327.8 				"/>
			</g>
		</g>
	</g>
	<g>
		<g>
			<g>
				<polyline class="st0" points="-0.3,297.7 16.1,314.1 30.8,299.5 45.5,314.2 61.3,298.4 75.2,312.2 77.8,314.8 				"/>
			</g>
		</g>
	</g>
	<g>
		<g>
			<g>
				<polyline class="st0" points="-0.3,284.7 16.1,301.1 30.8,286.5 45.5,301.2 61.3,285.4 75.2,299.2 77.8,301.8 				"/>
			</g>
		</g>
	</g>
	<g>
		<g>
			<g>
				<polyline class="st0" points="-0.3,271.7 16.1,288.1 30.8,273.5 45.5,288.2 61.3,272.4 75.2,286.2 77.8,288.8 				"/>
			</g>
		</g>
	</g>
	<g>
		<g>
			<g>
				<polyline class="st0" points="-0.3,258.7 16.1,275.1 30.8,260.5 45.5,275.2 61.3,259.4 75.2,273.2 77.8,275.8 				"/>
			</g>
		</g>
	</g>
	<g>
		<g>
			<g>
				<polyline class="st0" points="-0.3,245.7 16.1,262.1 30.8,247.5 45.5,262.2 61.3,246.4 75.2,260.2 77.8,262.8 				"/>
			</g>
		</g>
	</g>
	<g>
		<g>
			<g>
				<polyline class="st0" points="-0.3,232.7 16.1,249.1 30.8,234.5 45.5,249.2 61.3,233.4 75.2,247.2 77.8,249.8 				"/>
			</g>
		</g>
	</g>
	<g>
		<g>
			<g>
				<polyline class="st0" points="-0.3,219.7 16.1,236.1 30.8,221.5 45.5,236.2 61.3,220.4 75.2,234.2 77.8,236.8 				"/>
			</g>
		</g>
	</g>
	<g>
		<g>
			<g>
				<polyline class="st0" points="-0.3,206.7 16.1,223.1 30.8,208.5 45.5,223.2 61.3,207.4 75.2,221.2 77.8,223.8 				"/>
			</g>
		</g>
	</g>
	<g>
		<g>
			<g>
				<polyline class="st0" points="-0.3,193.7 16.1,210.1 30.8,195.5 45.5,210.2 61.3,194.4 75.2,208.2 77.8,210.8 				"/>
			</g>
		</g>
	</g>
	<g>
		<g>
			<g>
				<polyline class="st0" points="-0.3,180.7 16.1,197.1 30.8,182.5 45.5,197.2 61.3,181.4 75.2,195.2 77.8,197.8 				"/>
			</g>
		</g>
	</g>
	<g>
		<g>
			<g>
				<polyline class="st0" points="-0.3,167.7 16.1,184.1 30.8,169.5 45.5,184.2 61.3,168.4 75.2,182.2 77.8,184.8 				"/>
			</g>
		</g>
	</g>
	<g>
		<g>
			<g>
				<polyline class="st0" points="-0.3,154.7 16.1,171.1 30.8,156.5 45.5,171.2 61.3,155.4 75.2,169.2 77.8,171.8 				"/>
			</g>
		</g>
	</g>
	<g>
		<g>
			<g>
				<polyline class="st0" points="-0.3,141.7 16.1,158.1 30.8,143.5 45.5,158.2 61.3,142.4 75.2,156.2 77.8,158.8 				"/>
			</g>
		</g>
	</g>
	<g>
		<g>
			<g>
				<polyline class="st0" points="-0.3,128.7 16.1,145.1 30.8,130.5 45.5,145.2 61.3,129.4 75.2,143.2 77.8,145.8 				"/>
			</g>
		</g>
	</g>
	<g>
		<g>
			<g>
				<polyline class="st0" points="-0.3,115.7 16.1,132.1 30.8,117.5 45.5,132.2 61.3,116.4 75.2,130.2 77.8,132.8 				"/>
			</g>
		</g>
	</g>
	<g>
		<g>
			<g>
				<polyline class="st0" points="-0.3,102.7 16.1,119.1 30.8,104.5 45.5,119.2 61.3,103.4 75.2,117.2 77.8,119.8 				"/>
			</g>
		</g>
	</g>
	<g>
		<g>
			<g>
				<polyline class="st0" points="-0.3,89.7 16.1,106.1 30.8,91.5 45.5,106.2 61.3,90.4 75.2,104.2 77.8,106.8 				"/>
			</g>
		</g>
	</g>
	<g>
		<g>
			<g>
				<polyline class="st0" points="-0.3,76.7 16.1,93.1 30.8,78.5 45.5,93.2 61.3,77.4 75.2,91.2 77.8,93.8 				"/>
			</g>
		</g>
	</g>
	<g>
		<g>
			<g>
				<polyline class="st0" points="-0.3,63.7 16.1,80.1 30.8,65.5 45.5,80.2 61.3,64.4 75.2,78.2 77.8,80.8 				"/>
			</g>
		</g>
	</g>
	<g>
		<g>
			<g>
				<polyline class="st0" points="-0.3,50.7 16.1,67.1 30.8,52.5 45.5,67.2 61.3,51.4 75.2,65.2 77.8,67.8 				"/>
			</g>
		</g>
	</g>
	<g>
		<g>
			<g>
				<polyline class="st0" points="-0.3,37.7 16.1,54.1 30.8,39.5 45.5,54.2 61.3,38.4 75.2,52.2 77.8,54.8 				"/>
			</g>
		</g>
	</g>
	<g>
		<g>
			<g>
				<polyline class="st0" points="-0.3,24.7 16.1,41.1 30.8,26.5 45.5,41.2 61.3,25.4 75.2,39.2 77.8,41.8 				"/>
			</g>
		</g>
	</g>
	<g>
		<g>
			<g>
				<polyline class="st0" points="-0.3,11.7 16.1,28.1 30.8,13.5 45.5,28.2 61.3,12.4 75.2,26.2 77.8,28.8 				"/>
			</g>
		</g>
	</g>
	<g>
		<g>
			<g>
				<polyline class="st0" points="-0.3,-1.3 16.1,15.1 30.8,0.5 45.5,15.2 61.3,-0.6 75.2,13.2 77.8,15.8 				"/>
			</g>
		</g>
	</g>
</g>
</svg>
