<?xml version="1.0" encoding="utf-8"?>
<!-- Generator: Adobe Illustrator 20.0.0, SVG Export Plug-In . SVG Version: 6.00 Build 0)  -->
<svg version="1.1" id="Layer_1" xmlns="http://www.w3.org/2000/svg" xmlns:xlink="http://www.w3.org/1999/xlink" x="0px" y="0px"
     viewBox="0 0 75 371.3" style="enable-background:new 0 0 75 371.3;" xml:space="preserve">
<style type="text/css">
    .tears{fill:none;stroke:#000000;stroke-miterlimit:10;stroke-width:2.5;}
</style>

    
        <line class="tears" x1="-15.1" y1="1264" x2="15.1" y2="1294.3"/>
    
    
        <line class="tears" x1="-15.1" y1="1224.5" x2="15.1" y2="1254.8"/>
    
    
        <line class="tears" x1="-15.1" y1="1185" x2="15.1" y2="1215.3"/>
    
    
        <line class="tears" x1="-15.1" y1="1145.5" x2="15.1" y2="1175.8"/>
    
    
        <line class="tears" x1="-15.1" y1="1106" x2="15.1" y2="1136.3"/>
    
    
        <line class="tears" x1="-15.1" y1="1066.5" x2="15.1" y2="1096.8"/>
    
    
        <line class="tears" x1="-15.1" y1="1027" x2="15.1" y2="1057.3"/>
    
    
        <line class="tears" x1="-15.1" y1="987.5" x2="15.1" y2="1017.8"/>
    
    
        <line class="tears" x1="-15.1" y1="948" x2="15.1" y2="978.3"/>
    
    
        <line class="tears" x1="-15.1" y1="908.5" x2="15.1" y2="938.8"/>
    
    
        <line class="tears" x1="-15.1" y1="869" x2="15.1" y2="899.3"/>
    
    
        <line class="tears" x1="-15.1" y1="829.5" x2="15.1" y2="859.8"/>
    
    
        <line class="tears" x1="-15.1" y1="790" x2="15.1" y2="820.3"/>
    
    
        <line class="tears" x1="-15.1" y1="750.5" x2="15.1" y2="780.8"/>
    
    
        <line class="tears" x1="-15.1" y1="711" x2="15.1" y2="741.3"/>
    
    
        <line class="tears" x1="-15.1" y1="671.5" x2="15.1" y2="701.8"/>
    
    
        <line class="tears" x1="-15.1" y1="632" x2="15.1" y2="662.3"/>
    
    
        <line class="tears" x1="-15.1" y1="592.5" x2="15.1" y2="622.8"/>
    
    
        <line class="tears" x1="-15.1" y1="553" x2="15.1" y2="583.3"/>
    
    
        <line class="tears" x1="-15.1" y1="513.5" x2="15.1" y2="543.8"/>
    
    
        <line class="tears" x1="-15.1" y1="474" x2="15.1" y2="504.3"/>
    
    
        <line class="tears" x1="-15.1" y1="434.5" x2="15.1" y2="464.8"/>
    
    
        <line class="tears" x1="-15.1" y1="395" x2="15.1" y2="425.3"/>
    
    
        <line class="tears" x1="-15.1" y1="355.5" x2="15.1" y2="385.8"/>
    
    
        <line class="tears" x1="-15.1" y1="316" x2="15.1" y2="346.3"/>
    
    
        <line class="tears" x1="-15.1" y1="276.5" x2="15.1" y2="306.8"/>
    
    
        <line class="tears" x1="-15.1" y1="237" x2="15.1" y2="267.3"/>
    
    
        <line class="tears" x1="-15.1" y1="197.5" x2="15.1" y2="227.8"/>
    
    
        <line class="tears" x1="-15.1" y1="158" x2="15.1" y2="188.3"/>
    
    
        <line class="tears" x1="-15.1" y1="118.5" x2="15.1" y2="148.8"/>
    
    
        <line class="tears" x1="-15.1" y1="79" x2="15.1" y2="109.3"/>
    
    
        <line class="tears" x1="-15.1" y1="39.5" x2="15.1" y2="69.8"/>
    
    
        <line class="tears" x1="-15.1" y1="0" x2="15.1" y2="30.3"/>
    


    
        <line class="tears" x1="22.4" y1="1264" x2="52.6" y2="1294.3"/>
    
    
        <line class="tears" x1="22.4" y1="1224.5" x2="52.6" y2="1254.8"/>
    
    
        <line class="tears" x1="22.4" y1="1185" x2="52.6" y2="1215.3"/>
    
    
        <line class="tears" x1="22.4" y1="1145.5" x2="52.6" y2="1175.8"/>
    
    
        <line class="tears" x1="22.4" y1="1106" x2="52.6" y2="1136.3"/>
    
    
        <line class="tears" x1="22.4" y1="1066.5" x2="52.6" y2="1096.8"/>
    
    
        <line class="tears" x1="22.4" y1="1027" x2="52.6" y2="1057.3"/>
    
    
        <line class="tears" x1="22.4" y1="987.5" x2="52.6" y2="1017.8"/>
    
    
        <line class="tears" x1="22.4" y1="948" x2="52.6" y2="978.3"/>
    
    
        <line class="tears" x1="22.4" y1="908.5" x2="52.6" y2="938.8"/>
    
    
        <line class="tears" x1="22.4" y1="869" x2="52.6" y2="899.3"/>
    
    
        <line class="tears" x1="22.4" y1="829.5" x2="52.6" y2="859.8"/>
    
    
        <line class="tears" x1="22.4" y1="790" x2="52.6" y2="820.3"/>
    
    
        <line class="tears" x1="22.4" y1="750.5" x2="52.6" y2="780.8"/>
    
    
        <line class="tears" x1="22.4" y1="711" x2="52.6" y2="741.3"/>
    
    
        <line class="tears" x1="22.4" y1="671.5" x2="52.6" y2="701.8"/>
    
    
        <line class="tears" x1="22.4" y1="632" x2="52.6" y2="662.3"/>
    
    
        <line class="tears" x1="22.4" y1="592.5" x2="52.6" y2="622.8"/>
    
    
        <line class="tears" x1="22.4" y1="553" x2="52.6" y2="583.3"/>
    
    
        <line class="tears" x1="22.4" y1="513.5" x2="52.6" y2="543.8"/>
    
    
        <line class="tears" x1="22.4" y1="474" x2="52.6" y2="504.3"/>
    
    
        <line class="tears" x1="22.4" y1="434.5" x2="52.6" y2="464.8"/>
    
    
        <line class="tears" x1="22.4" y1="395" x2="52.6" y2="425.3"/>
    
    
        <line class="tears" x1="22.4" y1="355.5" x2="52.6" y2="385.8"/>
    
    
        <line class="tears" x1="22.4" y1="316" x2="52.6" y2="346.3"/>
    
    
        <line class="tears" x1="22.4" y1="276.5" x2="52.6" y2="306.8"/>
    
    
        <line class="tears" x1="22.4" y1="237" x2="52.6" y2="267.3"/>
    
    
        <line class="tears" x1="22.4" y1="197.5" x2="52.6" y2="227.8"/>
    
    
        <line class="tears" x1="22.4" y1="158" x2="52.6" y2="188.3"/>
    
    
        <line class="tears" x1="22.4" y1="118.5" x2="52.6" y2="148.8"/>
    
    
        <line class="tears" x1="22.4" y1="79" x2="52.6" y2="109.3"/>
    
    
        <line class="tears" x1="22.4" y1="39.5" x2="52.6" y2="69.8"/>
    
    
        <line class="tears" x1="22.4" y1="0" x2="52.6" y2="30.3"/>
    


    
        <line class="tears" x1="59.9" y1="1264" x2="90.1" y2="1294.3"/>
    
    
        <line class="tears" x1="59.9" y1="1224.5" x2="90.1" y2="1254.8"/>
    
    
        <line class="tears" x1="59.9" y1="1185" x2="90.1" y2="1215.3"/>
    
    
        <line class="tears" x1="59.9" y1="1145.5" x2="90.1" y2="1175.8"/>
    
    
        <line class="tears" x1="59.9" y1="1106" x2="90.1" y2="1136.3"/>
    
    
        <line class="tears" x1="59.9" y1="1066.5" x2="90.1" y2="1096.8"/>
    
    
        <line class="tears" x1="59.9" y1="1027" x2="90.1" y2="1057.3"/>
    
    
        <line class="tears" x1="59.9" y1="987.5" x2="90.1" y2="1017.8"/>
    
    
        <line class="tears" x1="59.9" y1="948" x2="90.1" y2="978.3"/>
    
    
        <line class="tears" x1="59.9" y1="908.5" x2="90.1" y2="938.8"/>
    
    
        <line class="tears" x1="59.9" y1="869" x2="90.1" y2="899.3"/>
    
    
        <line class="tears" x1="59.9" y1="829.5" x2="90.1" y2="859.8"/>
    
    
        <line class="tears" x1="59.9" y1="790" x2="90.1" y2="820.3"/>
    
    
        <line class="tears" x1="59.9" y1="750.5" x2="90.1" y2="780.8"/>
    
    
        <line class="tears" x1="59.9" y1="711" x2="90.1" y2="741.3"/>
    
    
        <line class="tears" x1="59.9" y1="671.5" x2="90.1" y2="701.8"/>
    
    
        <line class="tears" x1="59.9" y1="632" x2="90.1" y2="662.3"/>
    
    
        <line class="tears" x1="59.9" y1="592.5" x2="90.1" y2="622.8"/>
    
    
        <line class="tears" x1="59.9" y1="553" x2="90.1" y2="583.3"/>
    
    
        <line class="tears" x1="59.9" y1="513.5" x2="90.1" y2="543.8"/>
    
    
        <line class="tears" x1="59.9" y1="474" x2="90.1" y2="504.3"/>
    
    
        <line class="tears" x1="59.9" y1="434.5" x2="90.1" y2="464.8"/>
    
    
        <line class="tears" x1="59.9" y1="395" x2="90.1" y2="425.3"/>
    
    
        <line class="tears" x1="59.9" y1="355.5" x2="90.1" y2="385.8"/>
    
    
        <line class="tears" x1="59.9" y1="316" x2="90.1" y2="346.3"/>
    
    
        <line class="tears" x1="59.9" y1="276.5" x2="90.1" y2="306.8"/>
    
    
        <line class="tears" x1="59.9" y1="237" x2="90.1" y2="267.3"/>
    
    
        <line class="tears" x1="59.9" y1="197.5" x2="90.1" y2="227.8"/>
    
    
        <line class="tears" x1="59.9" y1="158" x2="90.1" y2="188.3"/>
    
    
        <line class="tears" x1="59.9" y1="118.5" x2="90.1" y2="148.8"/>
    
    
        <line class="tears" x1="59.9" y1="79" x2="90.1" y2="109.3"/>
    
    
        <line class="tears" x1="59.9" y1="39.5" x2="90.1" y2="69.8"/>
    
    
        <line class="tears" x1="59.9" y1="0" x2="90.1" y2="30.3"/>
    

</svg>
