<?xml version="1.0" encoding="utf-8"?>
<!-- Generator: Adobe Illustrator 20.0.0, SVG Export Plug-In . SVG Version: 6.00 Build 0)  -->
<svg version="1.1" id="Layer_1" xmlns="http://www.w3.org/2000/svg" xmlns:xlink="http://www.w3.org/1999/xlink" x="0px" y="0px"
	 viewBox="0 0 144 36" style="enable-background:new 0 0 144 36;" xml:space="preserve">
<style type="text/css">
	.st0{fill:none;stroke:#EF6732;stroke-width:2;stroke-miterlimit:10;}
	.st1{fill:#EF6732;}
	.st2{fill:none;stroke:#1E1E1E;stroke-width:2;stroke-miterlimit:10;}
	.st3{fill:#1E1E1E;}
	.st4{fill:none;stroke:#FABAA1;stroke-width:2;stroke-miterlimit:10;}
	.st5{fill:#FABAA1;}
</style>
<title>indicator-states</title>
<line class="st0" x1="44" y1="6.3" x2="44" y2="28"/>
<g>
	<rect x="48.5" y="7.8" class="st1" width="14.4" height="2"/>
</g>
<g>
	<rect x="48.5" y="24.6" class="st1" width="9.5" height="2"/>
</g>
<g>
	<rect x="48.5" y="16.2" class="st1" width="19" height="2"/>
</g>
<line class="st2" x1="7.9" y1="6.3" x2="7.9" y2="28"/>
<g>
	<rect x="12.5" y="7.8" class="st3" width="14.4" height="2"/>
</g>
<g>
	<rect x="12.5" y="24.6" class="st3" width="9.5" height="2"/>
</g>
<g>
	<rect x="12.5" y="16.1" class="st3" width="19" height="2.1"/>
</g>
<line class="st4" x1="80" y1="6.3" x2="80" y2="28"/>
<g>
	<rect x="84.5" y="7.8" class="st5" width="14.4" height="3.5"/>
</g>
<g>
	<rect x="84.5" y="23.1" class="st5" width="9.5" height="3.5"/>
</g>
<g>
	<rect x="84.5" y="15.4" class="st5" width="19" height="3.5"/>
</g>
<line class="st0" x1="115.9" y1="6.3" x2="115.9" y2="28"/>
<g>
	<rect x="120.4" y="7.8" class="st1" width="14.4" height="3.5"/>
</g>
<g>
	<rect x="120.4" y="23.1" class="st1" width="9.5" height="3.5"/>
</g>
<g>
	<rect x="120.4" y="15.4" class="st1" width="19" height="3.5"/>
</g>
</svg>
