<?xml version="1.0" encoding="utf-8"?>
<!-- Generator: Adobe Illustrator 22.0.1, SVG Export Plug-In . SVG Version: 6.00 Build 0)  -->
<svg version="1.1" id="Layer_1" xmlns="http://www.w3.org/2000/svg" xmlns:xlink="http://www.w3.org/1999/xlink" x="0px" y="0px"
	 viewBox="0 0 36 36" style="enable-background:new 0 0 36 36;" xml:space="preserve">
<style type="text/css">
	.st0{fill:#A6B7ED;}
</style>
<path class="st0" d="M32.5,29.2l-8.7-8.7c1.2-1.7,1.7-3.9,1.7-6c0.2-6-4.8-11-11-11c-6,0-11,5-11,11c0,6.2,5,11,11,11
	c2.1,0,4.3-0.6,6-1.7l8.7,8.7L32.5,29.2z M14.5,21.5c-3.9,0-7-3.1-7-7s3.1-7,7-7s7,3.1,7,7C21.5,18.4,18.4,21.5,14.5,21.5z"/>
</svg>
