<?xml version="1.0" encoding="utf-8"?>
<!-- Generator: Adobe Illustrator 20.0.0, SVG Export Plug-In . SVG Version: 6.00 Build 0)  -->
<svg version="1.1" id="Layer_1" xmlns="http://www.w3.org/2000/svg" xmlns:xlink="http://www.w3.org/1999/xlink" x="0px" y="0px"
	 viewBox="0 0 144 36" style="enable-background:new 0 0 144 36;" xml:space="preserve">
<style type="text/css">
	.st0{fill:none;stroke:#EF6732;stroke-miterlimit:10;}
	.st1{fill:none;stroke:#1E1E1E;stroke-miterlimit:10;}
	.st2{fill:none;stroke:#FFFFFF;stroke-miterlimit:10;}
	.st3{fill:none;stroke:#FCBBA1;stroke-miterlimit:10;}
</style>
<title>icon</title>
<polyline class="st0" points="65.9,25 56.7,27 56.7,28.4 54,28.4 51.3,28.4 51.3,27 42.1,25 "/>
<path class="st0" d="M54,25c0,0,2.3-3.5,12.8-3.5V8.3C56.3,8.3,54,11.9,54,11.9s-2.3-3.6-12.8-3.6v13.1C51.7,21.5,54,25,54,25z"/>
<line class="st0" x1="54" y1="25" x2="54" y2="11.9"/>
<polyline class="st1" points="29.9,25 20.7,27 20.7,28.4 18,28.4 15.3,28.4 15.3,27 6.1,25 "/>
<path class="st1" d="M18,25c0,0,2.3-3.5,12.8-3.5V8.3C20.3,8.3,18,11.9,18,11.9S15.7,8.3,5.2,8.3v13.1C15.7,21.5,18,25,18,25z"/>
<line class="st1" x1="18" y1="25" x2="18" y2="11.9"/>
<polyline class="st2" points="101.9,25 92.7,27 92.7,28.4 90,28.4 87.3,28.4 87.3,27 78.1,25 "/>
<path class="st2" d="M90,25c0,0,2.3-3.5,12.8-3.5V8.3C92.3,8.3,90,11.9,90,11.9s-2.3-3.6-12.8-3.6v13.1C87.7,21.5,90,25,90,25z"/>
<line class="st2" x1="90" y1="25" x2="90" y2="11.9"/>
<polyline class="st3" points="137.9,25 128.7,27 128.7,28.4 126,28.4 123.3,28.4 123.3,27 114.1,25 "/>
<path class="st3" d="M126,25c0,0,2.3-3.5,12.8-3.5V8.3c-10.5,0-12.8,3.6-12.8,3.6s-2.3-3.6-12.8-3.6v13.1C123.7,21.5,126,25,126,25z
	"/>
<line class="st3" x1="126" y1="25" x2="126" y2="11.9"/>
</svg>
