<?xml version="1.0" encoding="utf-8"?>
<!-- Generator: Adobe Illustrator 20.0.0, SVG Export Plug-In . SVG Version: 6.00 Build 0)  -->
<svg version="1.1" id="Layer_1" xmlns="http://www.w3.org/2000/svg" xmlns:xlink="http://www.w3.org/1999/xlink" x="0px" y="0px"
	 viewBox="0 0 36 36" style="enable-background:new 0 0 36 36;" xml:space="preserve">
<style type="text/css">
	.st0{fill:#1E1E1E;}
</style>
<title>icon</title>
<g>
	<polygon class="st0" points="21.4,29.5 14.6,29.5 14.6,27.9 5.3,25.9 5.5,24.9 15.7,27.1 15.7,28.5 20.3,28.5 20.3,27.1 30.5,24.9 
		30.7,25.9 21.4,27.9 	"/>
</g>
<g>
	<path class="st0" d="M18,26.3l-0.4-0.7c0,0-2.5-3.5-13.1-3.5H4V7.2h0.5c8.9,0,12.4,2.4,13.5,3.5c1.1-1.1,4.6-3.5,13.5-3.5H32v14.9
		h-0.5c-10.5,0-13,3.5-13.1,3.5L18,26.3z M5,21.1c8.5,0.1,11.9,2.4,13,3.5c1.1-1.1,4.5-3.4,13-3.5V8.3c-10.1,0.1-12.5,3.5-12.5,3.5
		L18,12.5l-0.4-0.7c0,0-2.4-3.4-12.5-3.5V21.1z"/>
</g>
<g>
	<rect x="17.5" y="11.5" class="st0" width="1.1" height="13.9"/>
</g>
</svg>
